<svg xmlns="http://www.w3.org/2000/svg" viewBox="0 0 500 500"><style>.st0,.st1{opacity:.1;fill:#ebebeb}.st1{fill:#fafafa}.st2{fill:#e0e0e0}.st2,.st3{opacity:.1}.st5{fill:#e0e0e0}.st11{fill:#263238}.st12{fill:#e8505b}.st13{fill:#5c5fb0}.st14{fill:#fafafa}.st16{fill:#455a64}.st17{fill:#797aed}.st18{fill:#ffbe9d}.st19{fill:#eb996e}.st21{opacity:.4}</style><g id="Background_Complete"><path class="st0" d="M69 27.7h174v312.6H69z"/><path class="st1" d="M75.9 36.8h158.3V331H75.9z"/><path class="st2" d="M250.3 343.1l-7.3-2.8V22.4h7.3z"/><path class="st0" d="M234.2 203.1c-10-4.8-18.8 1-28 7.2s-17.8 14.1-28.6 16.6c-7.2 1.7-14.9.7-21.9 3.2-14.2 5.1-22.4 23.1-37.5 24-8.2.5-15.5-4.5-22.8-8.2-7.3-3.7-13.1-7.3-19.6-2.3V331h158.3V203.1z"/><path class="st2" d="M75.9 121.4h161.8v3.1H75.9zm0 70.1h161.8v3.1H75.9zm0 70h161.8v3.1H75.9z"/><path transform="rotate(-90 155.068 231.147)" class="st2" d="M46.9 227.1h216.4v8H46.9z"/><path class="st2" d="M106.4 36.8h3.6V123h-3.6zm31.2 0h3.6V123h-3.6zm31.3 0h3.6V123h-3.6zm31.3 0h3.6V123h-3.6zM61.6 22.4H69v319.9h-7.4z"/><path class="st2" d="M61.6 19.2h188.7v8.5H61.6zm-5.2 325h198.9v7.9H56.4z"/><path class="st0" d="M243 340.3l12.3 3.9H56.4l12.6-3.9z"/><path fill="#f5f5f5" d="M261.4 276.1h180.8v88.5H261.4z"/><path class="st2" d="M437.9 360.4H265.5v-79.7h172.3v79.7zm-171.2-1.2h170.1v-77.3H266.7v77.3z"/><g class="st3"><path class="st5" d="M442.2 276.1h44.2v88.5h-44.2z"/></g><path class="st2" d="M266.1 305.4h171.2c.3 0 .3-.5 0-.5H266.1c-.3 0-.3.5 0 .5z"/><path class="st5" d="M352.3 305.1c.5-7.9.5-16.2.1-24 0-.3-.4-.3-.5 0-.4 7.9-.5 16.2.1 24-.1.3.3.3.3 0z"/><g class="st3"><path class="st5" d="M398.4 293.1c0 1.4-1 2.5-2.3 2.5-1.3 0-2.3-1.1-2.3-2.5s1-2.5 2.3-2.5c1.2 0 2.3 1.2 2.3 2.5z"/></g><path class="st5" d="M308.5 293.1c0 1.4-1 2.5-2.3 2.5-1.3 0-2.3-1.1-2.3-2.5s1-2.5 2.3-2.5c1.3 0 2.3 1.2 2.3 2.5zm45.5 27.5c0 1.4-1 2.5-2.3 2.5-1.3 0-2.3-1.1-2.3-2.5s1-2.5 2.3-2.5c1.3 0 2.3 1.1 2.3 2.5zm-71 44l-9.3 55.5h5.2l17.2-55.5zm146.4 0l7.8 55.6H432l-15.7-55.6z"/><g class="st3"><path class="st5" d="M464.4 364.6l8.8 55.6h-5.3l-16.6-55.6z"/></g><path class="st5" d="M353.9 345.6c0 1.4-1 2.5-2.3 2.5-1.3 0-2.3-1.1-2.3-2.5s1-2.5 2.3-2.5c1.2 0 2.3 1.1 2.3 2.5zm-87.8-12.8h171.2c.3 0 .3-.5 0-.5H266.1c-.3 0-.3.5 0 .5z"/><path class="st0" d="M317.6 60.3h135.5V236H317.6z"/><path class="st2" d="M326.9 193.6s.2-.1.7.1c.4.2 1 .7 1.2 1.5.1.4.1 1-.2 1.4-.3.5-.7.9-1.3 1.1-.6.2-1.3.3-2-.1-.7-.3-1.2-.9-1.5-1.6-.7-1.4-.5-3.3.5-4.9.5-.8 1.2-1.5 2.1-1.9.4-.2 1-.3 1.5-.3s1 .2 1.5.5c.9.6 1.5 1.5 1.9 2.5.4 1 .6 2.1.6 3.2.1 2.2-.4 4.5-1.6 6.6-1.2 2-2.7 3.7-4.1 5.4-1.4 1.7-2.5 3.4-3.1 5.3-.5 1.9-.5 3.9.3 5.4.8 1.6 2.4 2.4 3.8 2.4.7 0 1.4-.2 1.9-.6.5-.4.9-.9 1-1.5.3-1.1-.1-2.2-.5-2.8-.4-.7-1.1-1-1.5-1.1-.2-.1-.4-.1-.5 0h-.2.7c.4.1 1.1.4 1.6 1.1.5.7.9 1.8.6 3-.1.6-.5 1.2-1.1 1.6-.6.4-1.3.7-2.1.7s-1.6-.2-2.4-.6c-.8-.4-1.4-1.1-1.8-1.9-.9-1.6-1-3.7-.4-5.7s1.8-3.8 3.1-5.5c1.4-1.7 2.9-3.4 4-5.3 1.1-2 1.6-4.2 1.5-6.3-.1-1.1-.2-2.1-.6-3.1-.4-.9-.9-1.8-1.7-2.3-.8-.5-1.8-.6-2.6-.2-.8.4-1.5 1-1.9 1.8-.9 1.4-1.2 3.2-.5 4.5.3.7.8 1.2 1.4 1.5.6.3 1.2.3 1.8.1.5-.2 1-.6 1.2-1 .2-.4.3-.9.2-1.3-.2-.8-.7-1.3-1-1.5-.3-.2-.5-.1-.5-.2zm1.2-15.9s-.2.1-.7-.1c-.4-.2-1-.7-1.2-1.5-.1-.4-.1-1 .2-1.4.3-.5.7-.9 1.3-1.1.6-.2 1.3-.3 2 .1.7.3 1.2.9 1.5 1.6.7 1.4.5 3.3-.5 4.9-.5.8-1.2 1.5-2.1 1.9-.4.2-1 .3-1.5.3s-1-.2-1.5-.5c-.9-.6-1.5-1.5-1.9-2.5-.4-1-.6-2.1-.6-3.2-.1-2.2.4-4.5 1.6-6.6 1.2-2 2.7-3.7 4.1-5.4 1.4-1.7 2.5-3.4 3.1-5.3.5-1.9.5-3.9-.3-5.4-.8-1.6-2.4-2.4-3.8-2.4-.7 0-1.4.2-1.9.6-.5.4-.9.9-1 1.5-.3 1.1.1 2.2.5 2.8.4.7 1.1 1 1.5 1.1.2.1.4.1.5 0h-.5c-.4-.1-1.1-.4-1.6-1.1-.5-.7-.9-1.8-.6-3 .1-.6.5-1.2 1.1-1.6.6-.4 1.3-.7 2.1-.7s1.6.2 2.4.6c.8.4 1.4 1.1 1.8 1.9.9 1.6 1 3.7.4 5.7s-1.8 3.8-3.1 5.5c-1.4 1.7-2.9 3.4-4 5.3-1.1 2-1.6 4.2-1.5 6.3.1 1.1.2 2.1.6 3.1.4.9.9 1.8 1.7 2.3.8.5 1.8.6 2.6.2.8-.4 1.5-1 1.9-1.8.9-1.4 1.2-3.2.5-4.5-.3-.7-.8-1.2-1.4-1.5-.6-.3-1.2-.3-1.8-.1-.5.2-1 .6-1.2 1-.2.4-.3.9-.2 1.3.2.8.7 1.3 1 1.5.2.2.5.1.5.2zm.7 7.6c0 .8-.6 1.4-1.4 1.4-.8 0-1.4-.6-1.4-1.4 0-.8.6-1.4 1.4-1.4.8.1 1.4.7 1.4 1.4z"/><path class="st5" d="M329.4 148.6c0 .8-.6 1.4-1.4 1.4-.8 0-1.4-.6-1.4-1.4 0-.8.6-1.4 1.4-1.4.8.1 1.4.7 1.4 1.4z"/><path class="st2" d="M327.5 103.5s.2 0 .6-.2c.4-.2.9-.7 1-1.5.1-.4 0-.9-.2-1.3s-.7-.8-1.2-1c-.5-.2-1.2-.2-1.8.1-.6.3-1.1.8-1.4 1.5-.7 1.3-.4 3.1.6 4.5.5.7 1.1 1.4 1.9 1.8.8.4 1.8.4 2.6-.2.8-.5 1.3-1.4 1.7-2.3.4-.9.5-2 .6-3.1.1-2.1-.4-4.4-1.5-6.3-1.1-2-2.7-3.6-4-5.4-1.4-1.7-2.6-3.5-3.1-5.5s-.5-4 .4-5.7c.4-.8 1.1-1.5 1.8-1.9.7-.4 1.6-.6 2.4-.6.8 0 1.5.3 2.1.7.6.4 1 1 1.1 1.6.3 1.2-.1 2.3-.6 3-.5.7-1.2 1-1.6 1.1h-.7.7c.4-.1 1-.4 1.5-1.1.5-.7.8-1.7.5-2.9-.1-.6-.5-1.1-1-1.5-.5-.4-1.2-.6-1.9-.6-1.5 0-3.1.8-3.8 2.4-.8 1.5-.9 3.5-.3 5.4.5 1.9 1.7 3.6 3.1 5.3 1.3 1.7 2.9 3.4 4.1 5.4 1.2 2 1.7 4.4 1.6 6.6-.1 1.1-.3 2.2-.6 3.2-.4 1-1 1.9-1.9 2.5-.4.3-1 .5-1.5.5s-1-.1-1.5-.3c-.9-.4-1.6-1.2-2.1-1.9-1-1.5-1.3-3.4-.5-4.9.3-.7.9-1.3 1.5-1.6.7-.3 1.4-.3 2-.1.6.2 1.1.6 1.3 1.1.3.5.3 1 .2 1.4-.2.9-.8 1.4-1.2 1.5-.7.4-.9.3-.9.3zm.4 16s-.2 0-.6.2c-.4.2-.9.7-1 1.5-.1.4 0 .9.2 1.3s.7.8 1.2 1c.5.2 1.2.2 1.8-.1.6-.3 1.1-.8 1.4-1.5.7-1.3.4-3.1-.6-4.5-.5-.7-1.1-1.4-1.9-1.8-.8-.4-1.8-.4-2.6.2-.8.5-1.3 1.4-1.7 2.3-.4.9-.5 2-.6 3.1-.1 2.1.4 4.4 1.5 6.3 1.1 2 2.7 3.6 4 5.4 1.4 1.7 2.6 3.5 3.1 5.5s.5 4-.4 5.7c-.4.8-1.1 1.5-1.8 1.9-.7.4-1.6.6-2.4.6-.8 0-1.5-.3-2.1-.7-.6-.4-1-1-1.1-1.6-.3-1.2.1-2.3.6-3 .5-.7 1.2-1 1.6-1.1h.5-.5c-.4.1-1 .4-1.5 1.1-.5.7-.8 1.7-.5 2.9.1.6.5 1.1 1 1.5.5.4 1.2.6 1.9.6 1.5 0 3.1-.8 3.8-2.4.8-1.5.9-3.5.3-5.4-.5-1.9-1.7-3.6-3.1-5.3-1.3-1.7-2.9-3.4-4.1-5.4-1.2-2-1.7-4.4-1.6-6.6.1-1.1.3-2.2.6-3.2.4-1 1-1.9 1.9-2.5.4-.3 1-.5 1.5-.5s1 .1 1.5.3c.9.4 1.6 1.2 2.1 1.9 1 1.5 1.3 3.4.5 4.9-.3.7-.9 1.3-1.5 1.6-.7.3-1.4.3-2 .1-.6-.2-1.1-.6-1.3-1.1-.3-.5-.3-1-.2-1.4.2-.9.8-1.4 1.2-1.5.6-.4.9-.3.9-.3zm1.5-7.7c0-.8-.6-1.4-1.4-1.4-.8 0-1.4.6-1.4 1.4 0 .8.6 1.4 1.4 1.4.8 0 1.4-.6 1.4-1.4zm111.8 81.8s.2-.1.7.1c.4.2 1 .7 1.2 1.5.1.4.1 1-.2 1.4-.3.5-.7.9-1.3 1.1-.6.2-1.3.3-2-.1-.7-.3-1.2-.9-1.5-1.6-.7-1.4-.5-3.3.5-4.9.5-.8 1.2-1.5 2.1-1.9.4-.2 1-.3 1.5-.3s1 .2 1.5.5c.9.6 1.5 1.5 1.9 2.5.4 1 .6 2.1.6 3.2.1 2.2-.4 4.5-1.6 6.6-1.2 2-2.7 3.7-4.1 5.4-1.4 1.7-2.5 3.4-3.1 5.3-.5 1.9-.5 3.9.3 5.4.8 1.6 2.4 2.4 3.8 2.4.7 0 1.4-.2 1.9-.6.5-.4.9-.9 1-1.5.3-1.1-.1-2.2-.5-2.8-.4-.7-1.1-1-1.5-1.1-.2-.1-.4-.1-.5 0h-.2.7c.4.1 1.1.4 1.6 1.1.5.7.9 1.8.6 3-.1.6-.5 1.2-1.1 1.6-.6.4-1.3.7-2.1.7s-1.6-.2-2.4-.6c-.8-.4-1.4-1.1-1.8-1.9-.9-1.6-1-3.7-.4-5.7s1.8-3.8 3.1-5.5c1.4-1.7 2.9-3.4 4-5.3 1.1-2 1.6-4.2 1.5-6.3-.1-1.1-.2-2.1-.6-3.1-.4-.9-.9-1.8-1.7-2.3-.8-.5-1.8-.6-2.6-.2-.8.4-1.5 1-1.9 1.8-.9 1.4-1.2 3.2-.5 4.5.3.7.8 1.2 1.4 1.5.6.3 1.2.3 1.8.1.5-.2 1-.6 1.2-1 .2-.4.3-.9.2-1.3-.2-.8-.7-1.3-1-1.5-.3-.2-.5-.1-.5-.2zm1.2-15.9s-.2.1-.7-.1c-.4-.2-1-.7-1.2-1.5-.1-.4-.1-1 .2-1.4.3-.5.7-.9 1.3-1.1.6-.2 1.3-.3 2 .1.7.3 1.2.9 1.5 1.6.7 1.4.5 3.3-.5 4.9-.5.8-1.2 1.5-2.1 1.9-.4.2-1 .3-1.5.3s-1-.2-1.5-.5c-.9-.6-1.5-1.5-1.9-2.5-.4-1-.6-2.1-.6-3.2-.1-2.2.4-4.5 1.6-6.6 1.2-2 2.7-3.7 4.1-5.4 1.4-1.7 2.5-3.4 3.1-5.3.5-1.9.5-3.9-.3-5.4-.8-1.6-2.4-2.4-3.8-2.4-.7 0-1.4.2-1.9.6-.5.4-.9.9-1 1.5-.3 1.1.1 2.2.5 2.8.4.7 1.1 1 1.5 1.1.2.1.4.1.5 0h-.5c-.4-.1-1.1-.4-1.6-1.1-.5-.7-.9-1.8-.6-3 .1-.6.5-1.2 1.1-1.6.6-.4 1.3-.7 2.1-.7s1.6.2 2.4.6c.8.4 1.4 1.1 1.8 1.9.9 1.6 1 3.7.4 5.7s-1.8 3.8-3.1 5.5c-1.4 1.7-2.9 3.4-4 5.3-1.1 2-1.6 4.2-1.5 6.3.1 1.1.2 2.1.6 3.1.4.9.9 1.8 1.7 2.3.8.5 1.8.6 2.6.2.8-.4 1.5-1 1.9-1.8.9-1.4 1.2-3.2.5-4.5-.3-.7-.8-1.2-1.4-1.5-.6-.3-1.2-.3-1.8-.1-.5.2-1 .6-1.2 1-.2.4-.3.9-.2 1.3.2.8.7 1.3 1 1.5.2.2.5.1.5.2zm.8 7.6c0 .8-.6 1.4-1.4 1.4-.8 0-1.4-.6-1.4-1.4 0-.8.6-1.4 1.4-1.4.8.1 1.4.7 1.4 1.4zm.6-36.7c0 .8-.6 1.4-1.4 1.4s-1.4-.6-1.4-1.4c0-.8.6-1.4 1.4-1.4s1.4.7 1.4 1.4zm-2-45.1s.2 0 .6-.2c.4-.2.9-.7 1-1.5.1-.4 0-.9-.2-1.3s-.7-.8-1.2-1c-.5-.2-1.2-.2-1.8.1-.6.3-1.1.8-1.4 1.5-.7 1.3-.4 3.1.6 4.5.5.7 1.1 1.4 1.9 1.8.8.4 1.8.4 2.6-.2.8-.5 1.3-1.4 1.7-2.3.4-.9.5-2 .6-3.1.1-2.1-.4-4.4-1.5-6.3-1.1-2-2.7-3.6-4-5.4-1.4-1.7-2.6-3.5-3.1-5.5s-.5-4 .4-5.7c.4-.8 1.1-1.5 1.8-1.9.7-.4 1.6-.6 2.4-.6.8 0 1.5.3 2.1.7.6.4 1 1 1.1 1.6.3 1.2-.1 2.3-.6 3-.5.7-1.2 1-1.6 1.1h-.7.7c.4-.1 1-.4 1.5-1.1.5-.7.8-1.7.5-2.9-.1-.6-.5-1.1-1-1.5-.5-.4-1.2-.6-1.9-.6-1.5 0-3.1.8-3.8 2.4-.8 1.5-.9 3.5-.3 5.4.5 1.9 1.7 3.6 3.1 5.3 1.3 1.7 2.9 3.4 4.1 5.4 1.2 2 1.7 4.4 1.6 6.6-.1 1.1-.3 2.2-.6 3.2-.4 1-1 1.9-1.9 2.5-.4.3-1 .5-1.5.5s-1-.1-1.5-.3c-.9-.4-1.6-1.2-2.1-1.9-1-1.5-1.3-3.4-.5-4.9.3-.7.9-1.3 1.5-1.6.7-.3 1.4-.3 2-.1.6.2 1.1.6 1.3 1.1.3.5.3 1 .2 1.4-.2.9-.8 1.4-1.2 1.5-.7.4-.9.3-.9.3zm.4 16s-.2 0-.6.2c-.4.2-.9.7-1 1.5-.1.4 0 .9.2 1.3s.7.8 1.2 1c.5.2 1.2.2 1.8-.1.6-.3 1.1-.8 1.4-1.5.7-1.3.4-3.1-.6-4.5-.5-.7-1.1-1.4-1.9-1.8-.8-.4-1.8-.4-2.6.2-.8.5-1.3 1.4-1.7 2.3-.4.9-.5 2-.6 3.1-.1 2.1.4 4.4 1.5 6.3 1.1 2 2.7 3.6 4 5.4 1.4 1.7 2.6 3.5 3.1 5.5s.5 4-.4 5.7c-.4.8-1.1 1.5-1.8 1.9-.7.4-1.6.6-2.4.6-.8 0-1.5-.3-2.1-.7-.6-.4-1-1-1.1-1.6-.3-1.2.1-2.3.6-3 .5-.7 1.2-1 1.6-1.1h.5-.5c-.4.1-1 .4-1.5 1.1-.5.7-.8 1.7-.5 2.9.1.6.5 1.1 1 1.5.5.4 1.2.6 1.9.6 1.5 0 3.1-.8 3.8-2.4.8-1.5.9-3.5.3-5.4-.5-1.9-1.7-3.6-3.1-5.3-1.3-1.7-2.9-3.4-4.1-5.4-1.2-2-1.7-4.4-1.6-6.6.1-1.1.3-2.2.6-3.2.4-1 1-1.9 1.9-2.5.4-.3 1-.5 1.5-.5s1 .1 1.5.3c.9.4 1.6 1.2 2.1 1.9 1 1.5 1.3 3.4.5 4.9-.3.7-.9 1.3-1.5 1.6-.7.3-1.4.3-2 .1-.6-.2-1.1-.6-1.3-1.1-.3-.5-.3-1-.2-1.4.2-.9.8-1.4 1.2-1.5.7-.4.9-.3.9-.3z"/><circle class="st2" cx="442.4" cy="111.8" r="1.4"/><path class="st5" d="M376 226.2s0-.2-.2-.6c-.2-.4-.7-.9-1.5-1-.4-.1-.9 0-1.3.2s-.8.7-1 1.2c-.2.5-.2 1.2.1 1.8.3.6.8 1.1 1.5 1.4 1.3.7 3.1.4 4.5-.6.7-.5 1.4-1.1 1.8-1.9.4-.8.4-1.8-.2-2.6-.5-.8-1.4-1.3-2.3-1.7-.9-.4-2-.5-3.1-.6-2.1-.1-4.4.4-6.3 1.5-2 1.1-3.6 2.7-5.4 4-1.7 1.4-3.5 2.6-5.5 3.1s-4 .5-5.7-.4c-.8-.4-1.5-1.1-1.9-1.8-.4-.7-.6-1.6-.6-2.4 0-.8.3-1.5.7-2.1.4-.6 1-1 1.6-1.1 1.2-.3 2.3.1 3 .6.7.5 1 1.2 1.1 1.6-.1-.4-.4-1-1.1-1.5-.7-.5-1.7-.8-2.9-.5-.6.1-1.1.5-1.5 1-.4.5-.6 1.2-.6 1.9 0 1.5.8 3.1 2.4 3.8 1.5.8 3.5.9 5.4.3 1.9-.5 3.6-1.7 5.3-3.1 1.7-1.3 3.4-2.9 5.4-4.1 2-1.2 4.4-1.7 6.6-1.6 1.1.1 2.2.3 3.2.6 1 .4 1.9 1 2.5 1.9.3.4.5 1 .5 1.5s-.1 1-.3 1.5c-.4.9-1.2 1.6-1.9 2.1-1.5 1-3.4 1.3-4.9.5-.7-.3-1.3-.9-1.6-1.5-.3-.7-.3-1.4-.1-2 .2-.6.6-1.1 1.1-1.3.5-.3 1-.3 1.4-.2.9.2 1.4.8 1.5 1.2.3.6.3.9.3.9z"/><path class="st2" d="M414.5 225.8s.1.2-.1.7c-.2.4-.7 1-1.5 1.2-.4.1-1 .1-1.4-.2-.5-.3-.9-.7-1.1-1.3-.2-.6-.3-1.3.1-2 .3-.7.9-1.2 1.6-1.5 1.4-.7 3.3-.5 4.9.5.8.5 1.5 1.2 1.9 2.1.2.4.3 1 .3 1.5s-.2 1-.5 1.5c-.6.9-1.5 1.5-2.5 1.9-1 .4-2.1.6-3.2.6-2.2.1-4.5-.4-6.6-1.6-2-1.2-3.7-2.7-5.4-4.1-1.7-1.4-3.4-2.5-5.3-3.1-1.9-.5-3.9-.5-5.4.3-1.6.8-2.4 2.4-2.4 3.8 0 .7.2 1.4.6 1.9.4.5.9.9 1.5 1 1.1.3 2.2-.1 2.9-.5.7-.4 1-1.1 1.1-1.5.1-.2.1-.4 0-.5v-.2.7c-.1.4-.4 1.1-1.1 1.6-.7.5-1.8.9-3 .6-.6-.1-1.2-.5-1.6-1.1-.4-.6-.7-1.3-.7-2.1s.2-1.6.6-2.4c.4-.8 1.1-1.4 1.9-1.8 1.6-.9 3.7-1 5.7-.4s3.8 1.8 5.5 3.1c1.7 1.4 3.4 2.9 5.4 4 2 1.1 4.2 1.6 6.3 1.5 1.1-.1 2.1-.2 3.1-.6.9-.4 1.8-.9 2.3-1.7.5-.8.6-1.8.2-2.6-.4-.8-1-1.5-1.8-1.9-1.4-.9-3.2-1.2-4.5-.6-.7.3-1.2.8-1.5 1.4-.3.6-.3 1.2-.1 1.8.2.5.6 1 1 1.2.4.2.9.3 1.3.2.8-.2 1.3-.7 1.5-1v-.4z"/><circle class="st5" cx="384.3" cy="225.6" r="1.4"/><path class="st2" d="M427.9 224.2c-.8 0-1.4.6-1.4 1.4s.6 1.4 1.4 1.4c.8 0 1.4-.6 1.4-1.4s-.6-1.4-1.4-1.4z"/><path class="st5" d="M342.8 224.2c-.8 0-1.4.6-1.4 1.4s.6 1.4 1.4 1.4c.8 0 1.4-.6 1.4-1.4s-.7-1.4-1.4-1.4z"/><path class="st2" d="M376 70.6s0-.2-.2-.6c-.2-.4-.7-.9-1.5-1-.4-.1-.9 0-1.3.2s-.8.7-1 1.2c-.2.5-.2 1.2.1 1.8.3.6.8 1.1 1.5 1.4 1.3.7 3.1.4 4.5-.6.7-.5 1.4-1.1 1.8-1.9.4-.8.4-1.8-.2-2.6-.5-.8-1.4-1.3-2.3-1.7-.9-.4-2-.5-3.1-.6-2.1-.1-4.4.4-6.3 1.5-2 1.1-3.6 2.7-5.4 4-1.7 1.4-3.5 2.6-5.5 3.1s-4 .5-5.7-.4c-.8-.4-1.5-1.1-1.9-1.8-.4-.7-.6-1.6-.6-2.4 0-.8.3-1.5.7-2.1.4-.6 1-1 1.6-1.1 1.2-.3 2.3.1 3 .6.7.5 1 1.2 1.1 1.6-.1-.4-.4-1-1.1-1.5-.7-.5-1.7-.8-2.9-.5-.6.1-1.1.5-1.5 1-.4.5-.6 1.2-.6 1.9 0 1.5.8 3.1 2.4 3.8 1.5.8 3.5.9 5.4.3 1.9-.5 3.6-1.7 5.3-3.1 1.7-1.3 3.4-2.9 5.4-4.1 2-1.2 4.4-1.7 6.6-1.6 1.1.1 2.2.3 3.2.6 1 .4 1.9 1 2.5 1.9.3.4.5 1 .5 1.5s-.1 1-.3 1.5c-.4.9-1.2 1.6-1.9 2.1-1.5 1-3.4 1.3-4.9.5-.7-.3-1.3-.9-1.6-1.5-.3-.7-.3-1.4-.1-2 .2-.6.6-1.1 1.1-1.3.5-.3 1-.3 1.4-.2.9.2 1.4.8 1.5 1.2.3.6.3.9.3.9zm38.5-.4s.1.2-.1.7c-.2.4-.7 1-1.5 1.2-.4.1-1 .1-1.4-.2-.5-.3-.9-.7-1.1-1.3-.2-.6-.3-1.3.1-2 .3-.7.9-1.2 1.6-1.5 1.4-.7 3.3-.5 4.9.5.8.5 1.5 1.2 1.9 2.1.2.4.3 1 .3 1.5s-.2 1-.5 1.5c-.6.9-1.5 1.5-2.5 1.9-1 .4-2.1.6-3.2.6-2.2.1-4.5-.4-6.6-1.6-2-1.2-3.7-2.7-5.4-4.1-1.7-1.4-3.4-2.5-5.3-3.1-1.9-.5-3.9-.5-5.4.3-1.6.8-2.4 2.4-2.4 3.8 0 .7.2 1.4.6 1.9.4.5.9.9 1.5 1 1.1.3 2.2-.1 2.9-.5.7-.4 1-1.1 1.1-1.5.1-.2.1-.4 0-.5v-.2.7c-.1.4-.4 1.1-1.1 1.6-.7.5-1.8.9-3 .6-.6-.1-1.2-.5-1.6-1.1-.4-.6-.7-1.3-.7-2.1s.2-1.6.6-2.4c.4-.8 1.1-1.4 1.9-1.8 1.6-.9 3.7-1 5.7-.4s3.8 1.8 5.5 3.1c1.7 1.4 3.4 2.9 5.4 4 2 1.1 4.2 1.6 6.3 1.5 1.1-.1 2.1-.2 3.1-.6.9-.4 1.8-.9 2.3-1.7.5-.8.6-1.8.2-2.6-.4-.8-1-1.5-1.8-1.9-1.4-.9-3.2-1.2-4.5-.6-.7.3-1.2.8-1.5 1.4-.3.6-.3 1.2-.1 1.8.2.5.6 1 1 1.2.4.2.9.3 1.3.2.8-.2 1.3-.7 1.5-1v-.4z"/><circle class="st2" cx="384.3" cy="70" r="1.4"/><path class="st2" d="M427.9 68.6c-.8 0-1.4.6-1.4 1.4 0 .8.6 1.4 1.4 1.4.8 0 1.4-.6 1.4-1.4 0-.8-.6-1.4-1.4-1.4zm-85.1 0c-.8 0-1.4.6-1.4 1.4 0 .8.6 1.4 1.4 1.4.8 0 1.4-.6 1.4-1.4 0-.8-.7-1.4-1.4-1.4zm90.7 148.3v-10.1c0-6.5 0-16.1-.1-28.2 0-24.2-.1-58.4-.1-98.9l.2.2h-96.3l.2-.2v137.2l-.2-.2c29.3 0 53.3.1 70.1.1h24.5c1.1 0 1.7.1 1.7.1h-26.2c-16.8 0-40.9.1-70.2.1h-.2V79.4h96.7v.2c0 40.5-.1 74.9-.1 99 0 12.1 0 21.6-.1 28.1v9.3c.1.6.1.9.1.9zm19.6-156.5c0 .1-1.5.5-3.5 2-2.1 1.4-4.6 3.8-7.1 6.7-2.5 2.9-4.6 5.7-6.2 7.6-.8 1-1.5 1.7-1.9 2.3-.5.5-.8.8-.8.7 0 0 .2-.3.7-.9.4-.5 1.1-1.3 1.8-2.3 1.5-2 3.6-4.8 6.1-7.7 2.5-2.9 5.1-5.3 7.3-6.6.5-.4 1-.6 1.5-.8l.6-.3c.2-.1.4-.1.6-.2.5-.4.8-.5.9-.5zm.4 176.4s-.3-.3-.7-.8c-.5-.6-1.2-1.4-1.9-2.3-1.6-1.9-4-4.5-6.7-7.3-2.7-2.7-5.4-5.1-7.3-6.7-.9-.8-1.7-1.4-2.3-1.9-.5-.5-.8-.7-.8-.7l.9.6c.6.4 1.4 1 2.4 1.8 2 1.6 4.7 3.9 7.4 6.6 2.8 2.7 5.1 5.4 6.6 7.4.8 1 1.4 1.8 1.8 2.4.4.5.6.9.6.9z"/><path class="st5" d="M317.3 236.5l.5-1c.4-.6 1-1.4 1.7-2.5 1.5-2 3.7-4.7 6.5-7.4s5.5-4.9 7.6-6.3c1-.7 1.9-1.3 2.5-1.6.6-.4 1-.5 1-.5s-.3.3-.9.7c-.6.4-1.4 1-2.4 1.7-2 1.5-4.7 3.7-7.5 6.4-2.7 2.7-5 5.3-6.6 7.3-.8 1-1.4 1.8-1.8 2.4-.4.6-.6.9-.6.8z"/><path class="st2" d="M317.6 60.4s.3.2.8.7c.6.5 1.3 1.2 2.1 2 1.8 1.7 4.3 4.1 7.1 6.6 2.8 2.6 5.3 4.9 7 6.7.9.9 1.6 1.6 2 2.2.5.5.7.8.7.8s-.3-.2-.8-.7c-.6-.5-1.3-1.2-2.1-2-1.8-1.7-4.3-4.1-7.1-6.6-2.8-2.6-5.3-4.9-7-6.7-.9-.9-1.6-1.6-2-2.2-.5-.4-.7-.7-.7-.8zm130.1 4.1c.1 0 .2 37.2.2 83.2 0 45.9-.1 83.2-.2 83.2s-.2-37.2-.2-83.2.1-83.2.2-83.2z"/><path class="st2" d="M445.8 64.1c0 .1-27.8.2-62.1.2s-62.1-.1-62.1-.2 27.8-.2 62.1-.2 62.1.1 62.1.2zM322 228.1c-.1 0-.2-36.6-.2-81.8 0-45.2.1-81.8.2-81.8s.2 36.6.2 81.8c0 45.2-.1 81.8-.2 81.8zm125.7 3.1c0 .1-27.5.2-61.3.2-33.9 0-61.3-.1-61.3-.2s27.5-.2 61.3-.2c33.9 0 61.3.1 61.3.2zm-10.4-11.3v-10.5c0-6.8 0-16.9-.1-29.5 0-25.3-.1-61.2-.2-103.8l.2.2c-31.4-.1-66.8-.2-104.2-.4l.2-.2v.2c.2 54 .3 104 .4 144.4l-.2-.2c31.5 0 57.4-.1 75.5-.1h26.4c1.3-.1 2-.1 2-.1h-7.4c-4.8 0-11.9.1-20.9.1-18.1.1-44.1.2-75.6.3h-.2v-.2c-.1-40.4-.3-90.3-.5-144.4v-.4h.2c37.4.1 72.8.3 104.2.4h.2v144.2z"/><path class="st2" d="M337.1 84.1c0 .1-.9.2-2.1.2-1.2 0-2.1-.1-2.1-.2s.9-.2 2.1-.2c1.2-.1 2.1 0 2.1.2z" opacity=".2"/><path class="st5" d="M341.6 220.1c-.1 0-.3-.7-.2-1.6 0-.9.1-1.6.2-1.6s.3.7.2 1.6c0 .9-.1 1.6-.2 1.6zm-3.4.1c-.1 0-.3-.7-.2-1.6 0-.9.1-1.6.2-1.6s.3.7.2 1.6c0 .9-.1 1.6-.2 1.6zm7.2-.2c-.1 0-.2-.7-.3-1.5 0-.9 0-1.6.2-1.6.1 0 .2.7.3 1.5 0 .9-.1 1.6-.2 1.6zm3.5 0c-.1 0-.2-.7-.3-1.5 0-.9 0-1.6.2-1.6.1 0 .2.7.3 1.5 0 .9-.1 1.6-.2 1.6zm3.5 0c-.1 0-.2-.7-.3-1.5 0-.9 0-1.6.2-1.6.1 0 .2.7.3 1.5 0 .9 0 1.6-.2 1.6zm3.5 0c-.1 0-.2-.7-.3-1.5 0-.9 0-1.6.2-1.6.1 0 .2.7.3 1.5 0 .9 0 1.6-.2 1.6zm3.6 0c-.1 0-.2-.7-.3-1.5 0-.9 0-1.6.2-1.6.1 0 .2.7.3 1.5 0 .9-.1 1.6-.2 1.6zm3.5 0c-.1 0-.2-.7-.3-1.5 0-.9 0-1.6.2-1.6.1 0 .2.7.3 1.5 0 .9-.1 1.6-.2 1.6zm3.5 0c-.1 0-.2-.7-.3-1.5 0-.9 0-1.6.2-1.6.1 0 .2.7.3 1.5 0 .9-.1 1.6-.2 1.6zm3.5 0c-.1 0-.2-.7-.3-1.5 0-.9 0-1.6.2-1.6.1 0 .2.7.3 1.5 0 .9-.1 1.6-.2 1.6zm3.5 0c-.1 0-.2-.7-.3-1.5 0-.9 0-1.6.2-1.6.1 0 .2.7.3 1.5 0 .9-.1 1.6-.2 1.6zm3.5 0c-.1 0-.2-.7-.3-1.5 0-.9 0-1.6.2-1.6.1 0 .2.7.3 1.5 0 .9-.1 1.6-.2 1.6zm3.5 0c-.1 0-.2-.7-.3-1.5 0-.9 0-1.6.2-1.6.1 0 .2.7.3 1.5 0 .9 0 1.6-.2 1.6zm3.5 0c-.1 0-.2-.7-.3-1.5 0-.9 0-1.6.2-1.6.1 0 .2.7.3 1.5 0 .9 0 1.6-.2 1.6zm3.6 0c-.1 0-.2-.7-.3-1.5 0-.9 0-1.6.2-1.6.1 0 .2.7.3 1.5 0 .9-.1 1.6-.2 1.6zm3.5 0c-.1 0-.2-.7-.3-1.5 0-.9 0-1.6.2-1.6.1 0 .2.7.3 1.5 0 .9-.1 1.6-.2 1.6zm3.5 0c-.1 0-.2-.7-.3-1.5 0-.9 0-1.6.2-1.6.1 0 .2.7.3 1.5 0 .9-.1 1.6-.2 1.6z"/><path class="st2" d="M398.1 220c-.1 0-.2-.7-.3-1.5 0-.9 0-1.6.2-1.6.1 0 .2.7.3 1.5 0 .9-.1 1.6-.2 1.6zm3.5 0c-.1 0-.2-.7-.3-1.5 0-.9 0-1.6.2-1.6.1 0 .2.7.3 1.5 0 .9-.1 1.6-.2 1.6zm3.5 0c-.1 0-.2-.7-.3-1.5 0-.9 0-1.6.2-1.6.1 0 .2.7.3 1.5 0 .9-.1 1.6-.2 1.6zm3.5 0c-.1 0-.2-.7-.3-1.5 0-.9 0-1.6.2-1.6.1 0 .2.7.3 1.5 0 .9-.1 1.6-.2 1.6zm3.5 0c-.1 0-.2-.7-.3-1.5 0-.9 0-1.6.2-1.6.1 0 .2.7.3 1.5 0 .9 0 1.6-.2 1.6zm3.5 0c-.1 0-.2-.7-.3-1.5 0-.9 0-1.6.2-1.6.1 0 .2.7.3 1.5 0 .9 0 1.6-.2 1.6zm3.6 0c-.1 0-.2-.7-.3-1.5 0-.9 0-1.6.2-1.6.1 0 .2.7.3 1.5 0 .9-.1 1.6-.2 1.6zm3.5 0c-.1 0-.2-.7-.3-1.5 0-.9 0-1.6.2-1.6.1 0 .2.7.3 1.5 0 .9-.1 1.6-.2 1.6zm3.5 0c-.1 0-.2-.7-.3-1.5 0-.9 0-1.6.2-1.6.1 0 .2.7.3 1.5 0 .9-.1 1.6-.2 1.6zm3.5 0c-.1 0-.2-.7-.3-1.5 0-.9 0-1.6.2-1.6.1 0 .2.7.3 1.5 0 .9-.1 1.6-.2 1.6zm3.5 0c-.1 0-.2-.7-.3-1.5 0-.9 0-1.6.2-1.6.1 0 .2.7.3 1.5 0 .9-.1 1.6-.2 1.6zm4-4.1c0 .1-.8.2-1.9.2-1 0-1.9-.1-1.9-.2s.8-.2 1.9-.2c1 0 1.9.1 1.9.2zm0-3.9c0 .1-.8.2-1.9.2-1 0-1.9-.1-1.9-.2s.8-.2 1.9-.2c1 0 1.9.1 1.9.2zm0-3.9c0 .1-.8.2-1.9.2-1 0-1.9-.1-1.9-.2s.8-.2 1.9-.2c1 0 1.9.1 1.9.2zm0-3.9c0 .1-.8.2-1.9.2-1 0-1.9-.1-1.9-.2s.8-.2 1.9-.2c1 0 1.9.1 1.9.2zm0-3.9c0 .1-.8.2-1.9.2-1 0-1.9-.1-1.9-.2s.8-.2 1.9-.2c1 0 1.9.1 1.9.2zm0-3.9c0 .1-.8.2-1.9.2-1 0-1.9-.1-1.9-.2s.8-.2 1.9-.2c1 0 1.9.1 1.9.2zm0-3.9c0 .1-.8.2-1.9.2-1 0-1.9-.1-1.9-.2s.8-.2 1.9-.2c1 0 1.9 0 1.9.2zm0-3.9c0 .1-.8.2-1.9.2-1 0-1.9-.1-1.9-.2s.8-.2 1.9-.2c1-.1 1.9 0 1.9.2zm0-3.9c0 .1-.8.2-1.9.2-1 0-1.9-.1-1.9-.2s.8-.2 1.9-.2c1-.1 1.9 0 1.9.2zm0-4c0 .1-.8.2-1.9.2-1 0-1.9-.1-1.9-.2s.8-.2 1.9-.2c1 0 1.9.1 1.9.2zm0-3.9c0 .1-.8.2-1.9.2-1 0-1.9-.1-1.9-.2s.8-.2 1.9-.2c1 0 1.9.1 1.9.2zm0-3.9c0 .1-.8.2-1.9.2-1 0-1.9-.1-1.9-.2s.8-.2 1.9-.2c1 0 1.9.1 1.9.2zm0-3.9c0 .1-.8.2-1.9.2-1 0-1.9-.1-1.9-.2s.8-.2 1.9-.2c1 0 1.9.1 1.9.2zm0-3.9c0 .1-.8.2-1.9.2-1 0-1.9-.1-1.9-.2s.8-.2 1.9-.2c1 0 1.9.1 1.9.2zm0-3.9c0 .1-.8.2-1.9.2-1 0-1.9-.1-1.9-.2s.8-.2 1.9-.2c1 0 1.9.1 1.9.2zm0-3.9c0 .1-.8.2-1.9.2-1 0-1.9-.1-1.9-.2s.8-.2 1.9-.2c1 0 1.9.1 1.9.2zm0-3.9c0 .1-.8.2-1.9.2-1 0-1.9-.1-1.9-.2s.8-.2 1.9-.2c1 0 1.9.1 1.9.2zm0-3.9c0 .1-.8.2-1.9.2-1 0-1.9-.1-1.9-.2s.8-.2 1.9-.2c1-.1 1.9 0 1.9.2zm0-3.9c0 .1-.8.2-1.9.2-1 0-1.9-.1-1.9-.2s.8-.2 1.9-.2c1-.1 1.9 0 1.9.2zm0-3.9c0 .1-.8.2-1.9.2-1 0-1.9-.1-1.9-.2s.8-.2 1.9-.2c1-.1 1.9 0 1.9.2zm0-4c0 .1-.8.2-1.9.2-1 0-1.9-.1-1.9-.2s.8-.2 1.9-.2c1 0 1.9.1 1.9.2zm0-3.9c0 .1-.8.2-1.9.2-1 0-1.9-.1-1.9-.2s.8-.2 1.9-.2c1 0 1.9.1 1.9.2zm0-3.9c0 .1-.8.2-1.9.2-1 0-1.9-.1-1.9-.2s.8-.2 1.9-.2c1 0 1.9.1 1.9.2zm0-3.9c0 .1-.8.2-1.9.2-1 0-1.9-.1-1.9-.2s.8-.2 1.9-.2c1 0 1.9.1 1.9.2zm0-3.9c0 .1-.8.2-1.9.2-1 0-1.9-.1-1.9-.2s.8-.2 1.9-.2c1 0 1.9.1 1.9.2zm0-3.9c0 .1-.8.2-1.9.2-1 0-1.9-.1-1.9-.2s.8-.2 1.9-.2c1 0 1.9.1 1.9.2zm0-3.9c0 .1-.8.2-1.9.2-1 0-1.9-.1-1.9-.2s.8-.2 1.9-.2c1 0 1.9.1 1.9.2zm0-3.9c0 .1-.8.2-1.9.2-1 0-1.9-.1-1.9-.2s.8-.2 1.9-.2c1 0 1.9.1 1.9.2zm0-3.9c0 .1-.8.2-1.9.2-1 0-1.9-.1-1.9-.2s.8-.2 1.9-.2c1-.1 1.9 0 1.9.2zm0-3.9c0 .1-.8.2-1.9.2-1 0-1.9-.1-1.9-.2s.8-.2 1.9-.2c1-.1 1.9 0 1.9.2zm0-3.9c0 .1-.8.2-1.9.2-1 0-1.9-.1-1.9-.2s.8-.2 1.9-.2c1-.1 1.9 0 1.9.2zm0-4c0 .1-.8.2-1.9.2-1 0-1.9-.1-1.9-.2s.8-.2 1.9-.2c1 0 1.9.1 1.9.2zm0-3.9c0 .1-.8.2-1.9.2-1 0-1.9-.1-1.9-.2s.8-.2 1.9-.2c1 0 1.9.1 1.9.2zm0-3.9c0 .1-.8.2-1.9.2-1 0-1.9-.1-1.9-.2s.8-.2 1.9-.2c1 0 1.9.1 1.9.2z"/><g class="st3"><path class="st5" d="M437.2 83c0 .1-.8.2-1.9.2-1 0-1.9-.1-1.9-.2s.8-.2 1.9-.2c1 0 1.9.1 1.9.2z"/></g><path class="st2" d="M437.2 79.1c0 .1-.8.2-1.9.2-1 0-1.9-.1-1.9-.2s.8-.2 1.9-.2c1 0 1.9.1 1.9.2zm-4.3.6c-.1 0-.2-.8-.2-1.8s.1-1.8.2-1.8.2.8.2 1.8c0 .9-.1 1.8-.2 1.8zm-3.7 0c-.1 0-.2-.8-.2-1.8s.1-1.8.2-1.8.2.8.2 1.8c0 .9-.1 1.8-.2 1.8zm-3.7 0c-.1 0-.2-.8-.2-1.8s.1-1.8.2-1.8.2.8.2 1.8c0 .9-.1 1.8-.2 1.8zm-3.7 0c-.1 0-.2-.8-.2-1.8s.1-1.8.2-1.8.2.8.2 1.8c0 .9-.1 1.8-.2 1.8z"/><ellipse class="st2" cx="418" cy="77.8" rx=".2" ry="1.8"/><path class="st2" d="M414.3 79.7c-.1 0-.2-.8-.2-1.8s.1-1.8.2-1.8.2.8.2 1.8c0 .9-.1 1.8-.2 1.8zm-3.7 0c-.1 0-.2-.8-.2-1.8s.1-1.8.2-1.8.2.8.2 1.8c0 .9-.1 1.8-.2 1.8z"/><g class="st3"><ellipse class="st5" cx="406.9" cy="77.8" rx=".2" ry="1.8"/></g><ellipse class="st2" cx="403.1" cy="77.8" rx=".2" ry="1.8"/><path class="st2" d="M399.4 79.7c-.1 0-.2-.8-.2-1.8s.1-1.8.2-1.8.2.8.2 1.8c0 .9-.1 1.8-.2 1.8z"/><ellipse class="st2" cx="395.7" cy="77.8" rx=".2" ry="1.8"/><ellipse class="st2" cx="392" cy="77.8" rx=".2" ry="1.8"/><g class="st3"><path class="st5" d="M388.2 79.7c-.1 0-.2-.8-.2-1.8s.1-1.8.2-1.8.2.8.2 1.8c.1.9 0 1.8-.2 1.8z"/></g><path class="st2" d="M384.5 79.7c-.1 0-.2-.8-.2-1.8s.1-1.8.2-1.8.2.8.2 1.8c0 .9-.1 1.8-.2 1.8z"/><ellipse class="st2" cx="380.8" cy="77.8" rx=".2" ry="1.8"/><g class="st3"><path class="st5" d="M377.1 79.7c-.1 0-.2-.8-.2-1.8s.1-1.8.2-1.8.2.8.2 1.8c0 .9-.1 1.8-.2 1.8z"/></g><g class="st3"><path class="st5" d="M373.3 79.7c-.1 0-.2-.8-.2-1.8s.1-1.8.2-1.8.2.8.2 1.8c.1.9 0 1.8-.2 1.8z"/></g><path class="st2" d="M369.6 79.7c-.1 0-.2-.8-.2-1.8s.1-1.8.2-1.8.2.8.2 1.8c0 .9-.1 1.8-.2 1.8z"/><g class="st3"><path class="st5" d="M365.9 79.7c-.1 0-.2-.8-.2-1.8s.1-1.8.2-1.8.2.8.2 1.8c0 .9-.1 1.8-.2 1.8z"/></g><ellipse class="st2" cx="362.2" cy="77.8" rx=".2" ry="1.8"/><g class="st3"><path class="st5" d="M358.4 79.7c-.1 0-.2-.8-.2-1.8s.1-1.8.2-1.8.2.8.2 1.8c.1.9 0 1.8-.2 1.8z"/></g><ellipse class="st2" cx="354.7" cy="77.8" rx=".2" ry="1.8"/><g class="st3"><ellipse class="st5" cx="351" cy="77.8" rx=".2" ry="1.8"/></g><path class="st2" d="M347.3 79.7c-.1 0-.2-.8-.2-1.8s.1-1.8.2-1.8.2.8.2 1.8c0 .9-.1 1.8-.2 1.8zm-3.8 0c-.1 0-.2-.8-.2-1.8s.1-1.8.2-1.8.2.8.2 1.8c.1.9 0 1.8-.2 1.8z"/><g class="st3"><path class="st5" d="M339.8 79.7c-.1 0-.2-.8-.2-1.8s.1-1.8.2-1.8.2.8.2 1.8c0 .9-.1 1.8-.2 1.8z"/></g><path class="st2" d="M337.1 80.9c0 .1-.9.2-2.1.2-1.2 0-2.1-.1-2.1-.2s.9-.2 2.1-.2c1.2 0 2.1.1 2.1.2z"/><g class="st3"><path class="st5" d="M337.1 87.2c0 .1-.9.2-2.1.2-1.2 0-2.1-.1-2.1-.2s.9-.2 2.1-.2c1.2 0 2.1.1 2.1.2z"/></g><g class="st3"><path class="st5" d="M337.1 90.3c0 .1-.9.2-2.1.2-1.2 0-2.1-.1-2.1-.2s.9-.2 2.1-.2c1.2 0 2.1.1 2.1.2z"/></g><path class="st2" d="M337.1 93.4c0 .1-.9.2-2.1.2-1.2 0-2.1-.1-2.1-.2s.9-.2 2.1-.2c1.2 0 2.1.1 2.1.2zm0 3.1c0 .1-.9.2-2.1.2-1.2 0-2.1-.1-2.1-.2s.9-.2 2.1-.2c1.2 0 2.1.1 2.1.2zm0 3.1c0 .1-.9.2-2.1.2-1.2 0-2.1-.1-2.1-.2s.9-.2 2.1-.2c1.2 0 2.1.1 2.1.2z"/><g class="st3"><path class="st5" d="M337.1 102.7c0 .1-.9.2-2.1.2-1.2 0-2.1-.1-2.1-.2s.9-.2 2.1-.2c1.2 0 2.1.1 2.1.2z"/></g><path class="st2" d="M337.1 105.9c0 .1-.9.2-2.1.2-1.2 0-2.1-.1-2.1-.2s.9-.2 2.1-.2c1.2-.1 2.1 0 2.1.2zm0 3.1c0 .1-.9.2-2.1.2-1.2 0-2.1-.1-2.1-.2s.9-.2 2.1-.2c1.2 0 2.1 0 2.1.2zm0 3.1c0 .1-.9.2-2.1.2-1.2 0-2.1-.1-2.1-.2s.9-.2 2.1-.2c1.2 0 2.1.1 2.1.2zm0 3.1c0 .1-.9.2-2.1.2-1.2 0-2.1-.1-2.1-.2s.9-.2 2.1-.2c1.2 0 2.1.1 2.1.2z"/><path class="st5" d="M337.1 118.3c0 .1-.9.2-2.1.2-1.2 0-2.1-.1-2.1-.2s.9-.2 2.1-.2c1.2 0 2.1.1 2.1.2zm0 3.1c0 .1-.9.2-2.1.2-1.2 0-2.1-.1-2.1-.2s.9-.2 2.1-.2c1.2 0 2.1.1 2.1.2z"/><path class="st2" d="M337.1 124.5c0 .1-.9.2-2.1.2-1.2 0-2.1-.1-2.1-.2s.9-.2 2.1-.2c1.2 0 2.1.1 2.1.2zm0 3.2c0 .1-.9.2-2.1.2-1.2 0-2.1-.1-2.1-.2s.9-.2 2.1-.2c1.2-.1 2.1 0 2.1.2zm0 3.1c0 .1-.9.2-2.1.2-1.2 0-2.1-.1-2.1-.2s.9-.2 2.1-.2c1.2-.1 2.1 0 2.1.2zm0 3.1c0 .1-.9.2-2.1.2-1.2 0-2.1-.1-2.1-.2s.9-.2 2.1-.2c1.2 0 2.1.1 2.1.2zm0 3.1c0 .1-.9.2-2.1.2-1.2 0-2.1-.1-2.1-.2s.9-.2 2.1-.2c1.2 0 2.1.1 2.1.2zm0 3.1c0 .1-.9.2-2.1.2-1.2 0-2.1-.1-2.1-.2s.9-.2 2.1-.2c1.2 0 2.1.1 2.1.2z"/><path class="st5" d="M337.1 143.2c0 .1-.9.2-2.1.2-1.2 0-2.1-.1-2.1-.2s.9-.2 2.1-.2c1.2 0 2.1.1 2.1.2zm0 3.1c0 .1-.9.2-2.1.2-1.2 0-2.1-.1-2.1-.2s.9-.2 2.1-.2c1.2 0 2.1.1 2.1.2zm0 3.2c0 .1-.9.2-2.1.2-1.2 0-2.1-.1-2.1-.2s.9-.2 2.1-.2c1.2-.1 2.1 0 2.1.2z"/><path class="st2" d="M337.1 152.6c0 .1-.9.2-2.1.2-1.2 0-2.1-.1-2.1-.2s.9-.2 2.1-.2c1.2-.1 2.1 0 2.1.2z"/><path class="st5" d="M337.1 155.7c0 .1-.9.2-2.1.2-1.2 0-2.1-.1-2.1-.2s.9-.2 2.1-.2c1.2 0 2.1.1 2.1.2zm0 3.1c0 .1-.9.2-2.1.2-1.2 0-2.1-.1-2.1-.2s.9-.2 2.1-.2c1.2 0 2.1.1 2.1.2zm0 3.1c0 .1-.9.2-2.1.2-1.2 0-2.1-.1-2.1-.2s.9-.2 2.1-.2c1.2 0 2.1.1 2.1.2z"/><path class="st2" d="M337.1 165c0 .1-.9.2-2.1.2-1.2 0-2.1-.1-2.1-.2s.9-.2 2.1-.2c1.2 0 2.1.1 2.1.2zm0 3.1c0 .1-.9.2-2.1.2-1.2 0-2.1-.1-2.1-.2s.9-.2 2.1-.2c1.2 0 2.1.1 2.1.2zm0 3.1c0 .1-.9.2-2.1.2-1.2 0-2.1-.1-2.1-.2s.9-.2 2.1-.2c1.2 0 2.1.1 2.1.2zm0 3.2c0 .1-.9.2-2.1.2-1.2 0-2.1-.1-2.1-.2s.9-.2 2.1-.2c1.2-.1 2.1 0 2.1.2zm0 3.1c0 .1-.9.2-2.1.2-1.2 0-2.1-.1-2.1-.2s.9-.2 2.1-.2c1.2 0 2.1.1 2.1.2zm0 3.1c0 .1-.9.2-2.1.2-1.2 0-2.1-.1-2.1-.2s.9-.2 2.1-.2c1.2 0 2.1.1 2.1.2zm0 3.1c0 .1-.9.2-2.1.2-1.2 0-2.1-.1-2.1-.2s.9-.2 2.1-.2c1.2 0 2.1.1 2.1.2zm0 3.1c0 .1-.9.2-2.1.2-1.2 0-2.1-.1-2.1-.2s.9-.2 2.1-.2c1.2 0 2.1.1 2.1.2zm0 3.1c0 .1-.9.2-2.1.2-1.2 0-2.1-.1-2.1-.2s.9-.2 2.1-.2c1.2 0 2.1.1 2.1.2zm0 3.1c0 .1-.9.2-2.1.2-1.2 0-2.1-.1-2.1-.2s.9-.2 2.1-.2c1.2 0 2.1.1 2.1.2zm0 3.2c0 .1-.9.2-2.1.2-1.2 0-2.1-.1-2.1-.2s.9-.2 2.1-.2c1.2-.1 2.1 0 2.1.2z"/><path class="st5" d="M337.1 199.3c0 .1-.9.2-2.1.2-1.2 0-2.1-.1-2.1-.2s.9-.2 2.1-.2c1.2 0 2.1.1 2.1.2zm0 3.1c0 .1-.9.2-2.1.2-1.2 0-2.1-.1-2.1-.2s.9-.2 2.1-.2c1.2 0 2.1.1 2.1.2zm0 3.1c0 .1-.9.2-2.1.2-1.2 0-2.1-.1-2.1-.2s.9-.2 2.1-.2c1.2 0 2.1.1 2.1.2zm0 3.1c0 .1-.9.2-2.1.2-1.2 0-2.1-.1-2.1-.2s.9-.2 2.1-.2c1.2 0 2.1.1 2.1.2zm0 3.1c0 .1-.9.2-2.1.2-1.2 0-2.1-.1-2.1-.2s.9-.2 2.1-.2c1.2 0 2.1.1 2.1.2zm0 3.1c0 .1-.9.2-2.1.2-1.2 0-2.1-.1-2.1-.2s.9-.2 2.1-.2c1.2 0 2.1.1 2.1.2z"/><path opacity=".1" fill="#fff" d="M337.3 79.7H433V217h-95.7z"/><path d="M337.1 95.1c16.2 19.3 35.4 39.6 50.9 59.5l-50.9 13.6V95.1z" opacity=".1" fill="#f5f5f5"/><path class="st1" d="M337.2 165.8l.1 51.1 96.2-.7-.4-71.1c-32 6.5-64 13.4-95.9 20.7"/></g><path class="st11" d="M487.5 421.6c0 .1-102.8.3-229.6.3s-229.6-.1-229.6-.3c0-.1 102.8-.3 229.6-.3s229.6.2 229.6.3z" id="Floor"/><g id="Cushions"><path class="st12" d="M327.4 428.5c-11.2-27.3-1.8-63.3 14.7-87.8 3.8-5.6 8.5-11 14.8-13.5 6.3-2.5 13.3-1.7 20-.9l50.4 6c6.5.8 13.7 1.9 18 6.8 3.5 4 4.4 9.6 4.7 14.9 2.6 38.3 3.5 76.2-27.6 98.7l-95-24.2z"/><path class="st13" d="M327.4 428.5c-11.2-27.3-1.8-63.3 14.7-87.8 3.8-5.6 8.5-11 14.8-13.5 6.3-2.5 13.3-1.7 20-.9l50.4 6c6.5.8 13.7 1.9 18 6.8 3.5 4 4.4 9.6 4.7 14.9 2.6 38.3 3.5 76.2-27.6 98.7l-95-24.2z"/><path class="st11" d="M425 439.5s0-.1-.1-.2c-.1-.2-.1-.4-.2-.7-.2-.7-.5-1.7-.8-2.9-.2-.6-.4-1.3-.6-2.1-.2-.8-.4-1.6-.6-2.5-.4-1.8-.9-3.8-1.2-6.1-.2-1.1-.4-2.3-.6-3.6-.2-1.2-.3-2.6-.5-3.9-.4-2.7-.5-5.6-.8-8.6-.3-6.1-.2-12.8.4-19.9.7-7 1.9-13.6 3.2-19.6.8-3 1.5-5.8 2.3-8.4.4-1.3.8-2.6 1.2-3.7.4-1.2.8-2.3 1.2-3.4.7-2.2 1.6-4.1 2.3-5.8.4-.8.7-1.6 1-2.4.3-.7.7-1.4.9-1.9.6-1.1 1-2 1.3-2.7.1-.3.3-.5.4-.7l.1-.2s0 .1-.1.3c-.1.2-.2.4-.3.7-.3.7-.7 1.6-1.2 2.7-.3.6-.6 1.2-.9 2-.3.7-.6 1.5-1 2.4-.7 1.7-1.5 3.6-2.2 5.8-.4 1.1-.8 2.2-1.2 3.4-.4 1.2-.8 2.5-1.2 3.7-.8 2.6-1.5 5.4-2.3 8.3-1.4 5.9-2.5 12.5-3.2 19.5-.6 7-.7 13.7-.4 19.8.2 3 .3 5.9.7 8.6.2 1.3.3 2.6.5 3.9l.6 3.6c.3 2.3.8 4.3 1.1 6.1.2.9.3 1.7.5 2.5s.4 1.5.5 2.1c.3 1.2.5 2.2.7 2.9.1.3.1.6.2.8.3.1.3.2.3.2z"/><path class="st11" d="M419.7 398.9s-.5.6-1.4 1.3c-1 .7-2.4 1.6-4.1 2.2-1.7.6-3.4.8-4.6.9-1.2 0-1.9-.1-1.9-.1 0-.2 3 0 6.3-1.2 3.4-1.3 5.6-3.3 5.7-3.1zm.9-2.1c0 .1-1.2.2-2.6.1-1.4-.1-2.6-.3-2.6-.4 0-.1 1.2-.2 2.6-.1 1.4.1 2.6.3 2.6.4z"/><path class="st14" d="M428.8 350.6h-.9c-.6 0-1.4-.1-2.5-.1-.5 0-1.1 0-1.8-.1-.7 0-1.4-.1-2.1-.2-1.5-.2-3.3-.3-5.2-.6-1-.2-2-.3-3-.5s-2.1-.4-3.2-.6c-2.2-.4-4.6-1-7.1-1.6-5-1.2-10.4-2.7-16.1-4.3-5.7-1.5-11.2-2.9-16.2-3.8-2.5-.4-4.9-.9-7.2-1.1-1.1-.1-2.2-.3-3.3-.4-1.1-.1-2.1-.1-3-.2-1.9-.2-3.7-.1-5.2 0h-2.1c-.7.1-1.2.1-1.8.2-1 .1-1.9.2-2.5.2-.6.1-.9.1-.9.1s.3 0 .9-.1c.6-.1 1.4-.2 2.5-.3.5-.1 1.1-.1 1.8-.2.7 0 1.4 0 2.1-.1 1.5 0 3.3-.1 5.2 0 1 0 2 .1 3 .2 1.1.1 2.1.2 3.3.4 2.3.2 4.7.7 7.2 1.1 5 1 10.5 2.3 16.2 3.8 5.7 1.5 11.1 3 16.1 4.3 2.5.6 4.8 1.2 7.1 1.6 1.1.2 2.2.5 3.2.6 1 .2 2 .3 3 .5 1.9.4 3.6.5 5.2.7.8.1 1.5.2 2.1.2.7 0 1.3.1 1.8.1 1 .1 1.9.1 2.5.1.6 0 .9.1.9.1zm21 2s-.1 0-.2.1l-.6.3c-.5.2-1.3.6-2.3.9-1.9.7-4.7 1.5-7.9 1.9-3.1.4-6 .4-8.1.3-1-.1-1.9-.2-2.4-.3-.2 0-.5-.1-.7-.1-.2 0-.2 0-.2-.1h.2c.2 0 .4 0 .7.1.6.1 1.4.1 2.4.2 2.1.1 4.9.1 8.1-.3 3.1-.4 5.9-1.2 7.8-1.9 1-.3 1.8-.6 2.3-.9.2-.1.4-.2.6-.2.2 0 .2-.1.3 0zm-5.5-13.3s-.5-.1-1.3-.2-1.9-.1-3.1 0c-1.2.2-2.3.5-3 .9-.7.3-1.2.6-1.2.6s.1-.1.3-.2c.2-.1.5-.3.8-.5.7-.4 1.8-.8 3.1-.9 1.2-.2 2.4-.1 3.2 0 .4.1.7.1.9.2.2 0 .3 0 .3.1zm-22.2 35.8s-.3 0-.9-.1c-.6-.1-1.5-.2-2.6-.4-2.3-.3-5.6-.7-9.8-1.1-8.3-.8-19.7-1.3-32.3-2.5-3.2-.3-6.2-.7-9.2-1.2-2.9-.5-5.8-1.1-8.4-1.8-5.3-1.4-10-3-13.8-4.8-3.8-1.7-6.7-3.4-8.6-4.8-1.9-1.3-2.9-2.1-2.9-2.1s.3.2.8.5 1.2.9 2.2 1.5c1.9 1.3 4.8 3 8.6 4.7 3.8 1.7 8.4 3.4 13.8 4.7 2.7.7 5.5 1.2 8.4 1.7 2.9.5 6 .9 9.2 1.2 12.6 1.2 24.1 1.7 32.3 2.6 8.1 1 13.2 1.9 13.2 1.9zm28.9 11.6s-.1 0-.3-.1c-.2-.1-.5-.2-.8-.3-.7-.2-1.7-.5-3-.9-2.6-.7-6.2-1.4-10.2-1.8-4-.3-7.7-.2-10.4 0-1.3.1-2.4.2-3.1.3-.3 0-.6.1-.8.1h-.3s.1 0 .3-.1c.3 0 .5-.1.8-.1.7-.1 1.8-.3 3.1-.4 2.6-.3 6.3-.4 10.4 0 4 .4 7.7 1.1 10.2 1.9 1.3.4 2.3.7 3 .9.3.1.6.2.8.3.2.2.3.2.3.2zm-4 31s-.1 0-.3.1c-.2.1-.5.1-.8.2-.7.2-1.6.4-2.8.6-2.4.4-5.8.7-9.5.5-3.7-.3-7-1-9.3-1.8-1.2-.4-2.1-.7-2.7-1-.3-.1-.5-.2-.7-.3l-.2-.1s.1 0 .3.1c.2.1.5.2.7.3.6.2 1.6.6 2.7.9 2.3.7 5.6 1.4 9.3 1.7 3.7.2 7 0 9.4-.4 1.2-.2 2.2-.4 2.8-.5.3-.1.5-.1.8-.2.2-.1.3-.1.3-.1zm-12.1 21.4s-.2.1-.4.1c-.3.1-.7.2-1.2.2-1.1.1-2.6.1-4.1-.4-1.6-.5-2.8-1.3-3.6-2l-.9-.9c-.2-.2-.3-.4-.3-.4s.4.5 1.3 1.2c.8.7 2.1 1.4 3.6 1.9s3 .6 4.1.5c.9 0 1.5-.2 1.5-.2zm-12.3-5s-1.4.3-4 .8-6.3 1-11 1.3c-4.7.3-10.2.2-16.4-.4-6.1-.6-12.8-1.8-19.7-3.5-13.8-3.5-25.8-8.3-34.4-11.9-4.3-1.8-7.8-3.3-10.2-4.3-1.2-.5-2.1-.9-2.8-1.2-.6-.3-1-.4-1-.4s.3.1 1 .4c.7.3 1.6.7 2.8 1.2 2.4 1 5.9 2.5 10.2 4.2 8.6 3.5 20.6 8.3 34.4 11.8 6.9 1.7 13.6 2.9 19.7 3.5 6.1.6 11.7.7 16.3.5 4.7-.2 8.4-.7 11-1.2 1.3-.2 2.3-.4 3-.6.8-.1 1.1-.2 1.1-.2zm-2.9-26.3s-.3.1-1 .2-1.6.4-2.9.6c-2.5.4-6.2.9-10.7.8-4.5 0-9.9-.5-15.8-1.6s-12.3-2.7-19-4.6c-13.3-3.8-25.1-8.1-33.5-11.5-8.4-3.5-13.4-5.9-13.4-5.9s.3.1.9.4c.6.3 1.5.7 2.7 1.2 2.3 1 5.7 2.5 9.9 4.2 8.4 3.4 20.2 7.7 33.5 11.5 6.7 1.9 13 3.5 18.9 4.6 5.9 1.1 11.3 1.6 15.8 1.7 4.5.1 8.2-.4 10.7-.8 1.3-.2 2.2-.4 2.9-.5.6-.3 1-.3 1-.3z"/><path class="st14" d="M404.6 446.3s-.7-1.6-1.8-4.5-2.4-7.3-3.7-12.8c-.6-2.7-1.1-5.8-1.6-9-.4-3.3-.7-6.8-.8-10.5-.2-7.4.4-15.6 2.2-24 1.8-8.4 4.6-16.1 7.8-22.8 1.6-3.4 3.3-6.4 5-9.3 1.7-2.8 3.4-5.4 5.1-7.6 3.3-4.5 6.3-7.9 8.5-10.2 2.2-2.3 3.5-3.4 3.5-3.4l-.9.9c-.6.6-1.5 1.4-2.5 2.6-2.2 2.3-5.2 5.7-8.5 10.2-1.7 2.3-3.4 4.8-5.1 7.6-1.7 2.8-3.4 5.9-5 9.3-3.2 6.7-5.9 14.4-7.7 22.7-1.7 8.4-2.4 16.5-2.2 23.9.1 3.7.4 7.2.8 10.5s.9 6.3 1.5 9c1.2 5.5 2.5 9.8 3.6 12.8.5 1.5 1 2.6 1.3 3.4.4.8.5 1.2.5 1.2zm-38.4-6.7l-.3-1.2c-.2-.8-.5-1.9-.8-3.4-.2-.7-.4-1.5-.6-2.4-.2-.9-.3-1.9-.5-2.9-.3-2.1-.8-4.5-1.1-7.2-.1-1.3-.3-2.7-.5-4.2s-.2-3-.3-4.6c-.2-3.1-.2-6.5-.2-10.1.2-7.1 1-14.9 2.6-22.9 1.7-8 4-15.5 6.5-22.1 1.4-3.3 2.6-6.4 4-9.2.7-1.4 1.3-2.8 2-4.1.7-1.3 1.4-2.5 2-3.7 1.2-2.4 2.6-4.4 3.8-6.2.6-.9 1.1-1.7 1.6-2.5.5-.7 1-1.4 1.5-2 .9-1.2 1.5-2.1 2-2.8.5-.6.7-1 .7-1s-.2.3-.7 1c-.5.7-1.1 1.6-2 2.8-.4.6-.9 1.3-1.5 2-.5.8-1 1.6-1.6 2.5-1.1 1.8-2.5 3.8-3.7 6.2-.6 1.2-1.3 2.4-2 3.7-.7 1.3-1.3 2.7-2 4.1-1.4 2.8-2.7 5.9-4 9.2-2.5 6.6-4.8 14.1-6.5 22.1-1.6 8-2.3 15.8-2.6 22.9 0 3.5-.1 6.9.1 10.1.1 1.6.1 3.1.3 4.6.2 1.5.3 2.8.5 4.2.2 2.7.7 5.1 1 7.2.2 1 .3 2 .5 2.9.2.9.4 1.7.6 2.4.3 1.4.6 2.6.8 3.4.3.7.4 1.2.4 1.2zm62.1 8.4s.1-.4.4-1.1c.3-.7.7-1.8 1.3-3 .6-1.3 1.2-2.9 1.9-4.8s1.6-4.1 2.4-6.5c.4-1.2.8-2.5 1.3-3.8.5-1.3.8-2.7 1.3-4.2.9-2.9 1.7-6 2.5-9.3 1.5-6.6 2.9-13.9 3.9-21.7.9-7.8 1.2-15.2 1.2-22-.1-3.4-.1-6.6-.3-9.6-.1-1.5-.1-3-.3-4.3-.1-1.4-.3-2.7-.4-4-.2-2.6-.6-4.8-.8-6.9-.2-2-.5-3.7-.8-5.2-.2-1.4-.4-2.5-.5-3.3.1.8.3 1.9.6 3.2.3 1.4.6 3.1.8 5.2.3 2 .6 4.3.8 6.9.1 1.3.3 2.6.4 4 .1 1.4.2 2.8.3 4.4.2 3 .3 6.2.3 9.6 0 6.8-.3 14.2-1.2 22-.9 7.8-2.3 15.1-3.9 21.7-.8 3.3-1.6 6.4-2.5 9.3-.4 1.4-.8 2.8-1.3 4.2-.4 1.3-.9 2.6-1.3 3.8-.8 2.4-1.7 4.6-2.4 6.5-.7 1.9-1.4 3.5-2 4.8-.6 1.3-1 2.3-1.3 3-.2.7-.4 1.1-.4 1.1z"/><path class="st12" d="M225.6 426.2c9.6-23.2 1.6-53.8-12.5-74.6-3.2-4.8-7.2-9.4-12.6-11.5-5.3-2.1-11.3-1.4-17-.8l-42.9 5.1c-5.6.7-11.6 1.6-15.3 5.8-3 3.4-3.7 8.2-4 12.7-2.2 32.6-3 64.8 23.5 84l80.8-20.7z"/><path class="st13" d="M225.6 426.2c9.6-23.2 1.6-53.8-12.5-74.6-3.2-4.8-7.2-9.4-12.6-11.5-5.3-2.1-11.3-1.4-17-.8l-42.9 5.1c-5.6.7-11.6 1.6-15.3 5.8-3 3.4-3.7 8.2-4 12.7-2.2 32.6-3 64.8 23.5 84l80.8-20.7z"/><path class="st11" d="M142.6 435.6s0-.3.2-.9c.1-.6.3-1.4.6-2.5.1-.5.3-1.1.4-1.8.1-.6.3-1.4.4-2.1.3-1.5.7-3.3 1-5.2.2-1 .3-2 .5-3 .2-1.1.3-2.2.4-3.3.3-2.3.4-4.7.6-7.3.2-5.2.2-10.9-.4-16.8-.6-5.9-1.6-11.6-2.7-16.6-.6-2.5-1.2-4.9-1.9-7.1-.3-1.1-.6-2.2-1-3.2s-.7-2-1-2.9c-.6-1.9-1.3-3.5-1.9-4.9-.3-.7-.6-1.4-.8-2-.3-.6-.5-1.2-.8-1.7-.4-1-.8-1.7-1-2.3-.2-.5-.3-.8-.3-.8s.2.3.4.8c.3.6.6 1.3 1.1 2.3.2.5.5 1 .8 1.6.3.6.5 1.3.9 2 .6 1.4 1.3 3.1 2 4.9.3.9.7 1.9 1.1 2.9.4 1 .7 2.1 1 3.2.7 2.2 1.3 4.6 2 7.1 1.2 5.1 2.2 10.7 2.8 16.7.5 6 .6 11.7.3 16.9-.2 2.6-.3 5.1-.6 7.3-.1 1.1-.2 2.3-.4 3.3-.2 1.1-.3 2.1-.5 3-.3 1.9-.7 3.7-1 5.2-.2.8-.3 1.5-.5 2.1-.2.6-.3 1.2-.5 1.8-.3 1-.5 1.8-.7 2.4-.4.6-.5.9-.5.9z"/><path class="st11" d="M147.1 401c.1-.1 2 1.5 4.9 2.5 2.9 1 5.4.9 5.4 1.1 0 .1-2.6.5-5.6-.6-3-1-4.8-2.9-4.7-3zm-.7-1.7c0-.1 1-.3 2.2-.4 1.2-.1 2.2 0 2.2.1s-1 .3-2.2.4c-1.2.1-2.2 0-2.2-.1z"/><path class="st14" d="M139.4 360s.3 0 .7-.1c.5 0 1.2-.1 2.1-.1.5 0 1-.1 1.5-.1.6 0 1.2-.1 1.8-.2 1.3-.2 2.8-.3 4.4-.6.8-.1 1.7-.3 2.5-.4.9-.1 1.8-.4 2.7-.6 1.9-.4 3.9-.9 6-1.4 4.2-1.1 8.8-2.3 13.7-3.6 4.9-1.3 9.5-2.4 13.8-3.3 2.2-.3 4.2-.7 6.1-.9 1-.1 1.9-.2 2.8-.3.9 0 1.8-.1 2.6-.1 1.6-.1 3.1 0 4.4 0 .7 0 1.3 0 1.8.1.6.1 1.1.1 1.5.2.9.1 1.6.2 2.1.2.5.1.7.1.7.1s-.3 0-.7-.1c-.5-.1-1.2-.1-2.1-.2-.5 0-1-.1-1.5-.1h-1.8c-1.3 0-2.8-.1-4.4 0-.8 0-1.7.1-2.6.1-.9.1-1.8.2-2.8.3-1.9.2-4 .6-6.1.9-4.3.8-8.9 2-13.8 3.3-4.8 1.3-9.5 2.6-13.7 3.6-2.1.5-4.1 1-6 1.4-1 .2-1.9.4-2.7.5-.9.1-1.7.3-2.6.4-1.6.3-3.1.4-4.4.5-.7.1-1.3.1-1.8.2-.6 0-1.1 0-1.5.1-.9 0-1.6.1-2.1.1-.4.1-.6.1-.6.1zm-17.9 1.6s.1 0 .2.1c.2.1.3.1.5.2.5.2 1.1.4 2 .7 1.7.6 4 1.2 6.7 1.6 2.7.4 5.1.4 6.9.3.9 0 1.6-.1 2.1-.2.2 0 .4 0 .6-.1-.2 0-.4.1-.6.1-.5.1-1.2.2-2.1.2-1.8.1-4.2.1-6.9-.2-2.7-.4-5-1.1-6.7-1.7-.8-.3-1.5-.6-1.9-.8-.2-.1-.3-.2-.5-.2-.2.1-.3.1-.3 0zm4.7-11.3s.1-.1.3-.1c.2-.1.5-.1.8-.2.7-.1 1.7-.2 2.7 0 1.1.2 2 .5 2.6.8.3.2.6.3.7.4.2.1.2.2.2.2l-1-.5c-.6-.3-1.5-.6-2.6-.7-1-.1-2-.1-2.7 0-.6.1-1 .2-1 .1zm18.9 30.6s1.1-.2 3-.5c2-.3 4.8-.6 8.3-1 7-.7 16.8-1.2 27.5-2.2 5.4-.5 10.4-1.4 14.9-2.5 4.5-1.2 8.5-2.5 11.7-4 3.2-1.5 5.7-2.9 7.3-4 .8-.5 1.4-1 1.9-1.3.4-.3.7-.4.7-.4s-.9.7-2.5 1.8-4.1 2.6-7.3 4.1c-3.2 1.5-7.2 2.9-11.7 4.1-4.5 1.1-9.6 2-15 2.5-10.7 1-20.5 1.4-27.5 2.1-3.5.3-6.3.6-8.3.9-1 .1-1.7.2-2.3.3-.4 0-.7.1-.7.1zm-24.6 9.8s.1 0 .2-.1c.2-.1.4-.2.7-.2.6-.2 1.5-.5 2.6-.8 2.2-.6 5.2-1.3 8.7-1.6 3.4-.3 6.6-.2 8.8 0 1.1.1 2 .2 2.7.3.3 0 .5.1.7.1.2 0 .2.1.2.1h-.3c-.2 0-.5-.1-.7-.1-.6-.1-1.5-.2-2.7-.3-2.2-.2-5.4-.3-8.8 0-3.4.3-6.5.9-8.7 1.5-1.1.3-2 .5-2.6.7-.3.1-.5.1-.7.2 0 .2-.1.2-.1.2zm3.4 26.3h.2c.2 0 .4.1.6.1.6.1 1.4.3 2.4.4 2 .3 4.9.6 8 .3 3.1-.2 5.9-.8 7.9-1.4 1-.3 1.8-.6 2.3-.8.2-.1.4-.2.6-.2.1 0 .2-.1.2-.1s-.1 0-.2.1l-.6.3c-.5.2-1.3.5-2.3.8-2 .6-4.8 1.3-7.9 1.5-3.1.2-6 0-8-.4-1-.2-1.8-.4-2.4-.5-.2-.1-.4-.1-.6-.2-.1.2-.2.1-.2.1zm10.2 18.3s.6.1 1.4.2c.9.1 2.1 0 3.4-.4 1.3-.4 2.4-1.1 3.1-1.6.7-.6 1.1-1 1.1-1s-.1.1-.2.3c-.2.2-.4.5-.8.8-.7.6-1.8 1.3-3.1 1.7-1.3.4-2.6.5-3.5.4-.5-.1-.8-.1-1.1-.2-.1-.1-.3-.2-.3-.2zm10.5-4.3s.3 0 .9.2c.6.1 1.4.3 2.5.5 2.2.4 5.4.8 9.3 1 4 .2 8.7.1 13.9-.4 5.2-.5 10.9-1.5 16.8-3 11.7-3 21.9-7.1 29.3-10 3.6-1.5 6.6-2.7 8.7-3.6 1-.4 1.8-.7 2.4-1 .5-.2.8-.3.8-.3s-.3.1-.8.4c-.6.3-1.4.6-2.3 1-2 .9-5 2.1-8.7 3.7-7.3 3-17.5 7.1-29.3 10.1-5.9 1.5-11.6 2.5-16.8 3-5.2.5-10 .6-13.9.4-4-.2-7.2-.7-9.3-1.1-2.3-.6-3.5-.9-3.5-.9zm2.5-22.4s.3 0 .9.2c.6.1 1.4.3 2.4.5 2.1.4 5.2.7 9.1.7 3.9 0 8.4-.5 13.4-1.4 5-.9 10.4-2.3 16.1-3.9 11.3-3.2 21.3-6.9 28.5-9.8 3.6-1.4 6.4-2.7 8.4-3.6 1-.4 1.7-.8 2.3-1 .5-.2.8-.3.8-.3s-4.3 2.1-11.4 5c-7.1 2.9-17.1 6.6-28.5 9.8-5.7 1.6-11.1 3-16.1 3.9-5 .9-9.6 1.4-13.5 1.4-3.9 0-7-.3-9.1-.7-1.1-.2-1.9-.4-2.4-.5l-.9-.3z"/><path class="st14" d="M159.9 441.4s.1-.3.4-1c.2-.7.6-1.6 1.1-2.9.9-2.5 2-6.2 3-10.9 1-4.6 1.8-10.3 2-16.6.2-6.3-.4-13.2-1.9-20.3-1.5-7.1-3.9-13.7-6.6-19.3-2.7-5.7-5.7-10.5-8.5-14.4-2.8-3.8-5.4-6.7-7.2-8.7-.9-1-1.7-1.7-2.1-2.2-.5-.5-.7-.8-.7-.8s1.1 1 2.9 2.9c1.9 1.9 4.4 4.8 7.3 8.6 2.8 3.8 5.9 8.7 8.6 14.4 2.7 5.7 5.1 12.3 6.6 19.4 1.5 7.1 2 14.1 1.9 20.4-.2 6.3-1 12-2 16.6-1 4.7-2.2 8.3-3.1 10.8-1.1 2.6-1.7 4-1.7 4zm32.7-5.8s.1-.3.2-1c.2-.7.4-1.7.6-2.9.1-.6.3-1.3.5-2.1s.3-1.6.4-2.5c.3-1.8.7-3.8.9-6.1.1-1.1.2-2.3.4-3.6.1-1.2.1-2.5.2-3.9.2-2.7.1-5.5.1-8.6-.2-6-.9-12.6-2.2-19.5-1.4-6.8-3.4-13.2-5.5-18.8-1.2-2.8-2.2-5.5-3.4-7.8-.6-1.2-1.1-2.4-1.7-3.5-.6-1.1-1.2-2.1-1.7-3.1-1.1-2-2.2-3.7-3.2-5.3-.5-.8-.9-1.5-1.4-2.1-.4-.6-.9-1.2-1.2-1.7-.7-1-1.3-1.8-1.7-2.4-.4-.5-.6-.8-.6-.8s.2.3.6.8c.4.6 1 1.4 1.7 2.4.4.5.8 1.1 1.2 1.7.4.6.9 1.4 1.4 2.1 1 1.5 2.1 3.2 3.2 5.3.6 1 1.1 2 1.7 3.1.6 1.1 1.1 2.3 1.7 3.5 1.2 2.4 2.3 5.1 3.4 7.8 2.1 5.6 4.1 12 5.5 18.8 1.3 6.8 2 13.5 2.2 19.5 0 3 .1 5.9-.1 8.6-.1 1.3-.1 2.6-.2 3.9-.1 1.2-.3 2.4-.4 3.6-.2 2.3-.6 4.3-.9 6.1-.2.9-.3 1.7-.4 2.5-.2.8-.3 1.4-.5 2.1-.3 1.2-.5 2.2-.7 2.9 0 .7-.1 1-.1 1zm-52.8 7.2s-.1-.3-.4-.9c-.3-.6-.6-1.5-1.1-2.6-.5-1.1-1.1-2.5-1.7-4.1-.6-1.6-1.4-3.4-2-5.5-.7-2.1-1.5-4.3-2.2-6.8-.8-2.4-1.4-5.1-2.1-7.9-1.3-5.6-2.5-11.8-3.3-18.5-.7-6.6-1-13-1-18.7.1-2.9.1-5.6.3-8.2.1-2.6.4-4.9.6-7.1.2-2.2.5-4.1.7-5.8.2-1.7.5-3.2.7-4.4.2-1.2.4-2.1.5-2.8.1-.6.2-1 .2-1s0 .3-.1 1-.3 1.6-.5 2.8c-.2 1.2-.5 2.7-.7 4.4-.2 1.7-.5 3.7-.7 5.8-.2 2.2-.4 4.5-.5 7.1-.2 2.6-.2 5.3-.3 8.2 0 5.8.3 12.1 1 18.7.8 6.6 2 12.8 3.3 18.4.7 2.8 1.4 5.4 2.1 7.9.7 2.5 1.5 4.7 2.2 6.8.7 2.1 1.4 3.9 2 5.5.6 1.6 1.2 3 1.6 4.1.5 1.1.8 2 1.1 2.6.2.7.3 1 .3 1z"/><path class="st12" d="M302.9 393.9c4.4-5.9 5.2-13.7 4.6-21-.6-7.3-2.6-14.5-3-21.8-.5-7.3.7-15.2 5.5-20.7 1.2-1.4 2.8-2.9 2.9-4.7.3-3.1-3.4-5.3-6.4-4.7-3 .5-5.4 2.8-7.6 5-23-18-55.4-23-82.8-13-3.2 1.2-6.8 2.5-9.8.9-3.3-1.8-4.7-6.8-8.5-7-3.3-.2-5.3 3.9-4.9 7.2.4 3.3 2.3 6.3 2.8 9.6.9 5.8-2.5 11.3-5.2 16.6-12.6 24.1-13 54.1-1.1 78.6l100.7-7 12.8-18z"/><path d="M302.9 393.9c4.4-5.9 5.2-13.7 4.6-21-.6-7.3-2.6-14.5-3-21.8-.5-7.3.7-15.2 5.5-20.7 1.2-1.4 2.8-2.9 2.9-4.7.3-3.1-3.4-5.3-6.4-4.7-3 .5-5.4 2.8-7.6 5-23-18-55.4-23-82.8-13-3.2 1.2-6.8 2.5-9.8.9-3.3-1.8-4.7-6.8-8.5-7-3.3-.2-5.3 3.9-4.9 7.2.4 3.3 2.3 6.3 2.8 9.6.9 5.8-2.5 11.3-5.2 16.6-12.6 24.1-13 54.1-1.1 78.6l100.7-7 12.8-18z" fill="#b3b7ff"/></g><g id="Character"><path class="st11" d="M353.8 200.7c-1.1-6.5 5.8-12 11.1-12.4 5.2-.3 9.6 2 12.9 6 2.6 3.1 4.5 7.4 8.5 8 2.2.4 4.3-.6 6.5-1.1 2.1-.5 4.8-.5 6.1 1.3.9 1.2 1 2.9.5 4.3s-1.4 2.6-2.4 3.8c1.8 1.4 2 4.1 1 6.1s-3.1 3.2-5.3 3.8c-2.2.5-4.4.5-6.7.4.4 3 .6 6.3-1.3 8.8-2.5 3.4-7.9 3.3-11.3.9-3.4-2.4-5.2-6.5-6.4-10.5s-1.8-8.2-3.7-12c-1.9-3.9-5.3-7.2-9.5-7.4"/><path class="st11" d="M388.2 191.3s0 .3-.4.7c-.3.4-1 .9-2 1-.5 0-1.1 0-1.6-.3s-1-.8-1.2-1.5c-.2-.7-.3-1.4-.1-2.2.2-.8.7-1.5 1.5-2s1.7-.7 2.7-.6c1 .1 1.9.6 2.7 1.3.7.7 1.2 1.7 1.5 2.8.2 1.1.1 2.3-.4 3.4-.4 1.1-1.2 2.1-2.2 2.8-1 .7-2.3 1-3.6 1-1.3 0-2.6-.5-3.6-1.3s-1.8-1.9-2.5-3-1.3-2.3-1.9-3.3c-.7-1.1-1.4-2-2.3-2.8-1.8-1.6-4-2.6-6.1-3-2.2-.5-4.3-.3-6.2.2-1.9.6-3.5 1.6-4.7 2.7-2.5 2.3-3.6 4.9-4.1 6.7-.5 1.8-.4 2.9-.5 2.9 0 0-.1-1.1.3-2.9.4-1.8 1.5-4.6 4.1-6.9 1.3-1.2 2.9-2.2 4.8-2.8 1.9-.6 4.2-.7 6.4-.3 2.2.4 4.5 1.5 6.4 3.1.9.8 1.8 1.8 2.4 2.9.7 1.1 1.3 2.2 1.9 3.3.7 1.1 1.4 2.1 2.4 2.9 1 .8 2.1 1.2 3.3 1.2 1.2 0 2.3-.3 3.3-.9.9-.6 1.6-1.5 2-2.5.4-1 .5-2.1.4-3.1-.2-1-.7-1.9-1.3-2.6-1.3-1.4-3.5-1.6-4.8-.8-1.5.8-1.8 2.6-1.3 3.8.2.6.6 1.1 1.1 1.4.5.3 1 .4 1.5.3.9 0 1.6-.5 1.9-.8.1-.6.2-.8.2-.8z"/><path class="st11" d="M398.8 195.1s-.1.3-.3.7c-.2.5-.5 1.1-.9 2-.4.8-1 1.9-1.7 3-.8 1.1-1.8 2.3-3.2 3.3-1.4 1-3.2 1.8-5.3 1.7-2.1 0-4.2-1.1-5.6-2.9-1.4-1.8-2.2-4.1-2.7-6.5-.5-2.4-.9-4.9-1.9-7.2-1-2.3-2.7-4.2-4.7-5.5-2-1.3-4.3-2-6.4-2.1-1.1-.1-2.2 0-3.2.2s-2 .5-2.8 1c-1.8.8-3.1 2.1-4.2 3.3-2.1 2.6-2.9 5.3-3.1 7.1-.2 1.9 0 2.9-.1 2.9 0 0-.3-1-.1-2.9.1-1.9.9-4.7 3-7.3 1.1-1.3 2.5-2.6 4.3-3.5.9-.5 1.9-.8 2.9-1 1.1-.2 2.2-.3 3.3-.2 2.3.1 4.6.9 6.7 2.2 1 .7 2 1.5 2.9 2.4.9.9 1.5 2.1 2.1 3.3 1 2.4 1.4 4.9 1.9 7.3.5 2.3 1.3 4.6 2.6 6.3 1.3 1.7 3.2 2.8 5.2 2.8 1.9 0 3.7-.7 5-1.6 1.4-.9 2.4-2.1 3.1-3.2.8-1.1 1.3-2.1 1.8-2.9.4-.8.8-1.4 1-1.9.2-.6.4-.8.4-.8z"/><path class="st16" d="M389.8 212.6s-.3 0-.7-.2c-.4-.2-1.1-.7-1.5-1.6-.4-.9-.2-2.3.8-3.3s3-1.1 4.5-.2c1.6.9 2.6 2.8 2.6 4.9 0 1-.2 2.1-.7 3.1-.5 1-1.3 1.9-2.3 2.5-2 1.3-4.6 1.6-7 .8-2.4-.8-4.5-2.6-5.8-5-1.4-2.3-1.7-5-2-7.4-.3-2.4-.8-4.7-2-6.6-1.2-1.9-2.9-3.3-4.6-4.1-1.8-.9-3.6-1.2-5.3-1.1-3.4.2-5.8 1.7-7.2 3-1.4 1.3-1.9 2.2-2 2.2 0 0 .4-1 1.8-2.3 1.4-1.3 3.8-3 7.3-3.2 1.7-.1 3.7.2 5.5 1.1 1.8.9 3.6 2.3 4.8 4.3.6 1 1.1 2.1 1.4 3.2.3 1.2.5 2.4.7 3.6.3 2.4.7 4.9 2 7.2 1.2 2.2 3.2 4 5.5 4.7 2.3.7 4.8.4 6.6-.7 1.9-1.1 2.8-3.2 2.8-5.2 0-1.9-.9-3.7-2.3-4.6-1.4-.9-3.1-.8-4.1.1-1 .9-1.1 2.2-.8 3 .3.9.9 1.4 1.3 1.6.4.1.7.1.7.2z"/><path class="st16" d="M381.1 232.6s-.1.1-.4.1c-.3.1-.7.1-1.2.1-1 0-2.6-.2-4.2-1.1-.8-.5-1.6-1.1-2.3-1.9-.7-.9-1.2-1.9-1.5-3.1-.7-2.4-.4-5.1 0-7.8s.8-5.3.4-7.7c-.4-2.3-1.5-4.3-3-5.2-1.5-1-3-1.1-4-.9-1 .2-1.4.5-1.5.5 0 0 .1-.1.3-.2.2-.1.6-.3 1.1-.4 1-.2 2.6-.2 4.2.8s2.9 3 3.3 5.5c.4 2.4 0 5.1-.4 7.8s-.7 5.4-.1 7.6c.3 1.1.8 2.1 1.4 3 .6.8 1.4 1.4 2.2 1.9 1.5.9 3 1.2 4 1.2 1.1-.1 1.7-.2 1.7-.2z"/><path class="st17" d="M347.7 203.2c-1.5-1.7-1.6-4.5-.2-6.2 1.5-1.7 4.3-2.1 6.1-.9 1.4.9 2.3 2.5 3.9 3.1 1.9.7 4.5-.3 5.7 1.3 1.1 1.5 0 4 1.3 5.2.6.5 1.4.6 2.1 1 1.1.5 1.9 1.7 1.8 3 0 1.2-.8 2.4-2 2.9.8.9 1.5 1.8 1.8 2.9.3 1.1-.1 2.5-1.1 3-.8.4-1.8.1-2.7-.2-2.5-.9-4.7-2.3-6.6-4.2"/><path class="st11" d="M353.7 201.2c.1 0 .1 1 .1 2.3 0 1.2-.1 2.3-.2 2.3s-.3-1-.3-2.3c0-1.3.3-2.3.4-2.3z"/><path class="st11" d="M356.5 202.2c.1.1-.8.8-1.6 2-.8 1.1-1.2 2.2-1.3 2.2-.1 0 0-1.3.9-2.5.8-1.3 1.9-1.8 2-1.7zm6.7 7.2c0 .1-.9.4-1.9.9-1.1.4-1.9.9-2 .8-.1-.1.6-.8 1.8-1.3 1.1-.5 2.1-.6 2.1-.4zm-54.7.8c-5.3 3.3-7.3 10.3-6.3 14.5.5 2.1 1.5 4.2 1 6.3-.4 1.8-1.7 3.3-2.6 4.9-3.3 5.3-2.7 12.6 1.4 17.3 4 4.7 11.2 6.3 16.9 3.8"/><path class="st11" d="M305.4 237.6c-12.8-28.1 17.6-42.2 34.2-37.5 15.6 4.4 22.2 12.2 24.8 22.6 2.6 10.4 2.4 21.7-1.6 31.7-2 4.9-5.6 9.9-10.9 10.5"/><path class="st18" d="M349.5 215.7c2.7.3 4.8 2.6 4.7 5.4l-3 71.5c-.1 8.4-12.5 13.2-21.5 13-9.1-.2-9.4-4.7-9.6-12.7-.2-13.4-.2-18.5-.2-18.4 0 0-11.5-1.9-13.9-17-1.2-7.5-.8-19.8-.2-29.8.6-9 6.6-20.1 15.6-19.2l28.1 7.2z"/><path class="st11" d="M315.5 237.3c-.3-.2-1.6 1-3.7 1.1-2.1.2-3.7-.8-3.9-.5-.1.1.2.6.9 1s1.8.8 3.1.7c1.3-.1 2.3-.7 2.9-1.2.6-.6.8-1 .7-1.1zm20.1.1c-.3-.2-1.7.9-3.7 1-2.1.1-3.7-.8-3.9-.6-.1.1.2.6.9 1s1.8.8 3.1.8c1.3-.1 2.4-.6 2.9-1.1.7-.5.9-1 .7-1.1zm-14.2 12.5c0-.1-1.3-.3-3.4-.6-.5-.1-1-.2-1.1-.5-.1-.4.1-1 .4-1.6.5-1.3 1-2.6 1.6-4 2.2-5.8 3.8-10.5 3.5-10.6-.2-.1-2.2 4.5-4.4 10.3-.5 1.4-1 2.8-1.5 4.1-.2.6-.5 1.3-.3 2.1.1.4.5.7.9.8.3.1.6.1.9.1 2.1 0 3.4 0 3.4-.1z"/><path class="st19" d="M320 274.5s10.1.7 20.2-5.4c0 0-4.9 10.3-20 8.9l-.2-3.5zm2.3-19.6c.7-1 2.1-1.5 3.4-1.4.9.1 1.8.5 2.4 1.3.5.7.7 1.8.2 2.5-.6.8-1.7 1-2.7.7-1-.3-1.8-.9-2.7-1.6-.2-.2-.5-.4-.6-.6-.3-.3-.3-.6 0-.9"/><path class="st11" d="M327.5 251.3c-.3 0-.3 2.2-2.3 3.8-1.9 1.6-4.3 1.4-4.3 1.7 0 .1.5.4 1.6.5 1 0 2.4-.3 3.6-1.3 1.2-1 1.7-2.3 1.8-3.2 0-.9-.2-1.5-.4-1.5zm.5-20.4c.2.6 2.3.3 4.7.6 2.4.2 4.4 1 4.7.5.1-.2-.2-.8-1-1.3s-2-1.1-3.5-1.2c-1.5-.2-2.8.1-3.7.4-.8.2-1.3.7-1.2 1zm-18.7-2.8c.4.5 1.8 0 3.5 0 1.7-.1 3.2.3 3.5-.2.1-.2-.1-.7-.7-1.2-.6-.4-1.7-.8-2.9-.8s-2.2.5-2.8.9c-.6.6-.8 1.1-.6 1.3z"/><path class="st18" d="M351.7 240.8c.2-.1 8.1-3.6 8.2 5.4.1 9-9 7.2-9 7-.1-.3.8-12.4.8-12.4z"/><path class="st19" d="M353.5 249.8l.4.2c.3.1.7.2 1.2 0 .9-.4 1.7-1.9 1.8-3.5 0-.8-.2-1.6-.5-2.2-.3-.7-.7-1.1-1.2-1.2-.5-.1-.8.2-.9.4-.1.3-.1.4-.1.4s-.2-.1-.1-.5c0-.2.1-.4.3-.6.2-.2.5-.3.9-.2.7 0 1.3.7 1.7 1.4.4.7.6 1.6.6 2.5 0 1.8-1 3.5-2.3 3.9-.6.2-1.2 0-1.4-.2-.3-.2-.4-.4-.4-.4z"/><path class="st11" d="M318.4 204c-5 2.6-7.1 12.9-5 18.1 2.1 5.3 7.3 8.8 12.8 10 5.5 1.2 11.3.4 16.7-1.2.4 3.7 2.6 7.4 6.1 8.4 4.7 1.3 9.4-3 10.5-7.8 1-4.8-.5-9.7-2.1-14.3"/><path class="st11" d="M358.2 236.7s-.2.3-.7.7c-.5.4-1.2 1-2.1 1.6-.9.6-2.1 1.3-3.5 1.7-1.4.4-3.1.6-4.8-.1-1.6-.6-2.9-1.9-3.6-3.1-.8-1.3-1.1-2.6-1.3-3.7-.2-1.1-.2-2-.1-2.6 0-.6.1-1 .1-1 .1 0 0 1.4.4 3.5.2 1.1.6 2.3 1.3 3.5.7 1.2 1.9 2.3 3.4 2.9 1.5.6 3.1.5 4.5.1s2.5-1 3.4-1.5c1.8-1.2 2.9-2 3-2zm14.6 37.9s-.1.2-.3.4c-.2.2-.5.6-1 1-1 .8-2.7 1.7-5 1.5-2.3-.2-5-1.7-6.1-4.6-.6-1.4-.7-3.2.2-4.7.5-.7 1.2-1.3 2.1-1.5.9-.2 1.9-.1 2.6.6.7.7.9 1.7.8 2.5-.1.9-.6 1.7-1.3 2.2-1.3 1.1-3 1.4-4.5 1.2-3.1-.3-5.4-2.5-6.1-4.6-.8-2.2-.3-4.1.2-5.2.2-.6.5-1 .7-1.3.2-.3.3-.4.3-.4.1 0-.4.6-.9 1.7-.4 1.1-.8 3 0 5 .7 2 2.9 4 5.8 4.3 1.4.1 3-.2 4.1-1.1.6-.5 1-1.1 1.1-1.9.1-.7-.1-1.6-.6-2.1s-1.4-.7-2.1-.5c-.7.2-1.4.6-1.8 1.3-.8 1.3-.7 2.9-.2 4.2 1.1 2.7 3.6 4.2 5.7 4.4 2.2.2 3.9-.6 4.9-1.3 1-.6 1.4-1.1 1.4-1.1zm-1.2-15.3s-.6.7-1.9 1.3c-1.3.6-3.2 1.2-5.4 1-1.1-.1-2.1-.3-3-.6-.9-.3-1.7-.8-2.1-1.3-.5-.6-.6-1.2-.6-1.6 0-.4.1-.6.2-.6v.6c0 .4.2.9.7 1.4.9 1 2.9 1.5 4.9 1.7 2.1.1 4-.3 5.3-.8 1.2-.7 1.9-1.2 1.9-1.1z"/><path class="st11" d="M360.9 215.4c.1 0 0 .7.3 2s1 3 2.3 4.9c1.3 1.9 3.3 3.9 5.2 6.3 1 1.2 2 2.5 2.7 4.1.7 1.5 1.2 3.3 1.4 5.1.4 3.6-.3 7.1-1.7 9.9-1.4 2.8-3.3 5-5.1 6.5-1.8 1.5-3.5 2.5-4.6 3.1-.6.3-1.1.5-1.4.6-.3.1-.5.2-.5.2s.6-.3 1.8-1c1.1-.6 2.7-1.6 4.5-3.2 1.7-1.5 3.5-3.7 4.9-6.4 1.3-2.7 2-6.1 1.6-9.6-.2-1.7-.7-3.4-1.4-4.9-.7-1.5-1.6-2.8-2.6-4-1.9-2.4-3.9-4.4-5.2-6.4-1.3-2-2-3.8-2.2-5.1-.1-.6-.1-1.2-.1-1.5.1-.5.1-.6.1-.6zm-50.2-3.6s-.8.2-2.1.6c-1.3.4-3.2 1.1-5.1 2.7-.9.8-1.8 1.8-2.4 3.1-.6 1.3-1 2.8-.9 4.4.1 1.6.5 3.3.7 5.1.1.9.1 1.8 0 2.8-.1.9-.5 1.9-1.1 2.7-1.2 1.6-2.8 2.5-4.2 3.6-1.4 1-2.5 2.3-3.2 3.8-1.3 2.9-.8 6.1.5 8.1 1.3 2.1 3.1 3.1 4.3 3.7 1.3.5 2.1.6 2 .6 0 0-.8 0-2.1-.4-1.3-.5-3.2-1.5-4.6-3.6-1.4-2.1-2-5.4-.6-8.5.6-1.6 1.8-3 3.3-4 1.4-1.1 3.1-2 4.1-3.5 1.1-1.5 1.2-3.4 1-5.1-.2-1.7-.6-3.4-.7-5.1-.1-1.7.2-3.3.9-4.6.7-1.3 1.6-2.4 2.6-3.2 2-1.6 3.9-2.2 5.3-2.6.7-.2 1.2-.3 1.6-.3.5-.3.7-.3.7-.3z"/><path class="st16" d="M362.7 216.4s-.1.2-.3.5c-.2.3-.6.8-1.1 1.4-1.1 1.1-2.8 2.6-5.3 3.7-1.3.5-2.7.9-4.4 1.1-1.6.1-3.4-.1-5.1-.6-1.7-.6-3.5-1.5-4.9-2.9-1.5-1.4-2.5-3.2-3.3-5.2-.8-1.9-1.6-3.8-2.8-5.3-1.2-1.5-2.6-2.7-4.2-3.5-3.1-1.7-6.5-1.8-9.1-1.2-2.6.7-4.5 1.9-5.6 2.9-1.1 1-1.6 1.7-1.7 1.7 0 0 .1-.2.3-.5.2-.3.6-.8 1.2-1.3 1.1-1 3-2.4 5.7-3.1 2.6-.7 6.2-.6 9.4 1.1 1.6.8 3.2 2.1 4.4 3.7 1.3 1.6 2 3.5 2.8 5.4.8 1.9 1.8 3.7 3.2 5 1.4 1.3 3 2.3 4.7 2.8 3.4 1.2 6.7.7 9.2-.3 2.5-1 4.2-2.4 5.3-3.5 1.1-1.3 1.6-2 1.6-1.9z"/><path class="st16" d="M351.6 204.1s-.1.1-.2.3c-.2.2-.5.5-.9.7-.8.6-2.3 1.1-4.1 1.1-1.8 0-4-.6-6.1-1.5-2.2-.9-4.5-2-7.2-2.4-5.4-.9-10.3.4-13.5 2-3.2 1.6-4.8 3.2-4.8 3.1l1.1-1.1c.8-.6 1.9-1.5 3.5-2.4 1.6-.8 3.6-1.6 6-2.1 2.3-.5 5-.6 7.7-.1 2.7.4 5.2 1.6 7.3 2.5 2.1 1 4.2 1.6 5.9 1.6 1.8.1 3.2-.4 4-.9.9-.4 1.2-.8 1.3-.8zm12.7 23.1c.1 0 0 .9-.4 2.4-.4 1.4-1.3 3.3-2.8 5.1-1.5 1.7-3.2 2.9-4.6 3.5-1.4.6-2.3.8-2.3.7 0-.1.8-.4 2.1-1.1 1.3-.7 2.9-1.9 4.3-3.6 1.4-1.7 2.3-3.5 2.8-4.9.7-1.2.8-2.1.9-2.1zm2 4.7c.1 0 .1.7-.2 1.8-.3 1.1-.9 2.6-2 3.9-1.1 1.3-2.4 2.3-3.4 2.8s-1.7.6-1.7.6c0-.1.6-.3 1.5-.9.9-.6 2.1-1.5 3.2-2.8 1-1.3 1.7-2.7 2-3.7.4-1 .5-1.7.6-1.7zm-61.8 14.7c0 .1-.6 0-1.4-.4-.8-.4-1.8-1.2-2.5-2.3-.7-1.2-1.1-2.4-1.1-3.3 0-.9.1-1.4.2-1.4s.1.5.2 1.4c.1.8.5 2 1.2 3 .7 1.1 1.6 1.8 2.3 2.3.6.4 1.1.6 1.1.7zm42.9-20.2s-.1.1-.4.1c-.3.1-.7.2-1.2.3-1.1.2-2.7.3-4.6 0-1.9-.3-4.2-1.1-6.4-2.6-1.1-.7-2.1-1.7-3-2.7-.9-1.1-1.6-2.4-2.3-3.8-1.2-2.7-2.1-5.4-3.9-7.2-.9-.9-2-1.4-3-1.7-1.1-.3-2.1-.3-3.1-.1-1.9.3-3.3 1-4.2 1.6-.9.6-1.4 1-1.4.9l.3-.3c.2-.2.5-.5 1-.8.9-.6 2.3-1.4 4.3-1.7 1-.2 2.1-.2 3.2.1 1.1.3 2.3.9 3.3 1.8 2 1.9 2.9 4.7 4.1 7.3.6 1.3 1.3 2.6 2.2 3.6.9 1.1 1.9 1.9 2.9 2.7 2.1 1.5 4.3 2.2 6.2 2.6 1.9.4 3.5.3 4.5.2l1.5-.3z"/><path class="st17" d="M351.7 285.7s30.8 6.8 33.2 18.2c3.5 17.1-9.5 72.3-9.5 73.5 0 1.1 11 38.2 9.5 47.9C383.4 435 355 451 355 451l-68.5-55 18.8-14-8-47.2 4.2-41.1 16.9-4.3 33.3-3.7z"/><path class="st17" d="M257.9 323.5c.5 1.1 10.9 47.2 16.2 52.3 4.8 4.6 15.3 8.5 23.2.2 5.9-6.2 11.7-27.2 11.7-27.2l-7.6-55.2-7.5 7.9-7.4 35.9-4.9-19.3-23.7 5.4z"/><path class="st11" d="M338 396.5s-.4.3-1.3.6-2.1.7-3.7 1c-3.2.6-7.9.6-12.6-1.3-4.7-1.9-8.1-5.2-9.9-7.8-1-1.3-1.6-2.5-2-3.3-.4-.8-.5-1.3-.5-1.3.1-.1.8 1.8 2.8 4.4 1.9 2.5 5.3 5.7 9.8 7.5 4.6 1.8 9.2 1.9 12.3 1.4 3.2-.5 5.1-1.4 5.1-1.2zm-11.5 7.9c0 .1-1.3-.7-3.2-1.8-2-1.2-4.7-2.8-7.8-4.4-3.1-1.6-6-3-8-3.9-2.1-.9-3.4-1.4-3.4-1.5 0 0 .4.1 1 .3.6.2 1.5.5 2.6.9 2.1.8 5 2.1 8.1 3.8 3.1 1.6 5.8 3.3 7.7 4.5 1 .6 1.7 1.1 2.3 1.5.4.3.7.5.7.6zm30.7-4.9s-.6 0-1.5-.1c-.5-.1-1.1-.1-1.8-.1s-1.5-.1-2.4-.1c-1.8 0-3.9.1-6.2.3-2.3.3-4.8.7-7.4 1.5-2.6.7-5 1.7-7.1 2.6-2.1 1-4 2-5.5 2.9-.8.4-1.4.9-2 1.3-.6.4-1.1.7-1.5 1-.8.6-1.2.9-1.3.9 0 0 .4-.4 1.1-1 .4-.3.8-.7 1.4-1.1.6-.4 1.2-.9 2-1.4 1.5-1 3.3-2 5.5-3.1 2.1-1 4.6-1.9 7.2-2.7 2.6-.7 5.2-1.2 7.5-1.4 2.3-.2 4.5-.3 6.2-.2.9 0 1.7.1 2.4.2s1.3.1 1.8.2c1.1.2 1.6.3 1.6.3zm-62.5-35.3s-.1-.1-.2-.4c-.1-.4-.3-.8-.5-1.3-.4-1.1-1-2.8-1.7-4.8-1.4-4.1-3.3-9.8-5.1-16.2-1.8-6.4-3.2-12.2-4.2-16.4-.5-2.1-.8-3.8-1.1-5-.1-.5-.2-1-.3-1.4-.1-.3-.1-.5-.1-.5s.1.2.2.5c.1.4.2.8.3 1.4.3 1.3.7 2.9 1.2 5 1 4.2 2.5 10 4.3 16.4 1.8 6.4 3.6 12.1 4.9 16.2.6 2 1.2 3.7 1.6 4.9.2.5.3 1 .4 1.3l.3.3z"/><path class="st11" d="M295.7 353.5c-.1 0-.3-1-.9-2.5-.5-1.5-1.4-3.6-2.6-5.7-1.3-2.1-2.7-3.8-3.8-5-1.1-1.2-1.8-1.9-1.8-1.9s.9.5 2 1.7c1.2 1.1 2.7 2.9 3.9 5 1.3 2.2 2.1 4.3 2.5 5.8.6 1.6.8 2.6.7 2.6zm1.6-33.3c.1 0-.2.9-.5 2.4-.3 1.6-.6 3.8-.6 6.7 0 2.8.4 6.2 1.1 9.9.3 1.8.8 3.8 1.3 5.7.5 2 1 4 1.5 6.2 1.8 8.5 3 16.3 3.9 21.9.4 2.8.8 5 1 6.6.1.7.2 1.3.3 1.8.1.4.1.6.1.6s-.1-.2-.2-.6c-.1-.5-.2-1.1-.4-1.8-.3-1.6-.7-3.9-1.2-6.6-1-5.6-2.3-13.3-4.1-21.8-.4-2.1-.9-4.2-1.4-6.2-.5-2-.9-3.9-1.2-5.8-.7-3.7-1-7.1-1-10 0-2.9.4-5.2.8-6.7.2-.8.4-1.4.5-1.8 0-.3 0-.5.1-.5z"/><path class="st17" d="M315.5 299.6s-2-14.1 4.1-19.5l32.4-5.5s8.7 8.1 6.6 17.8c-2.1 9.7-26.8 19-26.8 19l-16.3-11.8z"/><path class="st14" d="M357.6 282.8s-.5-.3-1.6-.7c-1-.4-2.6-.6-4.5-.3s-4.1 1.1-6.3 2.5c-2.2 1.3-4.5 3.1-7.3 4.3-1.4.7-2.8 1.1-4.2 1.5-1.4.4-2.8.6-4.1.6-2.6.2-5-.1-6.9-.5-1.9-.4-3.4-1-4.4-1.5-.5-.2-.9-.5-1.1-.6-.3-.1-.4-.2-.4-.2 0-.1 2.2 1.2 6 2s9.4.8 14.8-1.7c2.7-1.3 5-3 7.2-4.3 2.2-1.3 4.5-2.2 6.5-2.4 2-.3 3.6 0 4.7.5.5.2.9.4 1.1.6.4.1.5.2.5.2z"/><path class="st11" d="M321 296.3l-.5-.5c-.3-.4-.7-.9-1.1-1.6-.8-1.5-1.5-3.7-1.4-6.3.1-2.6 1.1-4.7 2-6.1.5-.7.9-1.2 1.2-1.5.3-.3.5-.5.6-.5.1.1-.6.8-1.5 2.2-.8 1.4-1.7 3.5-1.8 5.9-.1 2.4.5 4.6 1.2 6.1s1.4 2.2 1.3 2.3zm10.1-17.6c.1.1-.6.8-1.2 2.1-.6 1.4-1.1 3.5-.8 5.8.2 2.3.9 4.3 1.4 5.7.5 1.4.9 2.3.8 2.4-.1 0-.5-.8-1.2-2.2-.6-1.4-1.4-3.4-1.6-5.8-.2-2.4.3-4.6 1-6 .4-.7.7-1.2 1-1.5.4-.4.6-.6.6-.5zm14.7 13.3s-.6-.6-1.4-1.8c-.8-1.2-1.6-3-2.2-5.2-.6-2.1-.7-4.1-.6-5.6.1-1.4.3-2.3.3-2.3.2 0-.3 3.6.8 7.7 1.1 4.3 3.2 7.1 3.1 7.2zm8.6-2.9c-.2 0 0-3.3-1.5-7.1-1.4-3.8-3.8-6.2-3.6-6.3 0 0 .7.5 1.5 1.5s1.8 2.6 2.6 4.6c.7 1.9 1 3.8 1.1 5.1.1 1.4-.1 2.2-.1 2.2z"/><path class="st17" d="M299.7 389.1c-30-9.2-51.2-17.5-78-17.4-12 0-22.4 2.7-29.8 12.2-8.1 10.3-8.4 25.5.1 35.5s21.4 15.1 34.2 18.4c12.7 3.3 25.9 5.1 38 10.3-4.3 1-4.9 7.5-2 10.8 2.9 3.3 7.7 4.1 12 4.6 17 2 34.2 2.5 51.2 1.4 12.1-.7 24.5-2.4 34.7-8.9 10.2-6.5 17.5-18.9 14.6-30.6M333 316.2l7.9 25.1 12.8-35.3c1.4-3.9 4.1-7.3 7.7-9.5 3.9-2.3 10.3-3.7 16.5-.1 12.7 7.4.1 34.7.1 34.7l-23.1 48.8c-1.9 4.4-5.8 7.7-10.5 8.7-4.1.9-9.4.9-15.1-2.1-12.7-6.7-18.3-59.1-18.3-59.1l22-11.2z"/><path class="st11" d="M376.1 335.6s-.1.2-.2.5c-.1.4-.3.9-.6 1.5-.6 1.3-1.4 3.3-2.4 5.7-1 2.5-2.3 5.5-3.8 9-.7 1.8-1.5 3.6-2.4 5.6-.8 2-1.8 4.1-2.9 6.2-1.1 2.1-2.3 4.3-3.6 6.6-.6 1.2-1.3 2.3-1.9 3.5-.6 1.2-1.3 2.5-2 3.7-1.5 2.4-3.3 4.8-5.5 6.8-2.3 2-5 3.7-8.1 4.6-3.1.9-6.6.9-9.8-.3-3.2-1.2-5.8-3.7-7.7-6.6-1.9-2.9-3.2-6.3-4.3-9.7-1.1-3.4-2.2-6.9-3.2-10.4-3.4-12.1-5.6-24-6.9-35.1v-.2l.2-.1c8-3.9 15.4-7.6 22.2-11l.2-.1.1.2c4.2 13.2 7.7 24.1 10.1 31.8 1.2 3.8 2.1 6.8 2.8 8.8.3 1 .5 1.8.7 2.3.2.5.2.8.2.8s-.1-.3-.3-.8c-.2-.5-.4-1.3-.8-2.3-.7-2-1.6-5-2.9-8.8-2.5-7.6-6-18.5-10.3-31.7l.3.1c-6.8 3.4-14.2 7.1-22.2 11l.1-.2c1.3 11 3.5 22.9 6.9 35 1 3.5 2 7 3.2 10.4 1.1 3.4 2.4 6.7 4.3 9.6 1.8 2.9 4.4 5.3 7.5 6.4 3.1 1.2 6.4 1.1 9.5.3 3-.8 5.7-2.5 7.9-4.5s4-4.3 5.5-6.7c.7-1.2 1.4-2.4 2-3.6.6-1.2 1.3-2.4 1.9-3.5 1.3-2.3 2.5-4.5 3.6-6.6 1.1-2.1 2.1-4.2 2.9-6.2.9-2 1.7-3.9 2.4-5.6 1.5-3.5 2.8-6.5 3.9-9s1.9-4.4 2.5-5.7c.3-.6.5-1.1.7-1.5l.2-.2z"/><path class="st11" d="M352.7 350.8s-.7-.6-1.8-1.7c-1-1.1-2.4-2.7-3.9-4.4-.7-.9-1.5-1.7-2.1-2.4-.7-.7-1.2-1.4-1.8-1.8-.6-.4-1.2-.3-1.5-.1-.3.2-.4.5-.4.4 0 0 0-.3.3-.6s1.1-.5 1.8-.1 1.3 1.1 2 1.8 1.4 1.6 2.2 2.4c1.5 1.8 2.8 3.4 3.7 4.5.9 1.3 1.5 2 1.5 2z"/><path class="st11" d="M355.4 302.8l-.5 1.5c-.4 1-1 2.4-1.6 4.1-1.4 3.4-3.3 8.1-5.3 13.4-2 5.2-3.7 10-4.9 13.5-.6 1.7-1 3.1-1.4 4.1-.3 1-.5 1.5-.6 1.5 0 0 .1-.6.4-1.6.3-1 .7-2.4 1.2-4.2 1.1-3.5 2.8-8.3 4.8-13.6 2-5.3 4-10 5.5-13.3.7-1.7 1.3-3.1 1.8-4 .3-.9.5-1.4.6-1.4zm26.1-2.5c-.1.1-1.1-.7-3-1.5-.9-.4-2.1-.8-3.4-1.1-1.3-.3-2.8-.4-4.4-.4-1.6 0-3.1.2-4.4.5-1.3.3-2.5.7-3.4 1.1-1.9.8-2.9 1.6-3 1.5 0 0 .2-.2.7-.6.2-.2.5-.4.9-.6.4-.2.8-.5 1.2-.7.9-.5 2.1-.9 3.5-1.3 1.4-.3 2.9-.6 4.5-.6s3.1.2 4.5.5 2.5.7 3.5 1.2c.5.2.9.5 1.3.7.4.2.7.4.9.6.4.5.6.7.6.7z"/><path class="st14" d="M372.2 339.9c-.1 0 .2-.5.2-1.3s-.2-2.1-1.1-3.3c-.8-1.2-2.4-2.3-4.3-2.9-1.9-.6-4.1-.8-6.4-1.1-2.3-.3-4.6-1.1-6.3-2.2-1.7-1.1-3-2.5-3.9-3.8-.9-1.3-1.3-2.5-1.6-3.3-.1-.4-.2-.7-.2-1 0-.2-.1-.3 0-.3s.4 1.9 2.2 4.4c.9 1.2 2.1 2.5 3.8 3.6 1.7 1.1 3.8 1.8 6.1 2.1 2.3.3 4.6.5 6.5 1.2 2 .6 3.6 1.8 4.4 3.1.9 1.3 1.1 2.7.9 3.5 0 .4-.1.8-.2 1-.1.3-.1.4-.1.3zm-27 9.4c.1 0-.1.5-.1 1.5s.2 2.4.9 4 1.9 3.4 3.3 5.2c1.4 1.8 3.2 3.9 4.2 6.4 1 2.6 1.1 5.3.7 7.6-.4 2.4-1.1 4.4-1.8 6-.7 1.6-1.4 2.9-2 3.7-.5.8-.8 1.3-.9 1.3 0 0 .2-.5.7-1.4.5-.9 1.1-2.2 1.8-3.8.7-1.6 1.4-3.6 1.7-5.9.3-2.3.2-4.9-.8-7.4s-2.7-4.5-4.1-6.3c-1.4-1.8-2.6-3.7-3.3-5.3-.7-1.7-.8-3.2-.8-4.2 0-.5.1-.9.2-1.1.3-.2.3-.3.3-.3zm-7.3-13.4s-.4.2-1.1.7c-.7.5-1.5 1.3-2.3 2.6-.8 1.2-1.4 2.9-2 4.7-.5 1.9-1 4-1.9 6.1-.5 1.1-1.1 2-1.8 2.9-.7.8-1.6 1.5-2.4 2-.9.5-1.8.9-2.6 1.1-.9.2-1.7.3-2.4.4-1.5 0-2.7-.3-3.5-.5-.4-.1-.7-.3-.9-.4-.2-.1-.3-.2-.3-.2 0-.1 1.7.9 4.7.8 1.4-.1 3.2-.5 4.8-1.5 1.7-1 3.1-2.6 4-4.7.9-2 1.4-4.2 1.9-6 .6-1.9 1.3-3.6 2.1-4.8.8-1.3 1.8-2.1 2.5-2.5.4-.2.7-.4.9-.4.1-.3.2-.3.3-.3zm46.5-26.6s-.3-.4-.8-.9c-.5-.6-1.4-1.3-2.7-1.9-1.3-.6-2.9-1-4.7-1.1-1.8-.1-3.9.2-6 .6-2.1.4-4.2.8-6.1.9-1.9.1-3.6-.1-5-.6-1.4-.4-2.4-1.1-3-1.6-.3-.3-.5-.5-.7-.6-.1-.2-.2-.2-.2-.3.1-.1 1.2 1.4 4 2.1 1.3.4 3 .6 4.9.5 1.9-.1 3.9-.5 6-.9s4.2-.7 6.1-.6c1.9.1 3.6.6 4.9 1.2 1.3.7 2.2 1.5 2.6 2.1.2.3.4.6.5.8.1.1.2.2.2.3z"/><path d="M341.2 341.4c2.1 6.3 4 12.5 6.1 18.8.2.6.9 1.4 1.4 1.9s1.3.7 1.8.3c.4-.3.5-.8.6-1.3.3-2 .1-4.2-.7-6.1.9.5 2.2 0 2.7-.8.6-.9.2-1.3-.2-2.3-.4-1-1.1-1.8-1.8-2.6-2.7-3.2-8.4-11.3-10.1-8.3m-21-44c10.6 3.8 21.1 1.5 32.2-4.1 1.9-.9 2.5-1.9 3.8-2.4 1.3-.6 2.3-2.1 3.3-1.1 1.2 1.1 1.1 3.1.3 4.5s-2.2 2.3-3.7 3.1c-11.1 6.3-30.7 5.7-35.9 0m-35.3 99c4.1 5.2 11.5 6.6 18.1 6.1 6.7-.5 13.3-2.6 20.1-2.6 1.6 0 3.2.5 4.5 1.5 1.8 1.4.9 2.5-3.2 4.8-1.4.8-2.7 1.7-4 2.7l-8.3 6.4c-5.8.2-10.4-1.5-15.5-4.4-4.7-2.7-9.4-6.7-10.3-12"/><path class="st14" d="M351 313.3c0 .1-.7-.6-2.1-1.2-1.4-.6-3.6-1.1-6.3-.8-2.7.3-5.8 1.5-9.2 2.8-1.7.6-3.5 1.3-5.5 1.7-2 .4-4 .5-6.1.5-4.2-.2-8.2-1.2-11.6-2.5-3.4-1.3-6.3-2.9-8.7-4.2-2.4-1.4-4.3-2.6-5.5-3.4-.6-.4-1.1-.7-1.5-1-.3-.2-.5-.4-.5-.4l.6.3c.4.2.9.5 1.5.9 1.3.8 3.2 1.9 5.6 3.3 2.4 1.3 5.3 2.8 8.7 4.1 3.4 1.3 7.3 2.3 11.4 2.5 2.1.1 4.1-.1 6-.4 1.9-.4 3.7-1 5.4-1.6 3.4-1.3 6.5-2.5 9.3-2.7 2.8-.3 5.1.3 6.4 1 1.5.4 2.1 1.1 2.1 1.1zm26.6 50.2c0 .1-.9-.2-2.3.1-1.4.2-3.1 1.1-5.1 2.1-2 1-4.1 1.4-5.5 1.1-.7-.1-1.3-.4-1.6-.6-.3-.2-.5-.4-.5-.4.1-.1.7.6 2.1.7 1.4.2 3.3-.3 5.2-1.2 1.9-1 3.8-1.8 5.3-2 1.6-.3 2.4.1 2.4.2zm-.7 22.8s-.1.1-.2.3c-.2.2-.4.5-.8.9-.7.7-1.9 1.7-3.4 2.7-1.6 1-3.6 1.9-6 2.4s-5.1.5-7.9.3c-2.8-.2-5.5-.3-7.8-.1-2.4.3-4.5 1-6 1.9-1.6.9-2.6 2-3.1 2.9-.6.8-.7 1.4-.8 1.4 0 0 0-.1.1-.4.1-.3.3-.6.5-1.1.5-.9 1.5-2.1 3.1-3.1s3.7-1.8 6.1-2.1c2.4-.3 5.1-.1 7.9 0 2.8.2 5.4.2 7.8-.3 2.4-.5 4.4-1.3 5.9-2.2 3.1-1.7 4.6-3.6 4.6-3.5zm-53.6 20s.6.7 1.9 1.8c1.3 1.1 3.5 2.3 6.4 3.1 2.9.8 6.6 1 10.6.7 4-.3 8.4-.9 13.1-.6 2.3.2 4.6.6 6.7 1.4 2.1.8 3.9 1.9 5.6 3.1 3.2 2.5 5.5 5.5 6.9 8.3 1.4 2.7 2 5.2 2.2 6.9.2.8.1 1.5.2 2v.7s-.1-.2-.1-.7c-.1-.4-.1-1.1-.3-1.9-.3-1.7-.9-4.1-2.3-6.8s-3.6-5.6-6.8-8c-1.6-1.2-3.4-2.3-5.4-3-2-.8-4.2-1.2-6.6-1.4-4.6-.3-9 .4-13.1.6-4 .3-7.7 0-10.7-.8-3-.8-5.2-2.1-6.5-3.3-1.3-1.3-1.8-2.1-1.8-2.1zm-7.7-3.5c-.1 0-.7-1.2-1.9-3s-3.1-4.2-5.6-6.4c-2.5-2.2-5.1-3.7-7.1-4.6-2-.9-3.3-1.3-3.2-1.4 0 0 .3 0 .9.2.6.2 1.4.5 2.5.9 2 .9 4.7 2.4 7.3 4.6 2.5 2.2 4.4 4.7 5.5 6.6.6.9 1 1.7 1.2 2.3.4.4.5.7.4.8zm5.7-28.6l-.6.6c-.4.4-1 .8-1.9 1.3-1.7.9-4.4 1.7-7.3 1.1-2.9-.5-5.2-2.2-6.4-3.6-.6-.7-1.1-1.4-1.3-1.8-.2-.5-.3-.7-.3-.8.1-.1.6 1 1.9 2.3 1.3 1.3 3.5 2.8 6.2 3.4 2.8.5 5.4-.2 7-.9 1.7-.9 2.6-1.7 2.7-1.6zm-8.1-31.4c0 .2-3.3-1.1-7.4-.8-4.2.2-7.2 2-7.3 1.8 0-.1.7-.5 2-1.1 1.3-.5 3.2-1.1 5.3-1.2 2.1-.1 4.1.2 5.4.5 1.3.3 2 .7 2 .8zm-22.9 9.4s-.2.3-.6.8c-.2.2-.4.5-.7.8-.3.3-.6.7-1.1 1-.8.8-1.9 1.5-3.1 2.3-1.3.7-2.7 1.4-4.3 2-1.6.5-3.2.8-4.7.9-1.5.1-2.8.1-3.9 0-.6 0-1-.2-1.5-.2-.4-.1-.8-.2-1.1-.3l-.9-.3c0-.1 1.3.3 3.5.4 1.1.1 2.4.1 3.8-.1s3-.5 4.6-1c1.6-.5 3-1.2 4.3-1.9 1.2-.7 2.3-1.5 3.1-2.2 1.7-1.2 2.5-2.3 2.6-2.2zm-5.4-18.1c0 .1-1.3-.1-3.4-.2-2.1-.1-5-.1-8.2.2-3.2.3-6 .9-8.1 1.4-2 .5-3.3.9-3.3.8 0 0 .3-.2.8-.4s1.4-.5 2.4-.8c2-.6 4.9-1.3 8.1-1.6 3.2-.3 6.2-.3 8.3-.1 1.1.1 1.9.2 2.5.3.6.3.9.4.9.4zm10.8-4.2c-.1.1-1.6-.8-3.6-1-2.1-.2-3.7.5-3.7.3-.1-.1 1.6-1 3.8-.8 2.2.2 3.6 1.4 3.5 1.5zm6.2 32.9c0 .1-.5.1-1.3.4-.8.3-1.9 1-2.8 2.2-1 1.2-1.7 2.9-2.4 4.8s-1.5 4.2-3.3 5.9c-1.8 1.7-4.2 2.4-6.3 2.6-2.1.1-4-.2-5.5-.7-1.5-.4-2.7-.9-3.5-1.2-.8-.3-1.3-.5-1.2-.6 0-.1 1.8.6 4.9 1.4 1.5.4 3.4.7 5.4.5 2-.2 4.3-.8 6-2.5 1.7-1.6 2.5-3.8 3.2-5.7.7-1.9 1.6-3.7 2.6-4.9 1-1.2 2.2-1.9 3-2.2.4-.1.8-.2 1-.2.1.2.2.2.2.2z"/><path class="st18" d="M257.5 300.3c-1.8-1.4-4.1-1.9-6.3-1.5-1.4.2-2.8 1-3.2 2.3-.5 1.5.5 3.1 1.9 3.8s2.9.8 4.5.9c.8 0 1.6.1 2.4.1.9 0 1.9.1 2.8-.4 1.3-.8 1.5-2.7.7-4-.8-1.3-2.4-1.9-3.9-1.9"/><path class="st18" d="M256.4 297l2.4 11.3c.7 3.3 1.1 6.5 4.3 7.8l.7 5.9 16.1-3.5-2.8-14.1-15.9-11.6-4.8 4.2zm10-7.7c-.1-2.2 1.2-5.6 2.9-8.5.7-1.2 1.5-2.5 2.6-3.3 1.2-.8 2.7-1.1 4.1-.6 1.3.5 1.8 1.3 1.8 2.3 0 1.1-.8 2.1-1.3 3-2 3.5-2.4 5.5-1.5 7.1"/><path class="st17" d="M256.2 291.4c.5 1.2 3.3 12.4 7 17.5 4.3 5.9 7 7.2 7 7.2l16.3-.5s11.7-7.7 11.7-25.4c0 0-3.3-4-21-3.3-11.9 0-16.8 2.1-21 4.5z"/><path class="st17" d="M263.8 309.2c-3.2 1.9-8.6 2.7-11.8.9-3.2-1.8-5.2-5.7-4.6-9.3.6-3.6 4.1-7.5 9.1-7.5l1.3 4.9s-6.9 1.4-4.9 5.5 7.7.2 7.7.2l3.2 5.3z"/><path class="st18" d="M248.6 289.6s-4 5 0 7.7 9.6 2.9 10.4 1.8c.8-1.1 1.9-3.5-.7-3.8-2.6-.4-9.7-5.7-9.7-5.7z"/><path class="st18" d="M263.8 288.3l-4-2.3-3.7-2c-1.9-.8-3.8-1.1-4.8-.8-1.9.7-3.1 3.2-3.1 5.2-.1 3.2 9.7 8.4 11.3 6.9 1.6-1.5 1.3-3.5-.2-4.4-1.5-.9-3.7-2.3-3.7-2.3l2.7 1.6 5.5-1.9z"/><path class="st19" d="M259.5 295.1s.1-.2.3-.4c.2-.3.4-.8.3-1.4 0-.6-.3-1.3-.8-1.9-.5-.6-1.2-1.2-1.9-1.9-2.8-2.7-5-5-4.9-5.1.1-.1 2.5 2 5.3 4.7.7.7 1.4 1.3 1.9 2s.8 1.5.8 2.2c0 .7-.3 1.2-.5 1.5-.3.2-.5.3-.5.3z"/><path class="st19" d="M260 294.8s0 .2-.3.5-.8.6-1.5.6-1.4-.2-2.3-.4c-.8-.3-1.7-.6-2.6-1.1-1.7-.9-3.1-2.2-3.9-3.2-.8-1-1.2-1.7-1.1-1.8.1-.1 1.9 2.6 5.3 4.5.8.5 1.7.8 2.5 1.1.8.3 1.5.5 2.1.5.6 0 1.1-.2 1.3-.4.4-.2.5-.4.5-.3z"/><path class="st11" d="M264.4 308.9c-.1 0 .2-.4.3-1 .1-.6.1-1.6-.4-2.4-.5-.8-1.4-1.2-2-1.4-.6-.1-1.1-.1-1.1-.2s.4-.3 1.1-.2c.7 0 1.8.5 2.4 1.4.6 1 .6 2.1.3 2.8-.2.7-.5 1-.6 1zm29.6-20.5s-.5 0-1.4-.2c-.9-.1-2.2-.3-3.8-.5-3.2-.4-7.6-.6-12.5-.4-4.9.1-9.3.5-12.4 1.3-1.6.4-2.8.8-3.6 1.1-.8.3-1.3.5-1.3.5s.4-.3 1.2-.6c.8-.4 2.1-.8 3.6-1.2 3.1-.9 7.6-1.4 12.5-1.5 4.9-.2 9.4.1 12.6.6 1.6.2 2.9.5 3.8.7.9 0 1.3.1 1.3.2z"/><path class="st19" d="M259.5 298.3s.1.2-.1.5-.6.7-1.2.9c-.6.2-1.4.2-2.1.1-.8 0-1.7-.1-2.6-.3-1.8-.3-3.4-1-4.4-1.7-1-.7-1.5-1.3-1.4-1.3.1-.1.6.4 1.6 1s2.5 1.2 4.3 1.5c.9.2 1.7.3 2.5.3s1.5.1 2 0 .9-.4 1.1-.6c.2-.3.3-.4.3-.4z"/><path d="M295.1 289.3c10.7 2.2-21.9 4.8-34.2 1.5-.3-.1-.3-.5 0-.6 3.2-1.1 15.6-4.8 34.2-.9z"/><path class="st18" d="M295.2 293.2c-1.1-2.4-1.5-5.1-1.2-7.7.2-1.5.7-3 1.9-4s3.1-1.1 4.1.1c.9 1.1.5 2.7.5 4.2 0 2.1.9 4.1 2.1 5.8 1.2 1.7 2.8 3.1 4.3 4.5"/><path class="st18" d="M331.4 317.2l-2.2-3.7c-.3-.7-8-13.1-8-13.1-6.3-3.4-13.9-6.2-22.5-8.8-2.1.2-17.5 2.1-19.5 2.6-3.3.9-2.4 4.4-1.3 4.3 2.6-.2 12.4-.5 12.4-.5l-13.4 2.5-2.9.7s-1.6.4-1.4 1.8c.2 2 1.3 2.6 3.4 2.6 2.2 0 18.6-1.8 18.6-1.8l-17.9 4.6s-2 .4-1.4 2.5c.5 1.8 2.5 2 5.2 1.7 0 0-.3.5-.2 1 .1.9.9 2.5 3.2 2.3 1.9-.1 25.2-.8 25.2-.8l3.2 12.6 19.5-10.5z"/><path class="st19" d="M299.5 295.7s-.4.2-1 .3c-.7.2-1.6.4-2.8.8-2.4.6-5.7 1.4-9.4 2.2-3.7.8-7 1.5-9.5 1.9-1.2.2-2.2.4-2.9.4-.7.1-1.1.1-1.1.1s.4-.1 1-.3c.8-.2 1.7-.4 2.9-.6 2.5-.6 5.8-1.3 9.4-2.1 3.6-.8 6.9-1.5 9.4-2.1 1.1-.2 2.1-.4 2.9-.6.7 0 1.1-.1 1.1 0zm-.9 7c0 .1-4.8 1.5-10.9 3.1-6.1 1.6-11 2.8-11 2.6 0-.1 4.8-1.5 10.9-3.1 6-1.6 10.9-2.7 11-2.6zm-1.3 7.2c0 .1-3.9.9-8.7 1.7-4.9.8-8.8 1.3-8.8 1.1 0-.1 3.9-.9 8.7-1.7 4.8-.8 8.7-1.3 8.8-1.1zm-12.2-16.6s.4-.1 1-.2c.8-.1 1.7-.3 2.8-.4 2.4-.3 5.7-.8 9.4-1.2h.2c.2.1.5.2.8.3 3.7 1.2 7.1 2.4 9.5 3.2 1.1.4 2.1.8 2.9 1 .7.3 1 .4 1 .4s-.4-.1-1.1-.3c-.8-.2-1.8-.5-2.9-.9-2.5-.8-5.8-1.9-9.6-3.1-.3-.1-.5-.2-.8-.3h.1c-3.7.5-7 .8-9.4 1.1-1.1.1-2.1.2-2.8.3-.8.1-1.1.1-1.1.1z"/><path class="st11" d="M294.1 291.2s-.5.2-1.3.4-2.1.5-3.6.7c-3.1.5-7.3 1-12.1.9-4.7-.1-9-.7-12-1.3-1.5-.3-2.7-.6-3.6-.9-.8-.2-1.3-.4-1.3-.4s.5 0 1.3.2 2.1.4 3.6.7c3 .5 7.3 1.1 12 1.2 4.7.1 8.9-.3 12-.7 1.5-.2 2.8-.4 3.6-.6.9-.2 1.4-.3 1.4-.2zm-14.2-8.1c-.1 0 .5-.4.7-1.4.2-1 0-2.5-.8-4.1-.4-.8-1-1.6-1.5-2.6s-.9-2.2-.7-3.4c.4-2.7 3.3-4.1 4.1-6.7.4-1.3.4-2.7.1-3.9-.3-1.2-1.1-2.2-1.9-3.2-.7-.9-1.5-1.9-1.8-3-.4-1.1-.3-2.1-.1-3.1.4-1.8 1.2-3.1 1.8-4 .6-.9.9-1.3.9-1.3s-.3.5-.8 1.4c-.5.9-1.2 2.2-1.6 4-.2.9-.1 1.9.2 2.9.3 1 1 1.9 1.8 2.8.7.9 1.6 2 2 3.3.4 1.3.4 2.8 0 4.2-.4 1.4-1.4 2.5-2.3 3.5-.9 1-1.6 2-1.8 3.1-.2 1.1.2 2.2.6 3.2.5 1 1 1.8 1.4 2.6.8 1.7 1 3.3.7 4.3-.1.5-.4.9-.6 1.1-.3.2-.4.3-.4.3z"/><path class="st11" d="M284.7 283.1c-.1 0 .5-.4.7-1.4.2-1 0-2.5-.8-4.1-.4-.8-1-1.6-1.5-2.6s-.9-2.2-.7-3.4c.4-2.7 3.3-4.1 4.1-6.7.4-1.3.4-2.7.1-3.9-.3-1.2-1.1-2.2-1.9-3.2-.7-.9-1.5-1.9-1.8-3-.4-1.1-.3-2.1-.1-3.1.4-1.8 1.2-3.1 1.8-4 .6-.9.9-1.3.9-1.3s-.3.5-.8 1.4c-.5.9-1.2 2.2-1.6 4-.2.9-.1 1.9.2 2.9.3 1 1 1.9 1.8 2.8.7.9 1.6 2 2 3.3.4 1.3.4 2.8 0 4.2-.4 1.4-1.4 2.5-2.3 3.5-.9 1-1.6 2-1.8 3.1-.2 1.1.2 2.2.6 3.2.5 1 1 1.8 1.4 2.6.8 1.7 1 3.3.7 4.3-.1.5-.4.9-.6 1.1-.3.2-.4.3-.4.3z"/><path class="st16" d="M174.5 406.4c5.5-14.5 17.1-26.5 31.1-33.3 14-6.8 30.1-8.7 45.5-6.3 12.3 1.9 24.6 6.9 32.7 16.2 6.9 7.9 10.7 18.7 19.4 24.8 10.8 7.6 25.5 5.2 38.5 2.9 13-2.3 28.1-3.5 37.9 5.4 6.3 5.7 9.5 15.1 17.4 18.2 9.1 3.6 21.1-2.7 28.6 3.6 5.5 4.6 4.7 13.9.1 19.5-4.5 5.6-11.6 8.4-18.4 10.7-26.7 9.3-54.5 15.8-82.7 17.8-17.8 1.2-36.6.5-52.1-8.6-7.3-4.3-13.6-10.2-21.4-13.3-18-7-37.6 2.9-56.4 7.2-16.6 3.8-34.5 2.9-50-4.1-8.5-3.9-17-10.9-17.2-20.2-.2-10.8 10.2-18.3 19.4-23.8 9.6-5.7 19.1-11.4 28.7-17.1"/><path class="st11" d="M320.3 417.8s-.3 0-.7.1c-.5 0-1.2 0-2.1.1-1.8.1-4.4.4-7.6 1.1-3.2.6-6.9 1.7-11 3.1-4.1 1.4-8.5 3-13.3 4.7-4.7 1.6-9.3 3-13.6 3.8-4.3.8-8.2 1.2-11.5 1.1-3.3-.1-5.9-.5-7.7-1-.9-.2-1.6-.5-2-.6-.5-.1-.7-.2-.7-.3 0 0 .3 0 .7.2.5.1 1.1.3 2 .5 1.8.4 4.4.8 7.7.8 3.3.1 7.1-.3 11.4-1.2 4.2-.9 8.8-2.2 13.5-3.8 4.7-1.6 9.2-3.3 13.3-4.6 4.1-1.3 7.9-2.4 11.1-3 3.2-.6 5.9-.9 7.7-.9.9-.1 1.6 0 2.1 0 .5-.1.7-.1.7-.1zm-114.4 13.3s-.2.1-.5.1c-.3.1-.8.2-1.4.2-1.2.2-2.9.2-5 0s-4.6-.8-7.2-2c-2.6-1.2-5.2-2.9-7.4-5.3s-3.7-5.2-4.7-7.9c-.9-2.7-1.3-5.2-1.4-7.4 0-2.1.2-3.9.5-5 .1-.6.3-1 .3-1.3.1-.3.1-.5.2-.4.1 0-.8 2.6-.6 6.8.1 2.1.5 4.6 1.4 7.2.9 2.6 2.5 5.3 4.6 7.7 2.2 2.3 4.7 4.1 7.2 5.3 2.5 1.2 5 1.8 7 2.1 4.4.5 7-.2 7-.1zm69.2-40.7s-.2.1-.5.1c-.4.1-.9.2-1.4.3-1.2.2-3 .6-5.3 1.1-4.4 1-10.5 2.6-16.9 5-6.5 2.4-12.1 5.2-16.1 7.3-2 1.1-3.6 2-4.7 2.6-.5.3-.9.5-1.3.7-.3.2-.5.2-.5.2s.1-.1.4-.3c.3-.2.7-.5 1.2-.8 1.1-.7 2.6-1.7 4.6-2.8 3.9-2.2 9.6-5.1 16.1-7.5 6.5-2.4 12.6-4 17-4.9 2.2-.4 4-.8 5.3-.9.6-.1 1.1-.1 1.4-.2.5.1.7.1.7.1zm107.7 53.4l-.3.3c-.2.2-.5.4-.8.7-.4.3-.8.7-1.4 1.2-.5.5-1.2 1-1.9 1.6-2.9 2.3-7.4 5.4-13.3 8.4-1.5.8-3.1 1.5-4.7 2.3-1.7.7-3.4 1.4-5.2 2.2-3.7 1.3-7.7 2.6-12 3.6-8.6 2.1-18.2 3.2-28.4 3.1-10.2-.2-19.8-1.6-28.4-3.6-8.6-2-16.1-4.4-22.4-6.8-6.2-2.3-11.2-4.5-14.5-6.1-1.7-.8-3-1.4-3.9-1.8-.4-.2-.7-.4-1-.5-.2-.1-.3-.2-.3-.2s.1 0 .4.1c.3.1.6.3 1 .4.9.4 2.2 1 3.9 1.8 3.4 1.5 8.3 3.6 14.6 5.9 6.2 2.3 13.8 4.7 22.3 6.7 8.6 2 18.1 3.3 28.3 3.6 10.1.2 19.8-1 28.3-3 4.3-1 8.2-2.3 11.9-3.6 1.8-.7 3.6-1.4 5.2-2.1 1.6-.8 3.3-1.4 4.7-2.2 5.9-3 10.4-6 13.3-8.3.8-.5 1.4-1.1 1.9-1.5.5-.4 1-.8 1.4-1.1.4-.3.7-.5.9-.7l.4-.4zm40.4 1.1c0 .1-.8-.6-2.5-1.1-1.7-.5-4.4-.6-7.4.2-3.1.8-6.6 2.4-10.4 4.3-3.8 1.9-7.8 4.3-12.1 6.7-4.3 2.4-8.5 4.6-12.4 6.1-4 1.6-7.7 2.6-10.9 3.2-3.2.5-5.8.6-7.6.5-.9 0-1.6-.1-2.1-.2s-.7-.1-.7-.1c0-.1 1 .1 2.8.1 1.8 0 4.4-.1 7.5-.6 3.1-.6 6.8-1.6 10.8-3.2 3.9-1.6 8.1-3.8 12.3-6.2 8.5-4.8 16.3-9.2 22.6-10.9 3.1-.8 5.9-.7 7.6-.1.9.3 1.5.6 1.9.9.4.2.6.3.6.4z"/><path class="st14" d="M291.4 423.8s-.3-.1-.9-.2c-.6-.1-1.4-.4-2.5-.6-2.1-.6-5.2-1.6-8.8-3.2-3.6-1.7-7.7-4-11.9-7.2-2.1-1.6-4.1-3.4-6.2-5.4-2-2-4-4.2-5.7-6.7-7.6-9.5-9.4-21-14.7-27-2.5-3-5.3-4.8-7.4-5.5-1-.4-1.9-.5-2.4-.6-.6-.1-.9-.1-.9-.1s.3 0 .9.1c.6.1 1.4.2 2.5.6 2.1.7 4.9 2.4 7.5 5.5 5.4 6 7.2 17.5 14.8 27 1.8 2.4 3.8 4.6 5.7 6.6 2 2 4.1 3.8 6.1 5.4 4.1 3.2 8.2 5.5 11.8 7.2 3.6 1.7 6.6 2.6 8.7 3.3 1 .3 1.9.5 2.5.6.6.1.9.2.9.2zm82.5 26.9s-.2-.2-.5-.6c-.3-.5-.8-1.1-1.3-1.8-.3-.4-.6-.8-.9-1.3l-1.2-1.5c-.9-1-1.8-2.3-3-3.5-.6-.6-1.2-1.3-1.9-2s-1.4-1.3-2.1-2c-1.5-1.4-3.2-2.7-5-4.2-3.7-2.7-7.9-5.5-12.6-7.8-4.8-2.3-9.5-3.9-13.9-5.1-2.2-.5-4.3-1-6.4-1.3-1-.1-2-.3-2.9-.4-.9-.1-1.8-.2-2.7-.2-1.7-.2-3.3-.2-4.7-.2h-1.9c-.6 0-1.1.1-1.6.1-.9 0-1.7.1-2.2.1h-.8s.3 0 .8-.1c.6 0 1.3-.1 2.2-.1.5 0 1-.1 1.6-.1h1.9c1.4 0 2.9 0 4.7.2.9.1 1.8.1 2.7.2.9.1 1.9.3 2.9.4 2 .2 4.1.8 6.4 1.3 4.4 1.2 9.2 2.8 14 5.1 4.7 2.3 9 5.1 12.7 7.8 1.8 1.4 3.5 2.8 5 4.2.7.7 1.5 1.3 2.1 2 .6.7 1.3 1.4 1.9 2 1.2 1.2 2.2 2.5 3 3.6l1.2 1.5c.3.5.6.9.9 1.3.5.8.9 1.4 1.3 1.8.1.4.3.6.3.6zm6.3 8.7s-.2 0-.6.1c-.4 0-.9.1-1.5.1-1.3 0-3.1-.2-5-.9s-3.5-1.6-4.5-2.4c-.5-.4-.9-.7-1.2-1l-.4-.4s.2.1.4.4c.3.2.7.6 1.2 1 1 .8 2.6 1.7 4.5 2.3 1.9.7 3.7.9 4.9 1h1.5c.5-.2.7-.2.7-.2zm26.3 9.9s.1-.3.4-.9c.2-.6.5-1.5.7-2.6.4-2.2.2-5.5-1.5-8.5s-4.4-4.8-6.5-5.6c-1-.4-1.9-.6-2.5-.7-.6-.1-1-.1-1-.2 0 0 .4 0 1 .1s1.5.3 2.6.7c2.1.8 4.9 2.6 6.6 5.6 1.7 3.1 1.9 6.4 1.4 8.6-.2 1.1-.5 2-.7 2.6-.3.6-.5.9-.5.9zm-63.8-8.5s-2.5-.2-7-.8c-4.5-.6-11-1.5-19.1-3-16-2.9-38-8-61.5-16.3-11.7-4.2-22.5-9.3-31.4-15.3-9-6-15.9-12.9-20.8-19.5-2.4-3.3-4.3-6.4-5.8-9.3-1.5-2.9-2.5-5.5-3.3-7.6-.7-2.2-1.2-3.9-1.5-5-.3-1.2-.4-1.8-.4-1.8s.2.6.5 1.8c.3 1.2.8 2.9 1.5 5 .8 2.1 1.8 4.7 3.3 7.6 1.5 2.9 3.4 6 5.9 9.3 4.9 6.5 11.8 13.5 20.8 19.4 8.9 6 19.7 11.1 31.4 15.3 23.4 8.3 45.4 13.5 61.4 16.4 8 1.5 14.5 2.4 19 3 4.2.5 6.3.7 7 .8zm-.8 4h1c.7 0 1.6.2 2.8.5 2.3.6 5.4 2.2 7.6 5.1 2.2 2.9 2.9 6.3 2.9 8.7 0 1.2-.1 2.1-.3 2.8-.1.6-.3 1-.3 1v-.3c0-.2.1-.4.1-.7.1-.6.2-1.6.2-2.8 0-2.3-.7-5.7-2.9-8.6-2.2-2.9-5.2-4.5-7.4-5.1-1.1-.3-2.1-.5-2.7-.5-.3 0-.6 0-.8-.1h-.2z"/><path d="M307.6 410.8c-4.6-2.4-9.5-6.4-12.7-11.7l-3.2 1.1c-12.4 4.2-24.8 8.3-37.1 12.5-3.1 1-6.3 2.1-8.7 4.3-2.5 2.1-4 5.6-3 8.7 1.4 4.1 6.5 5.6 10.9 5.8 11 .6 21.8-2.5 32.3-5.5 12.1-3.5 30.2-9.1 42.2-13.3-9.9 1.1-15.2 1-20.7-1.9z"/><path class="st14" d="M234 461.2s-5.1-.8-13.2-2.6c-4.1-.9-8.9-2-14.2-3.7-5.3-1.6-10.9-3.8-16.5-6.9-5.6-3.1-10.4-6.9-14.3-10.8-3.8-4-6.7-8.1-8.5-11.9-1.9-3.7-2.9-7-3.3-9.3-.3-1.1-.3-2-.5-2.6-.1-.6-.1-.9-.1-.9s.1.3.2.9c.1.6.2 1.5.5 2.6.5 2.3 1.5 5.5 3.4 9.2 1.9 3.7 4.7 7.8 8.5 11.8 3.8 3.9 8.7 7.7 14.2 10.8 5.6 3 11.2 5.2 16.5 6.9 5.3 1.6 10.1 2.8 14.2 3.7 4.1.9 7.4 1.5 9.7 2 1.1.2 2 .4 2.6.5.5.3.8.3.8.3zm-35 9.1s-.3 0-.9.1c-.6.1-1.5.1-2.6.2-2.2.2-5.5.4-9.5.5-4 .1-8.8 0-14.1-.8-5.3-.8-11-2.4-16.5-5.2-5.4-2.9-10-6.8-13-11.2-3-4.4-4.5-9.1-5-13.1s0-7.3.7-9.5c.2-.5.3-1 .4-1.4.1-.4.3-.7.4-1 .2-.5.4-.8.4-.8s-.1.3-.3.8c-.1.3-.3.6-.4 1-.1.4-.3.9-.4 1.4-.6 2.2-1.1 5.4-.6 9.4.5 4 2 8.7 5 13 3 4.4 7.5 8.3 13 11.2 5.4 2.8 11.1 4.4 16.4 5.2 5.3.8 10.1.9 14.1.9 4-.1 7.3-.3 9.5-.4 1.1-.1 2-.1 2.6-.2.5-.1.8-.1.8-.1z"/><path class="st16" d="M139.4 459.2s-.2.1-.5.2-.7.2-1.3.4c-1.1.3-2.6.7-4.3 1-1.7.3-3.3.5-4.4.6-.6 0-1 .1-1.3.1h-.5s.2 0 .5-.1c.4 0 .9-.1 1.3-.1 1.1-.1 2.7-.3 4.4-.7 1.7-.3 3.2-.7 4.3-1 .4-.1.9-.2 1.3-.3.3 0 .5-.1.5-.1zm4 4.1c0 .1-2.7.9-6 1.9-3.3 1-6 1.7-6.1 1.7 0-.1 2.7-.9 6-1.9 3.4-1 6.1-1.8 6.1-1.7zm7.3 3.5c0 .1-3.2.8-7.3 1.6-4 .8-7.3 1.5-7.3 1.4 0-.1 3.2-.8 7.3-1.6 4-.8 7.3-1.4 7.3-1.4zm9.2 1.7l-.6.3c-.4.2-.9.4-1.6.6-1.4.5-3.4 1.1-5.6 1.5-2.2.4-4.3.6-5.8.7h-2.4.6c.4 0 1 0 1.8-.1 1.5-.1 3.5-.3 5.8-.7 2.2-.4 4.2-1 5.6-1.5.7-.2 1.3-.4 1.7-.6.3-.1.5-.2.5-.2zm4.3 2.5s-.2.1-.5.3c-.3.2-.8.4-1.4.6-1.2.5-2.9 1.1-4.8 1.7-1.9.6-3.7 1-5 1.2-.6.1-1.2.2-1.5.3-.4.1-.6.1-.6.1s.2-.1.6-.1l1.5-.3c1.3-.3 3-.7 4.9-1.3 1.9-.6 3.6-1.2 4.8-1.6.5-.2 1-.4 1.4-.6l.6-.3zm9.8.1s-.2.1-.5.3c-.3.2-.9.4-1.5.7-1.3.6-3.1 1.3-5.1 1.9-2 .7-3.9 1.1-5.2 1.4-.7.1-1.2.3-1.6.3-.4.1-.6.1-.6.1s.2-.1.6-.2c.5-.1 1-.2 1.6-.4 1.3-.3 3.2-.8 5.2-1.5s3.8-1.3 5.1-1.9l1.5-.6c.3-.1.5-.1.5-.1zm5.5.7c0 .1-2.3 1.3-5.1 2.9-2.8 1.5-5.2 2.7-5.2 2.7 0-.1 2.3-1.3 5.1-2.9 2.9-1.6 5.2-2.8 5.2-2.7zm8.6-1.5c0 .1-2.9 1.4-6.5 3s-6.5 2.8-6.6 2.8 2.9-1.4 6.5-3 6.6-2.8 6.6-2.8zm5.7.7s-.1.1-.4.3c-.4.2-.7.4-1.1.6-.9.5-2.1 1.3-3.4 2.2-1.3.9-2.5 1.8-3.3 2.4-.3.3-.7.5-1 .8-.2.2-.4.3-.4.3l.3-.3c.2-.2.5-.5.9-.8.8-.7 1.9-1.6 3.3-2.5 1.3-.9 2.6-1.6 3.5-2.2.5-.3.8-.5 1.1-.6.4-.1.5-.2.5-.2zm16.5-5.8s-1.9 1.8-4.3 3.9c-2.4 2.1-4.4 3.8-4.4 3.7s1.9-1.8 4.3-3.9c2.4-2.1 4.3-3.8 4.4-3.7zm8.9-1.9s-.1.1-.4.3c-.4.2-.7.5-1.1.8-1 .7-2.2 1.6-3.6 2.8-1.3 1.2-2.4 2.4-3.2 3.2-.3.4-.6.7-.9 1.1-.2.3-.3.4-.3.4s.1-.2.3-.4c.2-.3.5-.6.8-1.1.7-.9 1.8-2.1 3.1-3.3 1.3-1.2 2.6-2.1 3.6-2.8.5-.3.9-.6 1.2-.7.3-.3.4-.4.5-.3zm3.6-1.1s-1.8 2-4.1 4.5c-2.3 2.4-4.2 4.4-4.2 4.3 0 0 1.8-2 4.1-4.5 2.3-2.4 4.2-4.4 4.2-4.3zm-27.9 13.4s2-2 4.5-4.4c2.5-2.4 4.6-4.3 4.6-4.3s-2 2-4.5 4.4c-2.5 2.4-4.6 4.3-4.6 4.3zm37.8-14.3s-.2.1-.5.2-.8.3-1.3.6c-1.1.5-2.6 1.4-4.1 2.5-1.5 1.2-2.7 2.4-3.5 3.3-.4.5-.7.9-.9 1.1-.2.3-.3.4-.3.4s.1-.2.3-.5c.2-.3.5-.7.9-1.2.8-1 2-2.2 3.4-3.4 1.5-1.2 3-2 4.1-2.5.6-.3 1-.4 1.4-.6.3.1.5.1.5.1zm90.3 30h-.8c-.5 0-1.2-.1-2.2-.3-1.8-.3-4.3-.9-6.8-2.1-2.5-1.2-4.7-2.6-6.1-3.8-.7-.6-1.3-1.1-1.6-1.5l-.4-.4c-.1-.1-.1-.2-.1-.2s.1 0 .2.1l.4.4c.4.4.9.8 1.6 1.4 1.4 1.1 3.5 2.6 6 3.7 2.5 1.2 5 1.8 6.8 2.2.9.2 1.6.3 2.1.3.2 0 .4.1.6.1.3 0 .3.1.3.1zm9.8-1h-.6c-.4 0-1 0-1.7-.1-1.4-.1-3.4-.5-5.4-1.2-2.1-.7-3.8-1.6-5-2.4-.6-.4-1.1-.7-1.4-.9-.3-.2-.5-.4-.5-.4s.2.1.5.3c.3.2.8.5 1.4.9 1.2.7 3 1.6 5 2.3 2.1.7 4 1.1 5.4 1.3.7.1 1.3.1 1.7.2.4-.1.6 0 .6 0zm5.5-1.2s-.2 0-.6-.1c-.4-.1-.9-.2-1.6-.4-1.3-.4-3.1-1-5-1.8s-3.6-1.7-4.8-2.4c-.6-.4-1.1-.7-1.4-.9-.3-.2-.5-.3-.5-.4 0 0 .2.1.5.3.4.3.9.5 1.4.8 1.2.7 2.9 1.6 4.8 2.4 1.9.8 3.7 1.4 5 1.8.6.2 1.1.3 1.6.5.4.1.6.2.6.2zm9.1-.4c0 .1-3.5-1.1-7.7-2.6s-7.6-2.8-7.6-2.8c0-.1 3.5 1.1 7.7 2.6 4.2 1.4 7.6 2.7 7.6 2.8zm7-.8c0 .1-3.5-1.1-7.8-2.5s-7.7-2.6-7.7-2.7c0-.1 3.5 1.1 7.8 2.5 4.2 1.4 7.7 2.6 7.7 2.7zm9.5-1c0 .1-4.2-.9-9.4-2.2-5.2-1.3-9.4-2.3-9.4-2.4 0-.1 4.2.9 9.4 2.2 5.2 1.3 9.4 2.3 9.4 2.4zm7.8-2.8c0 .1-3.2-.7-7.2-1.7-3.9-1-7.1-1.8-7.1-1.9 0-.1 3.2.7 7.2 1.7 3.9 1 7.1 1.8 7.1 1.9zm10.1-2.9c0 .1-3.8-.4-8.4-.9-4.6-.6-8.4-1.1-8.4-1.1 0-.1 3.8.3 8.4.9 4.6.6 8.4 1.1 8.4 1.1zm12.2-1.6c0 .1-5.2-.6-11.5-1.5-6.4-.9-11.5-1.6-11.5-1.7 0-.1 5.2.6 11.5 1.5 6.4.9 11.5 1.6 11.5 1.7zm5.8-3.6c0 .1-4.3 0-9.5-.2-5.3-.1-9.5-.3-9.5-.4 0-.1 4.3 0 9.5.2s9.5.3 9.5.4zm13.3-2.4c0 .1-5.6-.2-12.4-.7-6.9-.4-12.4-.8-12.4-.9s5.6.2 12.4.7c6.9.4 12.4.8 12.4.9zm6.8-2.5c0 .1-4.1-.1-9.2-.3-5.1-.2-9.2-.4-9.2-.5 0-.1 4.1.1 9.2.3 5.1.2 9.2.4 9.2.5zm9-5.5c0 .1-3.9.1-8.7.2h-8.7c0-.1 3.9-.1 8.7-.2 4.8-.1 8.7-.1 8.7 0zm5.5-4.5c0 .1-3.9.5-8.6 1-4.8.5-8.7.8-8.7.7 0-.1 3.9-.5 8.6-1 4.9-.4 8.7-.8 8.7-.7zm2.9-4.1s-.2.1-.7.2c-.4.1-1.1.3-1.9.5-1.6.4-3.8.8-6.3 1-2.5.3-4.7.3-6.4.3-.8 0-1.5 0-1.9-.1-.5 0-.7 0-.7-.1s.3 0 .7 0h1.9c1.6 0 3.9-.1 6.4-.4 2.5-.3 4.7-.7 6.3-1 .7-.1 1.3-.3 1.9-.4h.7zm-.4-4.2c0 .1-2.6.4-5.8.8-3.2.4-5.8.7-5.8.6 0-.1 2.6-.4 5.8-.8 3.2-.4 5.8-.7 5.8-.6zm-.5-4c0 .1-2.2.6-5 1.1-2.8.6-5 1-5 .9 0-.1 2.2-.6 5-1.1 2.8-.6 5-1 5-.9zm.3-3.5c0 .1-2 .6-4.5 1.1-2.5.6-4.5 1-4.5.9 0-.1 2-.6 4.5-1.1 2.5-.6 4.5-1 4.5-.9zm.2-2.9c0 .1-2.1.6-4.7 1.1-2.6.6-4.8 1-4.8.9 0-.1 2.1-.6 4.7-1.1 2.7-.5 4.8-1 4.8-.9zm-4.2-3.5s-.5.1-1.2.1c-.7.1-1.8.2-2.9.5-1.1.3-2.1.6-2.8.9-.7.3-1.1.5-1.1.5s.4-.3 1.1-.6c.7-.3 1.7-.7 2.8-1 1.1-.3 2.2-.4 2.9-.4h1.2z"/></g><g id="Plant"><path class="st17" d="M82.2 251.5c-11.7-17.9-11.3-44.1 2.7-60.3 4.3-5 10.4-9.4 17-8.8 6.8.6 12.2 6.4 14.3 12.9 2.1 6.5 1.3 13.5.1 20.2-1.7 9.4-4.5 19-11 25.9-6.5 6.9-14.8 14.7-23.1 10.1m5.2 85.6c-4.4-10.3-1.2-23.3 7.5-30.4 2.7-2.2 6.2-3.9 9.6-3 3.4.9 5.7 4.4 6.2 7.9s-.5 7.1-1.8 10.4c-1.7 4.7-4.1 9.4-8 12.4-4 3-9.6 5.9-13.5 2.7M59.2 331c3.2-15.9-5.1-33.4-19.5-40.9-4.5-2.3-10-3.7-14.5-1.4-4.6 2.3-6.8 7.9-6.5 13.1.4 5.1 2.8 9.9 5.6 14.2 3.8 6.1 8.5 12.1 15 15.1 6.5 3.1 15.3 5.5 19.9-.1m2-42.9c5.6-18.1-3.9-40-19.7-50.4-4.9-3.2-11.1-5.5-16.6-3.4-5.6 2.1-8.9 8.4-9 14.4-.2 6 2.1 11.8 4.8 17.2 3.7 7.6 8.5 15 15.7 19.4 7.1 4.3 18.8 8.7 24.8 2.8"/><path class="st11" d="M72.4 376.5s-.1-.3-.2-.9c-.1-.7-.2-1.5-.4-2.5l-.3-1.8c-.1-.7-.3-1.4-.4-2.2-.3-1.5-.6-3.3-1.1-5.2-.2-1-.5-2-.7-3-.3-1-.6-2.1-.9-3.2-.6-2.2-1.5-4.6-2.3-7-1.9-4.9-4.2-10.2-7-15.5-2.9-5.3-6-10.1-9-14.4-1.6-2.1-3-4.1-4.6-5.8-.7-.9-1.5-1.7-2.2-2.6-.7-.8-1.4-1.5-2.1-2.3-1.3-1.5-2.6-2.7-3.7-3.8-.6-.5-1.1-1.1-1.6-1.5-.5-.4-1-.8-1.4-1.2-.8-.7-1.4-1.3-1.9-1.7l-.6-.6s.3.2.7.5c.5.4 1.2.9 2 1.6.4.4.9.8 1.4 1.2.5.5 1 1 1.6 1.5 1.2 1.1 2.5 2.3 3.8 3.7.7.7 1.4 1.5 2.2 2.3.7.8 1.4 1.7 2.2 2.6 1.6 1.7 3 3.8 4.7 5.8 3.1 4.2 6.3 9.1 9.2 14.4 2.8 5.4 5.1 10.7 7 15.6.8 2.5 1.7 4.8 2.3 7.1l.9 3.3c.2 1.1.5 2.1.7 3 .5 1.9.7 3.7 1 5.3.1.8.2 1.5.4 2.2.1.7.1 1.3.2 1.8.1 1 .2 1.9.2 2.5 0 .5 0 .8-.1.8z"/><path class="st11" d="M72 379.7v-.4c0-.3 0-.6.1-1 .1-1 .2-2.3.4-4 .1-.9.2-1.8.3-2.9.1-1.1.1-2.2.2-3.5.1-2.5.3-5.3.2-8.4v-4.9c0-1.7-.2-3.5-.3-5.3-.1-3.7-.6-7.6-1.1-11.7-1.1-8.2-2.9-17.1-5.6-26.3-2.8-9.1-6.2-17.6-9.7-25.1-1.9-3.7-3.6-7.2-5.5-10.4-.9-1.6-1.8-3.2-2.7-4.6-.9-1.4-1.8-2.8-2.7-4.1-1.6-2.7-3.4-4.9-4.8-6.9-.7-1-1.4-2-2-2.8-.7-.8-1.3-1.6-1.8-2.3-1.1-1.3-1.9-2.4-2.5-3.2-.3-.3-.5-.6-.6-.8-.1-.2-.2-.3-.2-.3l.3.3c.2.2.4.5.7.8.6.8 1.5 1.8 2.6 3.1.6.7 1.2 1.4 1.9 2.2.7.8 1.3 1.8 2.1 2.8 1.5 2 3.2 4.2 4.9 6.9.9 1.3 1.8 2.7 2.7 4.1.9 1.4 1.8 3 2.7 4.6 1.9 3.2 3.7 6.7 5.6 10.4 3.6 7.5 7 16 9.8 25.2 2.7 9.2 4.4 18.2 5.5 26.4.4 4.1.9 8.1 1 11.8.1 1.8.2 3.6.2 5.3v4.9c.1 3.1-.2 6-.4 8.5-.1 1.2-.1 2.4-.2 3.5s-.2 2-.4 2.9c-.2 1.7-.4 3-.5 4-.1.4-.1.8-.2 1 .1.1 0 .2 0 .2z"/><path class="st11" d="M102.5 204s0 .1-.1.3c-.1.3-.3.6-.5.9-.5.9-1.2 2.1-2 3.6-.4.8-.9 1.6-1.4 2.6l-1.6 3.2c-.6 1.1-1.2 2.3-1.8 3.6-.6 1.3-1.2 2.7-1.8 4.1-.6 1.5-1.3 3-2 4.6-.6 1.6-1.3 3.3-1.9 5-.3.9-.7 1.8-1 2.7-.3.9-.6 1.8-.9 2.8-.6 1.9-1.3 3.8-2 5.8-2.5 8-4.8 17-6.8 26.5-1.9 9.5-3.3 18.7-4.3 27-.9 8.4-1.5 15.9-1.7 22.3-.2 3.2-.2 6.1-.2 8.6s-.1 4.7 0 6.5c0 1.7 0 3.1.1 4.1v1.5s0-.1-.1-.4c0-.3 0-.6-.1-1.1 0-1-.1-2.4-.2-4.1-.1-1.8-.1-4-.1-6.5s0-5.4.1-8.6c.1-6.4.7-13.9 1.5-22.3 1-8.4 2.3-17.5 4.2-27.1 2-9.5 4.4-18.5 6.9-26.5.7-2 1.3-3.9 2-5.8.3-.9.6-1.9 1-2.8.4-.9.7-1.8 1-2.7.7-1.7 1.4-3.4 2-5 .7-1.6 1.4-3.1 2-4.6.7-1.4 1.3-2.8 1.9-4.1.7-1.3 1.3-2.5 1.9-3.6.6-1.1 1.1-2.2 1.6-3.1.5-1 1.1-1.8 1.5-2.6.9-1.5 1.6-2.7 2.1-3.5.2-.4.4-.7.6-.9 0-.3.1-.4.1-.4zm-4 109.9s-.4.8-1.2 2.2c-.9 1.4-2 3.4-3.4 5.9-1.4 2.5-2.9 5.6-4.4 9.1-1.5 3.5-3 7.4-4.3 11.6-1.3 4.2-2.3 8.3-3 12-.7 3.7-1.2 7.1-1.5 10-.3 2.9-.5 5.2-.5 6.8-.1 1.6-.2 2.5-.2 2.5-.1 0-.1-.9-.1-2.5s.1-4 .3-6.9c.2-2.9.6-6.3 1.3-10.1.7-3.8 1.7-7.9 3-12.1 1.3-4.2 2.8-8.2 4.4-11.7 1.6-3.5 3.2-6.6 4.6-9.1 1.4-2.5 2.7-4.5 3.6-5.8.9-1.2 1.4-1.9 1.4-1.9z"/><path class="st16" d="M49.4 368.4h51.5L94.7 421H55.9z"/><path class="st11" d="M51.3 415.3l4.4 5.7h39l4.5-5.5z"/><path class="st14" d="M98.9 383.9c0 .2-10.7.4-23.8.4-13.2 0-23.8-.2-23.8-.4s10.7-.4 23.8-.4c13.1 0 23.8.2 23.8.4zm0 3.5c0 .2-10.7.4-23.8.4-13.2 0-23.8-.2-23.8-.4s10.7-.4 23.8-.4c13.1 0 23.8.2 23.8.4zm-.7 3.4c0 .2-10.3.4-23 .4s-23-.2-23-.4 10.3-.4 23-.4 23 .2 23 .4z"/><path class="st11" d="M57.3 255.2v.5c0 .4-.1.9-.1 1.4-.1 1.3-.3 3.1-.5 5.2-.5 4.4-1.2 10.5-1.9 17.2 0 .3-.1.5-.1.8v.2h-.2c-6.6.1-12.6.2-16.9.2h-7s.2 0 .5-.1c.4 0 .8 0 1.4-.1 1.3 0 3-.1 5.1-.2 4.3-.1 10.2-.2 16.8-.3l-.3.2c0-.2.1-.5.1-.8.8-6.7 1.5-12.8 2.1-17.2.3-2.1.5-3.9.7-5.2.1-.6.2-1 .2-1.4 0-.2.1-.4.1-.4zm-11.7-15.7v7.4c-.1 4.6-.2 10.9-.4 17.9v1.1h-.3c-6.8-.5-12.9-.5-17.3-.4-2.2.1-4 .2-5.2.2-.6 0-1 0-1.4.1h-.5s.2 0 .5-.1c.3 0 .8-.1 1.4-.2 1.2-.1 3-.3 5.2-.4 4.4-.2 10.6-.3 17.4.2l-.3.3v-.8c.2-7 .4-13.3.5-17.9.1-2.2.2-4.1.2-5.4 0-.6.1-1.1.1-1.5.1-.3.1-.5.1-.5z"/><path class="st11" d="M31.9 234.1l.3 1.5c.2 1.1.5 2.5.8 4.1.7 3.5 1.7 8.3 3.2 13.6l.2.6-.5-.3-.6-.3c-5.1-2.4-10.1-3.6-13.7-4-1.8-.2-3.3-.3-4.3-.3s-1.6 0-1.6-.1c0 0 .1 0 .4-.1.3 0 .7-.1 1.2-.1 1 0 2.5 0 4.4.2 3.7.3 8.8 1.4 13.9 3.9l.6.3-.4.3c-1.5-5.3-2.5-10.1-3-13.6-.3-1.8-.5-3.2-.6-4.2-.3-.9-.3-1.5-.3-1.5zm72.7 95.8c0 .1-1.5-.1-3.9-.2s-5.7-.1-9.4.3c-.7.1-1.5.2-2.2.3h-.2v-.2c-.6-3.1-1-5.9-1.3-7.8-.3-2-.5-3.2-.4-3.2.1 0 .3 1.2.7 3.1.4 2 .9 4.7 1.5 7.8l-.3-.2c.7-.1 1.4-.2 2.2-.3 3.7-.4 7-.3 9.4-.2 1.2.1 2.2.2 2.8.3.7.2 1.1.3 1.1.3zm4.8-9.6c0 .1-1.4-.3-3.8-.5-2.3-.3-5.6-.5-9.1-.1-.6.1-1.1.1-1.6.2h-.3v-.3c-.3-3.2-.6-6-.8-8.1-.2-2-.2-3.3-.2-3.3.1 0 .3 1.2.5 3.2.3 2 .6 4.9.9 8.1l-.3-.2c.5-.1 1.1-.1 1.6-.2 3.6-.4 6.9-.1 9.2.2 1.2.2 2.1.4 2.7.6.9.2 1.2.3 1.2.4zm3.5-91.5s-.2.1-.5.3c-.4.2-.9.4-1.5.7-1.4.6-3.3 1.4-5.6 2.4-4.8 2-11.3 4.7-18.4 7.6-.3.1-.7.3-1 .4l-.2.1-.1-.2c-3-6.9-5.8-13-7.8-17.6-.9-2.2-1.7-4-2.3-5.3-.2-.6-.4-1.1-.6-1.5-.1-.3-.2-.5-.2-.5s.1.2.3.5l.7 1.4c.6 1.3 1.4 3.1 2.4 5.3 2 4.5 4.8 10.7 7.9 17.5l-.3-.1c.3-.1.7-.3 1-.4 7.2-2.9 13.7-5.6 18.5-7.5 2.3-.9 4.2-1.7 5.6-2.2.6-.2 1.1-.4 1.5-.6.4-.3.6-.3.6-.3zm4.5-22.2s-.1.1-.5.3c-.4.2-.8.5-1.3.9-1.2.8-2.9 1.8-5 3.1-4.3 2.6-10.2 6.2-16.8 10.2l-.3.2-.1-.3c-.1-.3-.2-.5-.3-.8-2.7-7.4-5.2-14-7-18.9-.9-2.4-1.6-4.3-2.1-5.8-.2-.6-.4-1.2-.5-1.6-.1-.4-.2-.6-.2-.6s.1.2.3.5c.2.4.4.9.6 1.5.6 1.4 1.3 3.3 2.2 5.7 1.9 4.9 4.4 11.5 7.2 18.9.1.3.2.6.3.8l-.4-.1c6.6-3.9 12.5-7.5 16.8-10.1 2.1-1.2 3.8-2.2 5.1-3 .6-.3 1-.6 1.4-.8.4-.1.6-.1.6-.1z"/><path class="st11" d="M115.9 194.7s-.4.3-1.1.7c-.7.4-1.8 1-3 1.8-2.5 1.6-6 4-9.3 7.3l-.6.6.2-.9c.2-.9.4-1.9.6-2.9.9-5.3.2-10.3-.7-13.7-.5-1.7-1-3.1-1.3-4-.4-.9-.6-1.4-.5-1.4 0 0 .3.5.7 1.4.4.9 1 2.2 1.5 4 1 3.4 1.8 8.5.9 13.9-.2 1-.4 2-.6 2.9l-.4-.2c3.4-3.3 6.9-5.7 9.5-7.2 1.3-.8 2.4-1.3 3.1-1.6.6-.5 1-.7 1-.7zM57.2 310.1s-.1.5-.2 1.3c-.2.8-.4 2.1-.7 3.6-.6 3.1-1.2 7.4-1.4 12.2v.2h-.2c-.4 0-.8 0-1.2.1-5.1.3-9.7.6-13.1.7-1.6.1-2.9.1-4 .2h-1.5s.5-.1 1.4-.2c1-.1 2.4-.2 4-.3 3.3-.2 8-.6 13.1-.9.4 0 .8 0 1.2-.1l-.2.2c.2-4.9.9-9.2 1.6-12.2.3-1.5.6-2.8.9-3.6.1-.8.3-1.2.3-1.2zm-10.1-14.5s0 .5-.1 1.3c-.1 1-.2 2.2-.4 3.7-.4 3.1-.9 7.4-1.6 12.2v.2h-.2c-.5 0-1.1.1-1.7.1-5.2.4-9.9.9-13.3 1.3-1.6.2-3 .4-4 .5-1 .1-1.5.2-1.5.2s.5-.2 1.5-.4c.9-.2 2.3-.4 4-.7 3.4-.5 8.1-1.1 13.4-1.5.6 0 1.1-.1 1.7-.1l-.2.2c.7-4.8 1.3-9.1 1.7-12.2.2-1.5.4-2.7.6-3.6 0-.8.1-1.2.1-1.2zm-11.9-6.3c.1 0-.2 1.4-.6 3.7-.4 2.3-.8 5.5-.8 9.1v.3h-.3c-.3 0-.6-.1-.9-.1-3.8-.5-7.2-.6-9.7-.6h-4.1s.4-.1 1.1-.2c.7-.1 1.7-.2 3-.2 2.5-.1 6 0 9.8.4.3 0 .6.1.9.1l-.3.3c.1-3.6.5-6.9 1-9.2.2-1.1.5-2.1.6-2.7.2-.5.3-.9.3-.9zm67.8 14.5c.1.1-1 2.4-2.3 5.2-1.3 2.9-2.3 5.2-2.5 5.1-.1 0 .7-2.5 2-5.4 1.4-2.7 2.7-4.9 2.8-4.9z"/><path class="st11" d="M109.5 310.7c0 .2-2.7.2-5.8 1.2-3.2 1-5.4 2.5-5.5 2.3-.1-.1 2.1-1.8 5.3-2.8 3.2-1.1 6-.9 6-.7zm219.6-163.1s-.1-.2-.2-.5-.2-.8-.4-1.4c-.3-1.2-.8-3-1.5-5.2-1.3-4.6-3.1-11.2-5.3-19.3-4.4-16.3-10.6-38.8-17.3-63.7h.5c0 .1 0 .2-.1.3-6.1 25.1-11.9 47.8-16.4 64.2-2.2 8.2-4.1 14.8-5.4 19.3-.7 2.3-1.2 4-1.6 5.2-.2.6-.3 1-.4 1.4-.1.3-.2.5-.2.5s0-.2.1-.5.2-.8.4-1.4c.3-1.2.8-3 1.5-5.3 1.3-4.6 3.1-11.2 5.3-19.4 4.4-16.4 10.2-39 16.2-64.2 0-.1 0-.2.1-.3l.2-1 .3 1c6.7 24.9 12.8 47.4 17.2 63.7 2.2 8.1 3.9 14.7 5.2 19.3.6 2.3 1.1 4 1.4 5.3.1.6.3 1 .3 1.4.1.4.1.6.1.6z"/><path class="st16" d="M281.5 147l5.8 30.4 37-.5 5.2-29.3z"/><path class="st17" d="M308.1 139.8c2.6 1.6 5.6 1.9 8 .7 2.4-1.2 4-3.8 4.4-6.9-2.6-1.3-5.5-1.4-8-.4-2.4 1-4.3 3.2-5.3 5.9m22.8 9.2c2.6 1.6 5.6 1.9 8 .7 2.4-1.2 4-3.8 4.4-6.9-2.6-1.3-5.5-1.4-8-.4-2.4 1-4.3 3.2-5.3 5.9m-11.4-18.2c1.3 2.8 3.7 4.6 6.3 4.9 2.6.3 5.5-1 7.4-3.4-1.5-2.5-3.8-4.2-6.4-4.7-2.6-.5-5.4.3-7.7 2m8.4 11c-3 0-5.8 1.3-7.2 3.5-1.4 2.2-1.5 5.3-.2 8.2 2.9-.3 5.5-1.7 7-3.8 1.5-2.1 2.1-4.9 1.5-7.8m6.6 15.4c-1.3 2.7-1.3 5.8.2 8 1.4 2.2 4.2 3.6 7.3 3.6 1-2.8.8-5.7-.5-8s-3.5-3.4-6.4-4.1"/><path class="st12" d="M346.2 156.5c0 .1-.5-.7-1.9-1.2-.7-.3-1.6-.4-2.6-.5-1 0-2.2.1-3.5.2-1.3.1-2.8.2-4.4-.4-1.5-.5-2.8-1.9-3.6-3.5-.8-1.6-1.2-3.5-1.6-5.3-.4-1.9-.8-3.8-1.9-5.5-1.1-1.7-2.6-2.9-4.1-4.1-1.5-1.2-2.9-2.4-3.9-3.9-2-3-2.3-6.4-1.9-9 .4-2.7 1.5-4.6 2.4-5.8.5-.6.8-1 1.2-1.3.3-.3.4-.4.5-.4 0 0-.1.2-.4.5-.3.3-.6.7-1.1 1.3-.8 1.2-1.8 3.1-2.2 5.7-.3 2.6 0 5.9 2 8.7 1 1.4 2.4 2.6 3.8 3.8 1.4 1.2 3 2.5 4.2 4.2 1.1 1.8 1.5 3.8 1.9 5.6.4 1.9.7 3.7 1.5 5.2.7 1.5 1.9 2.8 3.3 3.3s2.9.5 4.2.4c1.3-.1 2.5-.2 3.6-.1s2 .3 2.7.6c.7.3 1.2.7 1.4.9.1.1.2.3.3.3.1.2.1.3.1.3z"/><path class="st17" d="M346.2 156.5c0 .1-.5-.7-1.9-1.2-.7-.3-1.6-.4-2.6-.5-1 0-2.2.1-3.5.2-1.3.1-2.8.2-4.4-.4-1.5-.5-2.8-1.9-3.6-3.5-.8-1.6-1.2-3.5-1.6-5.3-.4-1.9-.8-3.8-1.9-5.5-1.1-1.7-2.6-2.9-4.1-4.1-1.5-1.2-2.9-2.4-3.9-3.9-2-3-2.3-6.4-1.9-9 .4-2.7 1.5-4.6 2.4-5.8.5-.6.8-1 1.2-1.3.3-.3.4-.4.5-.4 0 0-.1.2-.4.5-.3.3-.6.7-1.1 1.3-.8 1.2-1.8 3.1-2.2 5.7-.3 2.6 0 5.9 2 8.7 1 1.4 2.4 2.6 3.8 3.8 1.4 1.2 3 2.5 4.2 4.2 1.1 1.8 1.5 3.8 1.9 5.6.4 1.9.7 3.7 1.5 5.2.7 1.5 1.9 2.8 3.3 3.3s2.9.5 4.2.4c1.3-.1 2.5-.2 3.6-.1s2 .3 2.7.6c.7.3 1.2.7 1.4.9.1.1.2.3.3.3.1.2.1.3.1.3zm-91.7 4c.2-4-1.7-8.1-5-10.4-3.2-2.4-7.7-3-11.5-1.5 2.8 6.4 9.1 11 16 11.8m-2.6 1.8c-2.3 2.6-2.2 6.7-.5 9.8 1.7 3.1 4.6 5.2 7.5 7.2 1-3.3.8-6.9-.4-10.1-1.2-3.2-3.5-6-6.4-7.8m11.1-11.2c.4 3.8 2.3 7.3 5.3 9.6s6.9 3.4 10.6 2.8c-.9-3.8-2.4-7.6-5.3-10.1-2.9-2.6-7.5-3.5-10.7-1.4m.1-4.8c-.6-3.4-4-5.9-7.5-6.3-3.5-.3-6.9 1.2-9.7 3.3 2.1 2.4 5.1 3.9 8.2 4.2 3.2.3 6.4-.6 8.9-2.6m-17.8 30.7c-3.3 2.8-4.1 7.8-2.8 11.9 1.4 4.1 4.6 7.4 8.2 9.8 1.4-4.1 2.3-8.5 1.5-12.7-.7-4.2-3.3-8.3-7.2-10.1m17.6-37.8c1.7-2.6 4.7-4.2 7.8-4.4 3.1-.2 6.2 1.1 8.3 3.5-1.3 3-4.5 5.1-7.8 5.2-3.3.1-6.5-1.9-8-4.8m3.8-9.4c-3.6 1.1-7.6.6-10.7-1.4-3.2-1.9-5.4-5.3-6.1-8.9 2.6-.2 5.3-.4 7.9.1 2.6.5 5.2 1.6 7 3.5 1.9 1.9 2.4 4.1 1.9 6.7m7.6-2.6c-2.4-2-3.9-5.1-4-8.3 0-3.2 1.5-6.3 3.9-8.3 2.4 2.9 4 6.4 4.7 10 .3 1.4.4 2.8 0 4.2-.4 1.3-1.5 2.5-2.9 2.7"/><g class="st21"><path class="st11" d="M254.5 160.5c.2-4-1.7-8.1-5-10.4-3.2-2.4-7.7-3-11.5-1.5 2.8 6.4 9.1 11 16 11.8"/></g><g class="st21"><path class="st11" d="M251.4 162.2c-2.3 2.6-2.2 6.7-.5 9.8 1.7 3.1 4.6 5.2 7.5 7.2 1-3.3.8-6.9-.4-10.1-1.2-3.2-3.5-6-6.4-7.8"/></g><g class="st21"><path class="st11" d="M262.7 150.1c.4 3.8 2.3 7.3 5.3 9.6s6.9 3.4 10.6 2.8c-.9-3.8-2.4-7.6-5.3-10.1-2.9-2.6-7.5-3.5-10.7-1.4"/></g><g class="st21"><path class="st11" d="M262.7 146.2c-.6-3.4-4-5.9-7.5-6.3-3.5-.3-6.9 1.2-9.7 3.3 2.1 2.4 5.1 3.9 8.2 4.2 3.2.3 6.4-.6 8.9-2.6"/></g><g class="st21"><path class="st11" d="M244.8 175.5c-3.3 2.8-4.1 7.8-2.8 11.9 1.4 4.1 4.6 7.4 8.2 9.8 1.4-4.1 2.3-8.5 1.5-12.7-.7-4.2-3.3-8.3-7.2-10.1"/></g><g class="st21"><path class="st11" d="M262.1 136.6c1.7-2.6 4.7-4.2 7.8-4.4 3.1-.2 6.2 1.1 8.3 3.5-1.3 3-4.5 5.1-7.8 5.2-3.3.1-6.5-1.9-8-4.8"/></g><g class="st21"><path class="st11" d="M266.2 126.7c-3.6 1.1-7.6.6-10.7-1.4-3.2-1.9-5.4-5.3-6.1-8.9 2.6-.2 5.3-.4 7.9.1 2.6.5 5.2 1.6 7 3.5 1.9 1.9 2.4 4.1 1.9 6.7"/></g><g class="st21"><path class="st11" d="M273.8 124.1c-2.4-2-3.9-5.1-4-8.3 0-3.2 1.5-6.3 3.9-8.3 2.4 2.9 4 6.4 4.7 10 .3 1.4.4 2.8 0 4.2-.4 1.3-1.5 2.5-2.9 2.7"/></g><path class="st17" d="M287 148.3v-1.1c0-.7.1-1.7.1-3 0-2.6 0-6.5-1.8-10.9-.9-2.1-2.3-4.4-4.4-6.2-2-1.8-4.9-3-8-2.9-1.5 0-3.1.4-4.5 1.1-1.4.7-2.6 1.9-3.5 3.3-1.7 2.9-2.2 6.5-2 10 .1 3.6.6 7.1.2 10.6-.2 1.7-.6 3.4-1.3 4.9-.7 1.5-1.7 2.9-3 3.9s-2.7 1.6-4.1 2.1c-1.4.5-2.7 1-3.9 1.8-2.3 1.4-4 3.5-5.1 5.5-1.1 2.1-1.5 4.2-1.5 6.1 0 1.9.3 3.5.8 4.7.9 2.5 1.9 3.6 1.8 3.7l-.2-.2c-.1-.1-.3-.3-.5-.6-.4-.6-.9-1.5-1.4-2.7-.5-1.2-.9-2.9-.9-4.8s.4-4.1 1.4-6.2c1.1-2.1 2.8-4.2 5.2-5.8 2.4-1.6 5.5-2 7.9-3.9 2.4-1.9 3.7-5.1 4.1-8.4.4-3.4-.1-6.9-.3-10.5-.2-3.6.3-7.3 2.1-10.3.9-1.5 2.2-2.7 3.7-3.5 1.5-.8 3.1-1.1 4.7-1.2 3.2-.1 6.2 1.2 8.3 3.1 2.1 1.9 3.5 4.2 4.4 6.4.9 2.2 1.3 4.4 1.5 6.2.2 1.9.2 3.5.1 4.8-.1 1.3-.2 2.3-.2 3 0 .3-.1.6-.1.8.4.1.4.2.4.2z"/><g class="st21"><path class="st11" d="M287 148.3v-1.1c0-.7.1-1.7.1-3 0-2.6 0-6.5-1.8-10.9-.9-2.1-2.3-4.4-4.4-6.2-2-1.8-4.9-3-8-2.9-1.5 0-3.1.4-4.5 1.1-1.4.7-2.6 1.9-3.5 3.3-1.7 2.9-2.2 6.5-2 10 .1 3.6.6 7.1.2 10.6-.2 1.7-.6 3.4-1.3 4.9-.7 1.5-1.7 2.9-3 3.9s-2.7 1.6-4.1 2.1c-1.4.5-2.7 1-3.9 1.8-2.3 1.4-4 3.5-5.1 5.5-1.1 2.1-1.5 4.2-1.5 6.1 0 1.9.3 3.5.8 4.7.9 2.5 1.9 3.6 1.8 3.7l-.2-.2c-.1-.1-.3-.3-.5-.6-.4-.6-.9-1.5-1.4-2.7-.5-1.2-.9-2.9-.9-4.8s.4-4.1 1.4-6.2c1.1-2.1 2.8-4.2 5.2-5.8 2.4-1.6 5.5-2 7.9-3.9 2.4-1.9 3.7-5.1 4.1-8.4.4-3.4-.1-6.9-.3-10.5-.2-3.6.3-7.3 2.1-10.3.9-1.5 2.2-2.7 3.7-3.5 1.5-.8 3.1-1.1 4.7-1.2 3.2-.1 6.2 1.2 8.3 3.1 2.1 1.9 3.5 4.2 4.4 6.4.9 2.2 1.3 4.4 1.5 6.2.2 1.9.2 3.5.1 4.8-.1 1.3-.2 2.3-.2 3 0 .3-.1.6-.1.8.4.1.4.2.4.2z"/></g><path class="st17" d="M356.9 139.7c-.1 0 .7-1.2.7-3.5 0-1.2-.2-2.6-.9-4.1-.7-1.5-2.1-2.9-3.9-3.8-.9-.4-2-.8-3.1-.8-1.1-.1-2.3.1-3.5.4-2.4.6-4.7 2-7.5 2.5-1.4.3-2.9.3-4.3-.1-1.5-.4-2.7-1.5-3.5-2.8-1.7-2.6-2.1-5.9-4.2-8.3-1-1.2-2.4-2-3.8-2.5s-3-.6-4.4-.4c-3 .2-5.6 1.8-7.4 3.8-1.8 2-3 4.4-3.7 6.8-.7 2.3-.9 4.6-.8 6.7.2 4.2.9 7.5 1.2 9.8.2 1.1.3 2 .5 2.7 0 .3.1.5.1.7v.2s0-.1-.1-.2c0-.2-.1-.4-.2-.7-.1-.6-.3-1.5-.6-2.6-.4-2.3-1.2-5.6-1.4-9.8-.1-2.1.1-4.4.8-6.8.7-2.4 1.8-4.9 3.7-7 .9-1 2.1-2 3.4-2.7 1.3-.7 2.8-1.2 4.3-1.3 1.5-.2 3.1 0 4.6.5 1.5.5 3 1.4 4 2.6 2.1 2.6 2.6 5.9 4.2 8.3.8 1.2 1.9 2.2 3.2 2.6 1.3.4 2.8.4 4.1.1 2.7-.5 5-1.8 7.4-2.5 1.2-.3 2.4-.5 3.6-.4 1.2.1 2.3.4 3.2.9 1.9.9 3.3 2.5 4 4 .7 1.5.9 3 .9 4.2 0 1.2-.3 2.1-.5 2.7.1.5-.1.8-.1.8z"/><path class="st17" d="M328.8 122.3c2.6 1.6 6.2 1.8 8.6.6 2.4-1.2 4-3.8 4.4-6.9-2.6-1.3-5.5-1.4-8-.4-2.4 1-4.3 3.2-5.3 5.9m9.4 9c0 3 1.7 6.2 4 7.6 2.2 1.4 5.3 1.5 8.2.1-.3-2.9-1.7-5.5-3.8-7-2.1-1.5-5-2.1-7.8-1.4m15.2-1.1c2.7 1.3 6.4 1.1 8.6-.4 2.2-1.4 3.6-4.2 3.6-7.3-2.8-1-5.7-.8-8 .4-2.3 1.3-4 3.6-4.6 6.5m-37.8-11.1c-2.3-2-3.8-5.5-3.4-8.1.4-2.6 2.4-5 5.3-6.2 2 2.2 3 4.9 2.7 7.5-.2 2.6-1.7 5.1-4.1 6.8m-62.1-11.3s0-.1.1-.2l.3-.6c.3-.5.7-1.3 1.4-2.2 1.3-1.8 3.4-4.4 6.9-6.5 1.7-1 3.8-1.9 6.2-2.3 2.4-.3 5-.2 7.5.8 2.5.9 4.9 2.7 6.4 5.2 1.5 2.6 1.9 5.6 2.8 8.5.4 1.4 1 2.8 1.8 4 .8 1.2 1.9 2.2 3 3 1.1.8 2.3 1.6 3.4 2.5 1.1.9 2 1.9 2.8 3 1.5 2.2 2.4 4.7 2.9 7s.5 4.6.4 6.6c-.3 4-1.1 7.2-1.7 9.3-.3 1.1-.5 1.9-.7 2.5l-.3.9s0-.3.2-.9c.1-.6.3-1.5.6-2.5.5-2.2 1.3-5.3 1.5-9.3.1-2 0-4.2-.4-6.4-.5-2.3-1.3-4.7-2.8-6.8-.7-1.1-1.7-2.1-2.7-2.9-1.1-.9-2.3-1.6-3.4-2.5-1.2-.9-2.3-1.8-3.2-3.1-.8-1.3-1.4-2.7-1.9-4.2-.9-2.9-1.3-5.9-2.8-8.4-1.4-2.5-3.7-4.1-6.1-5.1-2.4-.9-5-1.1-7.3-.8-2.3.3-4.3 1.2-6 2.2-3.4 2-5.6 4.5-6.9 6.3-.7.9-1.1 1.6-1.5 2.1-.4.5-.5.8-.5.8z"/><path class="st17" d="M291.6 116.1c-.8-.7-1.2-.2-2.2 0-1.1.2-2 .8-2.9 1.4-3.7 2.9-5.3 8.2-3.9 12.7 3.4.2 6.8-1.6 8.6-4.5 1.8-2.9 1.8-6.8.1-9.7M259 101.2c-.4-1-1-.7-2-1-1-.3-2.2-.2-3.2.1-4.6 1.1-8.4 5.1-9 9.8 3 1.6 6.9 1.5 9.7-.4 2.9-1.9 4.6-5.3 4.3-8.7m40 35.2c-2.2-2.5-5.5-3.9-8.8-3.8-3.3.2-6.5 1.9-8.4 4.6 2.4 2.2 5.7 3.5 8.9 3.5 3.3 0 6.5-1.5 9-3.6m-3.4-15.7c3.3.1 6.6-1.4 8.8-3.9 2.1-2.5 3.1-6.1 2.4-9.3-3.5-.8-7.3.4-9.7 3.1-2.4 2.7-3.1 6.7-1.9 10m-11.1-17.6c3.1 1.2 6.7.9 9.6-.8 2.9-1.7 4.9-4.7 5.4-8-3-1.9-7.1-2-10.2-.3-3.1 1.7-5.1 5.2-5.1 8.8m-3.5-5.5c-3.1-1.2-6.7-.9-9.6.8-2.9 1.7-4.9 4.7-5.4 8 3 1.9 7.1 2 10.2.3 3.1-1.7 5.1-5.2 5.1-8.8m-4.9-3.4c3.1-1.1 5.7-3.6 6.9-6.7 1.1-3.1.8-6.7-1-9.6-3.5.5-6.7 3-8 6.3-1.3 3.3-.6 7.3 1.7 10m-11.4.6c1.1-3.1.8-6.7-1-9.6-1.7-2.8-4.8-4.8-8.1-5.2-1.8 3-1.9 7.1-.1 10.2 1.8 3.1 5.4 5 8.9 4.9"/><path class="st14" d="M326.3 164.6s-.1.1-.3.4c-.2.2-.5.6-.9 1-.8.8-2.2 1.9-4 2.8-1.9.9-4.3 1.7-7.1 1.8-1.4.1-2.8 0-4.3-.4-1.5-.3-2.9-.8-4.4-1.5-2.9-1.2-5.6-2.7-8.1-3.5-2.6-.8-5-1.1-7-.7-2 .4-3.5 1.3-4.3 2-.9.8-1.2 1.3-1.2 1.3s.1-.1.2-.4c.2-.3.4-.6.9-1 .8-.8 2.3-1.8 4.4-2.2 2.1-.5 4.6-.3 7.3.6 2.6.8 5.3 2.2 8.2 3.5 1.4.6 2.9 1.1 4.3 1.4 1.4.3 2.8.4 4.2.4 2.7-.1 5.1-.8 6.9-1.7 3.5-1.8 5.1-3.9 5.2-3.8z"/><path class="st14" d="M326.8 161.1s-.1.1-.3.4c-.2.2-.5.5-1 .9-.9.7-2.3 1.7-4.2 2.6-1.9.8-4.3 1.6-7.1 1.7-1.4.1-2.8 0-4.3-.3s-3-.7-4.5-1.3c-3-1.1-5.7-2.3-8.3-3.1-2.6-.8-5.1-1-7.1-.6-2 .3-3.5 1.1-4.5 1.7-.9.7-1.3 1.2-1.4 1.1 0 0 .1-.1.3-.4.2-.2.5-.6 1-.9.9-.7 2.5-1.6 4.5-1.9 2.1-.4 4.6-.2 7.3.5s5.4 2 8.4 3c1.5.5 2.9 1 4.4 1.3 1.4.3 2.9.4 4.2.3 2.7-.1 5.1-.8 7-1.6 3.7-1.6 5.5-3.6 5.6-3.4z"/><path class="st11" d="M310.3 55.6c0 2.9-2.4 5.3-5.3 5.3s-5.3-2.4-5.3-5.3 2.4-5.3 5.3-5.3 5.3 2.3 5.3 5.3z"/><path class="st11" d="M304.6 10.7c.1 0 .3 9.8.3 21.9 0 12.1-.1 21.9-.3 21.9s-.3-9.8-.3-21.9c0-12.1.1-21.9.3-21.9zm24.7 141.1s-.1.1-.4.2c-.4.1-.8.3-1.3.5-.6.2-1.3.5-2.1.7-.8.2-1.8.6-2.8.8-2.1.6-4.6 1.1-7.5 1.5-2.8.4-6 .7-9.3.7-3.3 0-6.5-.2-9.3-.5-2.8-.4-5.4-.8-7.5-1.4-1.1-.2-2-.5-2.8-.8-.8-.2-1.5-.5-2.1-.7-.5-.2-1-.3-1.3-.5-.3-.1-.5-.2-.4-.2 0 0 .2 0 .5.1.4.1.8.2 1.3.4.6.2 1.3.4 2.1.6.8.2 1.8.5 2.8.7 2.1.5 4.6.9 7.5 1.2 2.8.3 6 .5 9.3.5 3.3 0 6.4-.3 9.3-.7 2.8-.4 5.4-.9 7.4-1.4 1.1-.2 2-.5 2.8-.7.8-.2 1.5-.4 2.1-.6.5-.2 1-.3 1.3-.4h.4z"/><path class="st11" d="M298.5 155.7s0 .2-.1.5-.3.8-.5 1.4c-.4 1.2-1.1 3-2 5.1-.9 2.1-2 4.7-3.5 7.4-.7 1.4-1.5 2.8-2.3 4.2-.4.7-.9 1.5-1.3 2.2-.2.4-.5.8-.8 1.1-.3.3-.9.6-1.4.5-1.1-.1-1.7-1.1-2-1.9-.2-.9-.3-1.7-.5-2.5-.2-1.7-.5-3.2-.7-4.8-.4-3-.6-5.8-.8-8.1-.2-2.3-.3-4.2-.3-5.5v-2s0 .2.1.5c0 .4.1.9.1 1.5.1 1.4.3 3.2.5 5.5s.5 5 .9 8.1c.2 1.5.4 3.1.7 4.8.1.8.2 1.7.4 2.5.1.4.3.8.5 1 .3.3.6.5 1 .5.7.1 1.3-.7 1.7-1.4.4-.7.9-1.5 1.3-2.2.8-1.4 1.6-2.8 2.3-4.2 1.4-2.7 2.6-5.2 3.5-7.3.9-2.1 1.6-3.8 2.1-5.1.2-.6.4-1 .6-1.4.4-.3.4-.4.5-.4zm20-1.3s0 .2-.1.5c-.1.4-.2.8-.4 1.4-.4 1.3-.9 3-1.5 5.2s-1.4 4.8-2.2 7.6c-.2.7-.4 1.5-.7 2.2-.2.7-.4 1.5-.7 2.3-.3.8-.7 1.6-1.3 2.2-.6.6-1.4 1.2-2.3 1.3-.9.2-1.9-.1-2.6-.6-.7-.5-1.3-1.2-1.7-1.9-.7-1.5-1.3-3-1.9-4.4-1.1-2.8-1.9-5.4-2.6-7.5-.7-2.2-1.2-3.9-1.5-5.1-.2-.6-.3-1-.4-1.4-.1-.3-.1-.5-.1-.5s.1.2.2.5c.1.4.3.8.5 1.4.4 1.3 1 3 1.7 5.1.7 2.1 1.6 4.7 2.7 7.5.6 1.4 1.2 2.9 1.9 4.3.4.7.9 1.3 1.6 1.8.7.4 1.5.7 2.2.6.8-.1 1.5-.6 2-1.2s.9-1.3 1.2-2c.3-.7.5-1.5.7-2.3.2-.8.5-1.5.7-2.2.9-2.8 1.7-5.4 2.3-7.6.7-2.1 1.2-3.8 1.6-5.1.2-.6.3-1 .5-1.4.1-.5.2-.7.2-.7zm10.8-2.6s.1-.1.1 0 .1.2.1.4v1.4c-.1 1.2-.3 3-.6 5.3-.3 2.2-.7 4.9-1.2 7.7-.2 1.5-.4 3-.7 4.6l-.3 2.4c-.1.4-.1.8-.2 1.2l-.1.6c0 .3-.1.5-.3.7-.3.4-.7.8-1.3.8-.3 0-.6-.2-.7-.4-.2-.2-.3-.4-.3-.6l-.6-2.4c-.4-1.6-.8-3.1-1.1-4.5-.7-2.8-1.4-5.4-1.9-7.6-.5-2.1-.9-3.8-1.2-5.1-.1-.6-.2-1-.3-1.4-.1-.3-.1-.5-.1-.5s.1.2.2.5c.1.4.2.8.4 1.4.4 1.3.8 3 1.4 5.1.6 2.2 1.3 4.7 2 7.6.4 1.4.8 2.9 1.2 4.5l.6 2.4c.1.4.3.6.6.6s.6-.2.8-.5c1.9-13.3 4.1-24.5 3.5-24.2z"/></g></svg>