<svg xmlns="http://www.w3.org/2000/svg" xmlns:xlink="http://www.w3.org/1999/xlink" viewBox="0 0 198 190.3"><defs><path id="a" d="M0 0h198v190.3H0z"/></defs><clipPath id="b"><use xlink:href="#a" overflow="visible"/></clipPath><g clip-path="url(#b)"><path d="M198-45.7H0V131c54.2 2.2 126.7 22.4 198 38.7V-45.7z" opacity=".59" fill="#121214"/><defs><path id="c" d="M198-45.7H0V131c54.2 2.2 126.7 22.4 198 38.7V-45.7z"/></defs><clipPath id="d"><use xlink:href="#c" overflow="visible"/></clipPath><path d="M34.6 89c-2 0-4 .2-6 .6-4-9.4-13.3-15.9-24.2-15.9-14.5 0-26.3 11.8-26.3 26.3v1.4h-.5c-13.5 0-24.4 10.9-24.4 24.4s10.9 24.5 24.4 24.5h57c16.9 0 30.6-13.7 30.6-30.6S51.5 89 34.6 89z" opacity=".59" clip-path="url(#d)" fill="#3a3a3f"/><defs><path id="e" d="M198-45.7H0V131c54.2 2.2 126.7 22.4 198 38.7V-45.7z"/></defs><clipPath id="f"><use xlink:href="#e" overflow="visible"/></clipPath><path d="M231.6 9c-2 0-4 .2-6 .6-4-9.4-13.3-15.9-24.2-15.9-14.5 0-26.3 11.8-26.3 26.3v1.4h-.5c-13.5 0-24.4 10.9-24.4 24.4s10.9 24.4 24.4 24.4h57c16.9 0 30.6-13.7 30.6-30.6S248.5 9 231.6 9z" opacity=".59" clip-path="url(#f)" fill="#3a3a3f"/><defs><path id="g" d="M198-45.7H0V131c54.2 2.2 126.7 22.4 198 38.7V-45.7z"/></defs><clipPath id="h"><use xlink:href="#g" overflow="visible"/></clipPath><circle cx="30.1" cy="-5.7" r="4" clip-path="url(#h)" fill="#2189ff"/><defs><path id="i" d="M198-45.7H0V131c54.2 2.2 126.7 22.4 198 38.7V-45.7z"/></defs><clipPath id="j"><use xlink:href="#i" overflow="visible"/></clipPath><circle cx="135.6" cy="-18.2" r="1.5" clip-path="url(#j)" fill="#fff"/><defs><path id="k" d="M198-45.7H0V131c54.2 2.2 126.7 22.4 198 38.7V-45.7z"/></defs><clipPath id="l"><use xlink:href="#k" overflow="visible"/></clipPath><circle cx="94.6" cy="107.8" r="1.5" opacity=".59" clip-path="url(#l)" fill="#3a3a3f"/><defs><path id="m" d="M198-45.7H0V131c54.2 2.2 126.7 22.4 198 38.7V-45.7z"/></defs><clipPath id="n"><use xlink:href="#m" overflow="visible"/></clipPath><g clip-path="url(#n)"><path d="M139.5 76.8l-18.7 9.4-20.3-5.2-18.7 9.4-20.3-5.2-5.4-51 20.3 5.2L95.1 30l20.3 5.2 18.7-9.4c2.4 8.6 5.4 51 5.4 51z" fill="#f5f6f7" stroke="#797bf2" stroke-width="1.5" stroke-linejoin="round" stroke-miterlimit="10"/><path d="M77.2 49.6c-3.6-3.6-9 .6-11 .9-2.1.2-4.7 1.9-5.4 2s-1.8 3 2.5 3.2c4.2.3 5 .9 5.1 2.3.1 1.4 1.2 4.7 3.4 5.9 2.2 1.1 4.5 3 5.9 2.8 1.4-.1 2.8.4 2.8.4s.1.7-1.3 1.5-2.5 2.4-1 3.6c1.5 1.3 2.9 1.1 3.7 1.7.8.6 0 0 .4 3.5s.5 4.9 1.3 5.4c.8.6 1.5.6 1.5.6s-2.2-1.1-1.7-2.6c.6-1.5 2.3-4.4 3.5-6 1.3-1.5 4.5-3.3 3-5.2-1.6-1.9-.9-2-3-2.5s-4-1.3-5.4-1.9c-1.5-.6-2 1.6-3.6-1-1.7-2.6-.4-3.5 1-3.6s3.9-2.5 4.4-4.7c.4-2.1-.3-2.8-2.5-3.2s-3 4.5-4.7 1.2c-1.8-3.2 3-2.5 1.1-4.3zm2.2-3c2.2 1.1 2.8.4 3.7 2.4.9 2 2.1 6.7 3.3 4.5 1.1-2.2.4-2.1 2.4-3.7s.3-4.2 1.5-5.7c1.3-1.5-1.6-2-5.7-.8-4 1.1-5.2 3.3-5.2 3.3zm15.4 6.1c-1.3.8 2.4 2.5 1.1 3.4-1.3.8-2.9-1.1-2 .9s.1.7 2.1.4c2.1-.2 4.2-.4 3.5.3-.6.8-.7.1-2.7 1s-4 1.8-3.8 3.9c.2 2.1 1 2.7 3.7 2.4 2.8-.3 4.2-.4 3.7 1.7-.4 2.1-1 3.6.5 4.9s1.7 2.6 2.4 2.5c.7-.1 2.4-3.7 2.3-5.1s-.8-1.3-.3-2.8c.6-1.5 3.8-3.2 2.4-3.7-1.5-.6 1.3-1.5 1.1-2.2-.1-.7-3-1.8-3-1.8s4.2.3 5 .9c.8.6.9 2 2.4 2.5 1.5.6.8.6 1.3-.8.6-1.5.6-1.5 2.8-.3 2.2 1.1 2.5 3.9 3 2.5.6-1.5-.8-1.3-.3-2.8.6-1.5 3.9-2.5 2.3-4.4-1.6-2 .6-1.5 2-1.6s1.8-2.3 1-3.6.6-.8 2.6-1.7c2-.9 3.2-2.5 2.7-1-.6 1.5 1 2.7 1.5 1.3.6-1.5 1.3-1.5 2.5-3 1.3-1.5-.2-2.1-1.6-2-1.4.1-1.8 2.3-6.2.6-4.4-1.6-2.8-.4-6.4-.7-3.5-.3-.9-1.6-3.9-.8s-3.7 1.6-7.7 3.4c-4 1.8-3.8 3.2-5.4 2-1.5-1.3-.8-1.3-2.2-1.1-1.4.1-.8-1.3-2.7 1s.1 3.1-.9 4.3c-.6.6-2.8-.5-2.8-.5zm25.7 11.9c2.2 1.1 1.4-.1 4.2.3 2.8.4 6.4 1.4 4.2.3s-2.1-.4-4.3-.9c-2.1-.6-4.1.3-4.1.3zm5.1 2.2c-1.4.1-1.4.1-2.6 1.7-1.3 1.5-2.5 3-.3 3.5 2.1.4.7-.1 2.8-.3 2.1-.2 3.5.3 4.3.9s.3-3.5.3-3.5 1.3-.8-.1-1.4c-1.5-.6-1.6-2-2.3-1.8-.7.2-2.1.9-2.1.9z" fill="#797bf2" opacity=".59"/><path d="M81.7 90.7c-3-27.6-5.4-51.1-5.4-51.1m39.3-4.2l5.4 51.1M95.5 29.9l5.4 51.1" fill="#fff" stroke="#797bf2" stroke-width="1.101" stroke-linejoin="round" stroke-miterlimit="10"/></g></g></svg>