<svg version="1.1" id="Layer_1" xmlns="http://www.w3.org/2000/svg" xmlns:xlink="http://www.w3.org/1999/xlink" x="0" y="0" viewBox="0 0 198 190.3" xml:space="preserve"><style>.st5{fill:#fff;stroke:#671cc9;stroke-width:1.5;stroke-linejoin:round;stroke-miterlimit:10}</style><defs><path id="SVGID_1_" d="M0 0h198v190.3H0z"/></defs><clipPath id="SVGID_2_"><use xlink:href="#SVGID_1_" overflow="visible"/></clipPath><path d="M198-45.7H0v217.8c69.9-17.9 143.8-44.1 198-55.5V-45.7z" opacity=".75" clip-path="url(#SVGID_2_)" fill="#671cc9"/><defs><path id="SVGID_3_" d="M0 0h198v190.3H0z"/></defs><clipPath id="SVGID_4_"><use xlink:href="#SVGID_3_" overflow="visible"/></clipPath><g clip-path="url(#SVGID_4_)"><defs><path id="SVGID_5_" d="M198-45.7H0v217.8c69.9-17.9 143.8-44.1 198-55.5V-45.7z"/></defs><clipPath id="SVGID_6_"><use xlink:href="#SVGID_5_" overflow="visible"/></clipPath><path clip-path="url(#SVGID_6_)" fill="none" stroke="#671cc9" stroke-width="1.5" stroke-linecap="round" stroke-linejoin="round" stroke-miterlimit="10" d="M202.8 109.9H-.2"/><defs><path id="SVGID_7_" d="M198-45.7H0v217.8c69.9-17.9 143.8-44.1 198-55.5V-45.7z"/></defs><clipPath id="SVGID_8_"><use xlink:href="#SVGID_7_" overflow="visible"/></clipPath><path d="M217.4 4.1c-1.6 0-3.1.2-4.6.5-3.1-7.2-10.3-12.3-18.6-12.3-11.2 0-20.3 9.1-20.3 20.3v1.1h-.4c-10.4 0-18.8 8.4-18.8 18.8s8.4 18.8 18.8 18.8h43.9c13 0 23.6-10.6 23.6-23.6 0-13-10.6-23.6-23.6-23.6z" clip-path="url(#SVGID_8_)" fill="#fff"/><defs><path id="SVGID_9_" d="M198-45.7H0v217.8c69.9-17.9 143.8-44.1 198-55.5V-45.7z"/></defs><clipPath id="SVGID_10_"><use xlink:href="#SVGID_9_" overflow="visible"/></clipPath><g clip-path="url(#SVGID_10_)"><path class="st5" d="M120.1 80.7c9.1-2.3 20.8 9.3 20.8 9.3-2.4-14.1-10.3-27.1-22.4-35.6 4.3 9.7 2.7 21.1 1.6 26.3z"/><path d="M77.9 63.6c3.6.8 28.9 6.6 42 17.2h.2c1.1-5.3 2.7-16.6-1.6-26.3-3.3-2.3-6.9-4.3-10.8-5.9-3.2-1.3-6.4-2.3-9.6-2.9-10.3 3.7-17.3 13.2-20.2 17.9z" fill="#8041f9" stroke="#671cc9" stroke-width="1.5" stroke-miterlimit="10"/><path class="st5" d="M77.5 63.5s.1 0 .4.1c2.9-4.6 10-14.2 20.2-18-15-3.1-30.3.4-42.4 8.8 13.8 1.8 21.8 9.1 21.8 9.1z"/><path d="M101.2 70.7c-20.4 49.9-24.3 58.6-24.3 58.6m32.4-80l1.2-2.9" fill="none" stroke-linecap="round" stroke="#671cc9" stroke-width="1.5" stroke-linejoin="round" stroke-miterlimit="10"/></g><defs><path id="SVGID_11_" d="M198-45.7H0v217.8c69.9-17.9 143.8-44.1 198-55.5V-45.7z"/></defs><clipPath id="SVGID_12_"><use xlink:href="#SVGID_11_" overflow="visible"/></clipPath><circle cx="152.8" cy="99.3" r="4" clip-path="url(#SVGID_12_)" fill="#671cc9"/><defs><path id="SVGID_13_" d="M198-45.7H0v217.8c69.9-17.9 143.8-44.1 198-55.5V-45.7z"/></defs><clipPath id="SVGID_14_"><use xlink:href="#SVGID_13_" overflow="visible"/></clipPath><circle cx="37.3" cy="99.8" r="1.5" clip-path="url(#SVGID_14_)" fill="#fff"/><g><defs><path id="SVGID_15_" d="M198-45.7H0v217.8c69.9-17.9 143.8-44.1 198-55.5V-45.7z"/></defs><clipPath id="SVGID_16_"><use xlink:href="#SVGID_15_" overflow="visible"/></clipPath><circle cx="153.3" cy="-18.2" r="1.5" clip-path="url(#SVGID_16_)" fill="#2189ff"/></g><g><defs><path id="SVGID_17_" d="M198-45.7H0v217.8c69.9-17.9 143.8-44.1 198-55.5V-45.7z"/></defs><clipPath id="SVGID_18_"><use xlink:href="#SVGID_17_" overflow="visible"/></clipPath><circle cx="29.3" cy="-7.2" r="15.5" clip-path="url(#SVGID_18_)" fill="#fff"/></g><g><defs><path id="SVGID_19_" d="M198-45.7H0v217.8c69.9-17.9 143.8-44.1 198-55.5V-45.7z"/></defs><clipPath id="SVGID_20_"><use xlink:href="#SVGID_19_" overflow="visible"/></clipPath><path clip-path="url(#SVGID_20_)" fill="#671cc9" d="M-5.2 122.3h75l-87 40z"/></g></g></svg>