<svg version="1.1" id="Layer_1" xmlns="http://www.w3.org/2000/svg" x="0" y="0" viewBox="0 0 110 110" xml:space="preserve"><style>.st0{fill:#797bf2}.st25,.st5{enable-background:new;opacity:.15}.st25{fill:none;stroke:#000;stroke-miterlimit:10}</style><path class="st0" d="M74.7 15.5c-.3 0-.6.3-.6.6s.3.6.6.6.6-.3.6-.6-.3-.6-.6-.6zm4.8 0c-.3 0-.6.3-.6.6s.3.6.6.6.6-.3.6-.6-.3-.6-.6-.6zm4.9 0c-.3 0-.6.3-.6.6s.3.6.6.6.6-.3.6-.6c-.1-.3-.3-.6-.6-.6zm4.8 0c-.3 0-.6.3-.6.6s.3.6.6.6.6-.3.6-.6-.3-.6-.6-.6zm4.9 0c-.3 0-.6.3-.6.6s.3.6.6.6.6-.3.6-.6c-.1-.3-.3-.6-.6-.6zm4.8 0c-.3 0-.6.3-.6.6s.3.6.6.6.6-.3.6-.6-.3-.6-.6-.6zm4.8 1.2c.3 0 .6-.3.6-.6s-.3-.6-.6-.6-.6.3-.6.6c.1.3.3.6.6.6zm-29 3.1c-.3 0-.6.3-.6.6s.3.6.6.6.6-.3.6-.6-.3-.6-.6-.6zm4.8 0c-.3 0-.6.3-.6.6s.3.6.6.6.6-.3.6-.6-.3-.6-.6-.6z"/><circle class="st0" cx="84.4" cy="20.3" r=".6"/><circle class="st0" cx="89.2" cy="20.3" r=".6"/><path class="st0" d="M94.1 19.8c-.3 0-.6.3-.6.6s.3.6.6.6.6-.3.6-.6-.3-.6-.6-.6zm4.8 0c-.3 0-.6.3-.6.6s.3.6.6.6.6-.3.6-.6-.3-.6-.6-.6zm4.8 0c-.3 0-.6.3-.6.6s.3.6.6.6.6-.3.6-.6-.2-.6-.6-.6zm-29 4.2c-.3 0-.6.3-.6.6s.3.6.6.6.6-.3.6-.6c0-.4-.3-.6-.6-.6zm4.8 0c-.3 0-.6.3-.6.6s.3.6.6.6.6-.3.6-.6c0-.4-.3-.6-.6-.6zm4.9 0c-.3 0-.6.3-.6.6s.3.6.6.6.6-.3.6-.6c-.1-.4-.3-.6-.6-.6zm4.8 0c-.3 0-.6.3-.6.6s.3.6.6.6.6-.3.6-.6c0-.4-.3-.6-.6-.6zm4.9 0c-.3 0-.6.3-.6.6s.3.6.6.6.6-.3.6-.6c-.1-.4-.3-.6-.6-.6zm4.8 0c-.3 0-.6.3-.6.6s.3.6.6.6.6-.3.6-.6c0-.4-.3-.6-.6-.6zm4.8 0c-.3 0-.6.3-.6.6s.3.6.6.6.6-.3.6-.6c0-.4-.2-.6-.6-.6zm-29 4.2c-.3 0-.6.3-.6.6s.3.6.6.6.6-.3.6-.6-.3-.6-.6-.6zm4.8 0c-.3 0-.6.3-.6.6s.3.6.6.6.6-.3.6-.6-.3-.6-.6-.6zm4.9 0c-.3 0-.6.3-.6.6s.3.6.6.6.6-.3.6-.6c-.1-.3-.3-.6-.6-.6zm4.8 0c-.3 0-.6.3-.6.6s.3.6.6.6.6-.3.6-.6-.3-.6-.6-.6zm4.9 0c-.3 0-.6.3-.6.6s.3.6.6.6.6-.3.6-.6c-.1-.3-.3-.6-.6-.6zm4.8 0c-.3 0-.6.3-.6.6s.3.6.6.6.6-.3.6-.6-.3-.6-.6-.6zm4.8 0c-.3 0-.6.3-.6.6s.3.6.6.6.6-.3.6-.6-.2-.6-.6-.6zm-29 4.2c-.3 0-.6.3-.6.6s.3.6.6.6.6-.3.6-.6-.3-.6-.6-.6zm4.8 0c-.3 0-.6.3-.6.6s.3.6.6.6.6-.3.6-.6-.3-.6-.6-.6zm4.9 0c-.3 0-.6.3-.6.6s.3.6.6.6.6-.3.6-.6c-.1-.3-.3-.6-.6-.6zm4.8 0c-.3 0-.6.3-.6.6s.3.6.6.6.6-.3.6-.6-.3-.6-.6-.6zm4.9 0c-.3 0-.6.3-.6.6s.3.6.6.6.6-.3.6-.6c-.1-.3-.3-.6-.6-.6zm4.8 0c-.3 0-.6.3-.6.6s.3.6.6.6.6-.3.6-.6-.3-.6-.6-.6zm4.8 0c-.3 0-.6.3-.6.6s.3.6.6.6.6-.3.6-.6-.2-.6-.6-.6zm-29 4.2c-.3 0-.6.3-.6.6s.3.6.6.6.6-.3.6-.6-.3-.6-.6-.6zm4.8 0c-.3 0-.6.3-.6.6s.3.6.6.6.6-.3.6-.6-.3-.6-.6-.6zm4.9 0c-.3 0-.6.3-.6.6s.3.6.6.6.6-.3.6-.6c-.1-.3-.3-.6-.6-.6zm4.8 0c-.3 0-.6.3-.6.6s.3.6.6.6.6-.3.6-.6-.3-.6-.6-.6zm4.9 0c-.3 0-.6.3-.6.6s.3.6.6.6.6-.3.6-.6c-.1-.3-.3-.6-.6-.6zm4.8 0c-.3 0-.6.3-.6.6s.3.6.6.6.6-.3.6-.6-.3-.6-.6-.6zm4.8 0c-.3 0-.6.3-.6.6s.3.6.6.6.6-.3.6-.6-.2-.6-.6-.6zm-29 4.3c-.3 0-.6.3-.6.6s.3.6.6.6.6-.3.6-.6-.3-.6-.6-.6zm4.8 0c-.3 0-.6.3-.6.6s.3.6.6.6.6-.3.6-.6-.3-.6-.6-.6z"/><circle class="st0" cx="84.4" cy="41.4" r=".6"/><circle class="st0" cx="89.2" cy="41.4" r=".6"/><path class="st0" d="M94.1 40.9c-.3 0-.6.3-.6.6s.3.6.6.6.6-.3.6-.6-.3-.6-.6-.6zm4.8 0c-.3 0-.6.3-.6.6s.3.6.6.6.6-.3.6-.6-.3-.6-.6-.6zm4.8 0c-.3 0-.6.3-.6.6s.3.6.6.6.6-.3.6-.6-.2-.6-.6-.6zm-29 4.2c-.3 0-.6.3-.6.6s.3.6.6.6.6-.3.6-.6-.3-.6-.6-.6zm4.8 0c-.3 0-.6.3-.6.6s.3.6.6.6.6-.3.6-.6-.3-.6-.6-.6z"/><circle class="st0" cx="84.4" cy="45.7" r=".6"/><circle class="st0" cx="89.2" cy="45.7" r=".6"/><path class="st0" d="M94.1 45.1c-.3 0-.6.3-.6.6s.3.6.6.6.6-.3.6-.6-.3-.6-.6-.6zm4.8 0c-.3 0-.6.3-.6.6s.3.6.6.6.6-.3.6-.6-.3-.6-.6-.6zm4.8 0c-.3 0-.6.3-.6.6s.3.6.6.6.6-.3.6-.6-.2-.6-.6-.6zM21.8 61.3c-.3 0-.6.3-.6.6s.3.6.6.6.6-.3.6-.6c-.1-.3-.3-.6-.6-.6zm4.8 0c-.3 0-.6.3-.6.6s.3.6.6.6.6-.3.6-.6-.3-.6-.6-.6zm4.8 0c-.3 0-.6.3-.6.6s.3.6.6.6.6-.3.6-.6-.2-.6-.6-.6zm4.9 0c-.3 0-.6.3-.6.6s.3.6.6.6.6-.3.6-.6-.3-.6-.6-.6zm4.8 0c-.3 0-.6.3-.6.6s.3.6.6.6.6-.3.6-.6-.3-.6-.6-.6zm4.9 0c-.3 0-.6.3-.6.6s.3.6.6.6.6-.3.6-.6c-.1-.3-.3-.6-.6-.6zm4.8 1.2c.3 0 .6-.3.6-.6s-.3-.6-.6-.6-.6.3-.6.6.3.6.6.6zm-29 3c-.3 0-.6.3-.6.6s.3.6.6.6.6-.3.6-.6c-.1-.3-.3-.6-.6-.6zm4.8 0c-.3 0-.6.3-.6.6s.3.6.6.6.6-.3.6-.6-.3-.6-.6-.6zm4.8 0c-.3 0-.6.3-.6.6s.3.6.6.6.6-.3.6-.6-.2-.6-.6-.6zm4.9 0c-.3 0-.6.3-.6.6s.3.6.6.6.6-.3.6-.6-.3-.6-.6-.6zm4.8 0c-.3 0-.6.3-.6.6s.3.6.6.6.6-.3.6-.6-.3-.6-.6-.6zm4.9 0c-.3 0-.6.3-.6.6s.3.6.6.6.6-.3.6-.6c-.1-.3-.3-.6-.6-.6zm4.8 0c-.3 0-.6.3-.6.6s.3.6.6.6.6-.3.6-.6-.3-.6-.6-.6zm-29 4.3c-.3 0-.6.3-.6.6s.3.6.6.6.6-.3.6-.6c-.1-.4-.3-.6-.6-.6zm4.8 0c-.3 0-.6.3-.6.6s.3.6.6.6.6-.3.6-.6c0-.4-.3-.6-.6-.6zm4.8 0c-.3 0-.6.3-.6.6s.3.6.6.6.6-.3.6-.6c0-.4-.2-.6-.6-.6zm4.9 0c-.3 0-.6.3-.6.6s.3.6.6.6.6-.3.6-.6c0-.4-.3-.6-.6-.6zm4.8 0c-.3 0-.6.3-.6.6s.3.6.6.6.6-.3.6-.6c0-.4-.3-.6-.6-.6zm4.9 0c-.3 0-.6.3-.6.6s.3.6.6.6.6-.3.6-.6c-.1-.4-.3-.6-.6-.6zm4.8 0c-.3 0-.6.3-.6.6s.3.6.6.6.6-.3.6-.6c0-.4-.3-.6-.6-.6zm-29 4.2c-.3 0-.6.3-.6.6s.3.6.6.6.6-.3.6-.6c-.1-.4-.3-.6-.6-.6zm4.8 0c-.3 0-.6.3-.6.6s.3.6.6.6.6-.3.6-.6c0-.4-.3-.6-.6-.6zm4.8 0c-.3 0-.6.3-.6.6s.3.6.6.6.6-.3.6-.6c0-.4-.2-.6-.6-.6zm4.9 0c-.3 0-.6.3-.6.6s.3.6.6.6.6-.3.6-.6c0-.4-.3-.6-.6-.6zm4.8 0c-.3 0-.6.3-.6.6s.3.6.6.6.6-.3.6-.6c0-.4-.3-.6-.6-.6zm4.9 0c-.3 0-.6.3-.6.6s.3.6.6.6.6-.3.6-.6c-.1-.4-.3-.6-.6-.6zm4.8 0c-.3 0-.6.3-.6.6s.3.6.6.6.6-.3.6-.6c0-.4-.3-.6-.6-.6zm-29 4.2c-.3 0-.6.3-.6.6s.3.6.6.6.6-.3.6-.6c-.1-.3-.3-.6-.6-.6zm4.8 0c-.3 0-.6.3-.6.6s.3.6.6.6.6-.3.6-.6-.3-.6-.6-.6zm4.8 0c-.3 0-.6.3-.6.6s.3.6.6.6.6-.3.6-.6-.2-.6-.6-.6zm4.9 0c-.3 0-.6.3-.6.6s.3.6.6.6.6-.3.6-.6-.3-.6-.6-.6zm4.8 0c-.3 0-.6.3-.6.6s.3.6.6.6.6-.3.6-.6-.3-.6-.6-.6zm4.9 0c-.3 0-.6.3-.6.6s.3.6.6.6.6-.3.6-.6c-.1-.3-.3-.6-.6-.6zm4.8 0c-.3 0-.6.3-.6.6s.3.6.6.6.6-.3.6-.6-.3-.6-.6-.6zm-29 4.2c-.3 0-.6.3-.6.6s.3.6.6.6.6-.3.6-.6c-.1-.3-.3-.6-.6-.6z"/><circle class="st0" cx="26.6" cy="83" r=".6"/><path class="st0" d="M31.4 82.4c-.3 0-.6.3-.6.6s.3.6.6.6.6-.3.6-.6-.2-.6-.6-.6zm4.9 0c-.3 0-.6.3-.6.6s.3.6.6.6.6-.3.6-.6-.3-.6-.6-.6zm4.8 0c-.3 0-.6.3-.6.6s.3.6.6.6.6-.3.6-.6-.3-.6-.6-.6zm4.9 0c-.3 0-.6.3-.6.6s.3.6.6.6.6-.3.6-.6c-.1-.3-.3-.6-.6-.6z"/><circle class="st0" cx="50.8" cy="83" r=".6"/><path class="st0" d="M21.8 86.6c-.3 0-.6.3-.6.6s.3.6.6.6.6-.3.6-.6-.3-.6-.6-.6z"/><circle class="st0" cx="26.6" cy="87.2" r=".6"/><path class="st0" d="M31.4 86.6c-.3 0-.6.3-.6.6s.3.6.6.6.6-.3.6-.6-.2-.6-.6-.6zm4.9 0c-.3 0-.6.3-.6.6s.3.6.6.6.6-.3.6-.6-.3-.6-.6-.6zm4.8 0c-.3 0-.6.3-.6.6s.3.6.6.6.6-.3.6-.6-.3-.6-.6-.6zm4.9 0c-.3 0-.6.3-.6.6s.3.6.6.6.6-.3.6-.6-.3-.6-.6-.6z"/><circle class="st0" cx="50.8" cy="87.2" r=".6"/><path class="st0" d="M21.8 90.9c-.3 0-.6.3-.6.6s.3.6.6.6.6-.3.6-.6c-.1-.4-.3-.6-.6-.6z"/><circle class="st0" cx="26.6" cy="91.4" r=".6"/><path class="st0" d="M31.4 90.9c-.3 0-.6.3-.6.6s.3.6.6.6.6-.3.6-.6c0-.4-.2-.6-.6-.6zm4.9 0c-.3 0-.6.3-.6.6s.3.6.6.6.6-.3.6-.6c0-.4-.3-.6-.6-.6zm4.8 0c-.3 0-.6.3-.6.6s.3.6.6.6.6-.3.6-.6c0-.4-.3-.6-.6-.6zm4.9 0c-.3 0-.6.3-.6.6s.3.6.6.6.6-.3.6-.6c-.1-.4-.3-.6-.6-.6z"/><circle class="st0" cx="50.8" cy="91.4" r=".6"/><path d="M96.9 48.2c0 6-1.3 11.6-3.6 16.7-1.3 2.9-3 5.6-4.9 8.1-.3.4-.6.8-.9 1.1-.8.9-1.6 1.8-2.4 2.6-.9.9-1.9 1.8-2.9 2.6-.8.6-1.5 1.2-2.3 1.8h-.1c-.1.1-.3.2-.4.3-.3.2-.5.4-.8.5-1.1.7-2.3 1.4-3.6 2.1-.1 0-.1.1-.2.1-.9.4-1.7.8-2.6 1.2-1.9.8-3.8 1.4-5.8 1.9-.4.1-.8.2-1.3.3l-1.1.4c-2.1.4-4.3.6-6.6.7h-3.1c-4.4-.2-8.6-1.2-12.4-2.7-2.1-.8-4.1-1.8-6.1-3-.7-.4-1.4-.8-2-1.3-.2-.1-.3-.2-.5-.3-.6-.4-1.2-.9-1.8-1.3l-1.8-1.5c-1.1-1-2.1-2-3.1-3.1l-.3-.3c-.3-.4-.7-.8-1-1.2-1.5-1.8-2.8-3.8-4-5.8-1.9-3.3-3.2-7-4.1-10.8 0-.2-.1-.4-.1-.6-.1-.5-.1-.7-.2-1-.3-1.4-.4-2.8-.6-4.2-.1-1.1-.1-2.2-.1-3.3 0-3.2.4-6.3 1.1-9.2 1.1-4.6 2.9-8.8 5.4-12.7 7.2-11 19.7-18.4 33.9-18.4 16 0 29.8 9.3 36.3 22.8 2.6 5.3 4 11.3 4 17.5z" opacity=".59" fill="#121214"/><path d="M93.3 64.9c-1.3 2.9-3 5.6-4.9 8.1-.3.4-.6.8-.9 1.1-.8.9-1.6 1.8-2.4 2.6-.9.9-1.9 1.8-2.9 2.6-.8.6-1.5 1.2-2.3 1.8h-.1c-.1.1-.3.2-.4.3-.3.2-.5.4-.8.5-1.1.7-2.3 1.4-3.6 2.1-.1 0-.1.1-.2.1-.9.4-1.7.8-2.6 1.2-1.9.8-3.8 1.4-5.8 1.9-.4.1-.8.2-1.3.3l-1.1.4c-2.1.4-4.3.6-6.6.7h-3.1c-4.4-.2-8.6-1.2-12.4-2.7-2.1-.8-4.1-1.8-6.1-3-.7-.4-1.4-.8-2-1.3-.2-.1-.3-.2-.5-.3-.6-.4-1.2-.9-1.8-1.3l-1.8-1.5c-1.2-1.1-2.3-2.2-3.4-3.4-4.5-5.1-7.8-11.4-9.2-18.4-.3-1.6-.6-3.3-.7-5 4.7-2.2 11.3.2 12.9 9.3 6.8-5.8 24.9-6.6 25.5 8.3 7.1-6.7 24.4-.4 25.6 5.2 2.4-5.4 7.7-9.1 12.9-9.6z" opacity=".59" fill="#3a3a3f"/><linearGradient id="SVGID_1_" gradientUnits="userSpaceOnUse" x1="29.966" y1="95.369" x2="75.282" y2="70.422" gradientTransform="matrix(1 0 0 -1 0 112)"><stop offset="0" stop-color="#797bf2"/><stop offset="1" stop-color="#7961f2"/></linearGradient><path d="M99.1 37.9L83.2 64.1c-.8 1.2-2.4 1.6-3.6.9l-2.8-1.7-16.1-9.7c-1.2-.8-1.6-2.4-.9-3.6l7.1-11.7 8.9-14.6c.8-1.2 2.4-1.6 3.6-.9l18.9 11.5c1.2.7 1.6 2.3.8 3.6z" fill="url(#SVGID_1_)"/><linearGradient id="SVGID_2_" gradientUnits="userSpaceOnUse" x1="60.837" y1="60.162" x2="88.468" y2="99.211" gradientTransform="matrix(1 0 0 -1 0 112)"><stop offset="0" stop-color="#797bf2"/><stop offset="1" stop-color="#7961f2"/></linearGradient><path d="M62 54.4l-2-1.2c-.9-.5-1.1-1.7-.6-2.5L76.2 23c.5-.9 1.7-1.1 2.5-.6l2 1.2c.9.5 1.1 1.7.6 2.5L64.5 53.8c-.5.8-1.6 1.1-2.5.6z" fill="url(#SVGID_2_)"/><path class="st5" d="M76.7 63.3l-16.1-9.7c-1.2-.8-1.6-2.4-.9-3.6l7.1-11.7.9-.3c1.4-.4 2.9.4 3.3 1.8L77.1 61c.3.9.1 1.7-.4 2.3z"/><path d="M80.1 53.5l-6.4-3.9c-.5-.3-.6-.9-.3-1.3.3-.5.9-.6 1.3-.3l6.4 3.9c.5.3.6.9.3 1.3s-.9.6-1.3.3zM90 37.1l-6.4-3.9c-.5-.3-.6-.9-.3-1.3.3-.5.9-.6 1.3-.3l6.4 3.9c.5.3.6.9.3 1.3-.2.4-.8.6-1.3.3zM76.8 55.4l-3.3-2c-.5-.3-.6-.9-.3-1.3.3-.5.9-.6 1.3-.3l3.3 2c.5.3.6.9.3 1.3s-.9.6-1.3.3z" opacity=".48"/><linearGradient id="SVGID_3_" gradientUnits="userSpaceOnUse" x1="56.553" y1="39.845" x2="79.772" y2="10.489" gradientTransform="matrix(1 0 0 -1 0 112)"><stop offset=".004" stop-color="#ffc7d7"/><stop offset="1" stop-color="#ff97ab"/></linearGradient><path d="M79.8 81.3c-.1.1-.3.2-.4.3-.3.2-.5.4-.8.5-1.1.7-2.3 1.4-3.6 2.1-.1 0-.1.1-.2.1-.9.4-1.7.8-2.6 1.2-1.9.8-3.8 1.4-5.8 1.9-.4.1-.8.2-1.3.3l-1.1.2c-2.1.4-4.3.6-6.6.7h-2.3c-1.5-1.2-3.8-3.2-5.6-5.2-.9-1-1.6-1.9-2-2.7-.1-.2-.2-.5-.3-.7l14.7-4.1c.1 0 2.6.1 5 .1h2.4c1.2 0 2 .1 2 .1l7.3 4.4 1.2.8z" fill="url(#SVGID_3_)"/><linearGradient id="SVGID_4_" gradientUnits="userSpaceOnUse" x1="55.996" y1="8.267" x2="58.069" y2="37.182" gradientTransform="matrix(1 0 0 -1 0 112)"><stop offset=".004" stop-color="#ffc7d7"/><stop offset="1" stop-color="#ff97ab"/></linearGradient><path d="M68.2 79.9c-.3 2.7-1.4 5.1-1.8 7.5-.4.1-.8.2-1.3.3l-1.1.2c-2.1.4-4.3.6-6.6.7h-2.3c-1.5-1.2-3.8-3.2-5.6-5.2-.9-1-1.6-1.9-2-2.7-.1-.2-.2-.5-.3-.7l14.7-4.1c.1 0 2.6.1 5 .1h.3l.9.2c.2 1.3.2 2.5.1 3.7z" fill="url(#SVGID_4_)"/><linearGradient id="SVGID_5_" gradientUnits="userSpaceOnUse" x1="38.647" y1="-15.432" x2="11.557" y2="99.934" gradientTransform="scale(1 -1) rotate(5.987 937.505 227.194)"><stop offset="0" stop-color="#ff227d"/><stop offset="1" stop-color="#ff967d"/></linearGradient><path d="M64.1 81.8L43.8 84c-2.6.3-4.9-1.6-5.1-4.2l-4.3-41.4c-.3-2.6 1.6-4.9 4.2-5.1l20.3-2.1c2.6-.3 4.9 1.6 5.1 4.2l4.3 41.4c.2 2.5-1.6 4.8-4.2 5z" fill="url(#SVGID_5_)"/><linearGradient id="SVGID_6_" gradientUnits="userSpaceOnUse" x1="11.997" y1="51.276" x2="95.386" y2="-35.019" gradientTransform="scale(1 -1) rotate(5.987 937.505 227.194)"><stop offset="0" stop-color="#fff"/><stop offset="1" stop-color="#cbb3ff"/></linearGradient><path d="M63 79l-18.8 2c-2.3.2-4.4-1.4-4.6-3.7l-3.8-36.5c-.2-2.3 1.4-4.4 3.7-4.6l18.8-2c2.3-.2 4.4 1.4 4.6 3.7l3.8 36.5c.3 2.3-1.4 4.3-3.7 4.6z" fill="url(#SVGID_6_)"/><linearGradient id="SVGID_7_" gradientUnits="userSpaceOnUse" x1="21.195" y1="49.863" x2="19.773" y2="55.921" gradientTransform="scale(1 -1) rotate(5.987 937.505 227.194)"><stop offset="0" stop-color="#8b69c5"/><stop offset="1" stop-color="#cbb3ff"/></linearGradient><path d="M47.1 42.4l-6.5.7c-.4 0-.7-.2-.8-.6 0-.4.2-.7.6-.8l6.5-.7c.4 0 .7.2.8.6 0 .5-.2.8-.6.8z" opacity=".25" fill="url(#SVGID_7_)"/><linearGradient id="SVGID_8_" gradientUnits="userSpaceOnUse" x1="23.971" y1="46.454" x2="21.964" y2="55.002" gradientTransform="scale(1 -1) rotate(5.987 937.505 227.194)"><stop offset="0" stop-color="#8b69c5"/><stop offset="1" stop-color="#cbb3ff"/></linearGradient><path d="M52.4 44.2l-11.6 1.2c-.4 0-.7-.2-.8-.6 0-.4.2-.7.6-.8l11.6-1.2c.4 0 .7.2.8.6.1.4-.2.7-.6.8z" opacity=".25" fill="url(#SVGID_8_)"/><linearGradient id="SVGID_9_" gradientUnits="userSpaceOnUse" x1="22.742" y1="35.23" x2="18.874" y2="51.704" gradientTransform="scale(1 -1) rotate(5.987 937.505 227.194)"><stop offset="0" stop-color="#8b69c5"/><stop offset="1" stop-color="#cbb3ff"/></linearGradient><path d="M47 55.4l-2.7.3c-1.2.1-2.4-.8-2.5-2l-.3-2.7c-.1-1.2.8-2.4 2-2.5l2.7-.3c1.2-.1 2.4.8 2.5 2l.3 2.7c.1 1.3-.8 2.4-2 2.5z" opacity=".25" fill="url(#SVGID_9_)"/><linearGradient id="SVGID_10_" gradientUnits="userSpaceOnUse" x1="34.112" y1="35.22" x2="30.244" y2="51.693" gradientTransform="scale(1 -1) rotate(5.987 937.505 227.194)"><stop offset="0" stop-color="#8b69c5"/><stop offset="1" stop-color="#cbb3ff"/></linearGradient><path d="M58.3 54.2l-2.7.3c-1.2.1-2.4-.8-2.5-2l-.3-2.7c-.1-1.2.8-2.4 2-2.5l2.7-.3c1.2-.1 2.4.8 2.5 2l.3 2.7c.2 1.3-.7 2.4-2 2.5z" opacity=".25" fill="url(#SVGID_10_)"/><linearGradient id="SVGID_11_" gradientUnits="userSpaceOnUse" x1="22.754" y1="25.784" x2="18.886" y2="42.257" gradientTransform="scale(1 -1) rotate(5.987 937.505 227.194)"><stop offset="0" stop-color="#8b69c5"/><stop offset="1" stop-color="#cbb3ff"/></linearGradient><path d="M48 64.8l-2.7.3c-1.2.1-2.4-.8-2.5-2l-.3-2.7c-.1-1.2.8-2.4 2-2.5l2.7-.3c1.2-.1 2.4.8 2.5 2l.3 2.7c.1 1.3-.8 2.4-2 2.5z" opacity=".25" fill="url(#SVGID_11_)"/><linearGradient id="SVGID_12_" gradientUnits="userSpaceOnUse" x1="30.776" y1="40.744" x2="33.843" y2="26.323" gradientTransform="scale(1 -1) rotate(5.987 937.505 227.194)"><stop offset="0" stop-color="#c7ffab"/><stop offset="1" stop-color="#83cfd3"/></linearGradient><path d="M59.3 63.6l-2.7.3c-1.2.1-2.4-.8-2.5-2l-.3-2.7c-.1-1.2.8-2.4 2-2.5l2.7-.3c1.2-.1 2.4.8 2.5 2l.3 2.7c.2 1.3-.7 2.4-2 2.5z" fill="url(#SVGID_12_)"/><linearGradient id="SVGID_13_" gradientUnits="userSpaceOnUse" x1="22.675" y1="16.315" x2="18.806" y2="32.789" gradientTransform="scale(1 -1) rotate(5.987 937.505 227.194)"><stop offset="0" stop-color="#8b69c5"/><stop offset="1" stop-color="#cbb3ff"/></linearGradient><path d="M48.9 74.2l-2.7.3c-1.2.1-2.4-.8-2.5-2l-.3-2.7c-.1-1.2.8-2.4 2-2.5l2.7-.3c1.2-.1 2.4.8 2.5 2l.3 2.7c.2 1.3-.7 2.4-2 2.5z" opacity=".25" fill="url(#SVGID_13_)"/><linearGradient id="SVGID_14_" gradientUnits="userSpaceOnUse" x1="34.137" y1="16.327" x2="30.268" y2="32.8" gradientTransform="scale(1 -1) rotate(5.987 937.505 227.194)"><stop offset="0" stop-color="#8b69c5"/><stop offset="1" stop-color="#cbb3ff"/></linearGradient><path d="M60.3 73l-2.7.3c-1.2.1-2.4-.8-2.5-2l-.3-2.7c-.1-1.2.8-2.4 2-2.5l2.7-.3c1.2-.1 2.4.8 2.5 2l.3 2.7c.1 1.3-.8 2.4-2 2.5z" opacity=".25" fill="url(#SVGID_14_)"/><path fill="none" stroke="#fff" stroke-miterlimit="10" d="M56.3 60.1l1.3 1 1.6-2"/><path transform="rotate(-5.987 48.794 33.5)" opacity=".45" d="M45.3 33.2h7v.6h-7z"/><linearGradient id="SVGID_15_" gradientUnits="userSpaceOnUse" x1="65.449" y1="47.046" x2="95.177" y2="9.459" gradientTransform="matrix(1 0 0 -1 0 112)"><stop offset=".004" stop-color="#ffc7d7"/><stop offset="1" stop-color="#ff97ab"/></linearGradient><path d="M79.8 81.2s0 .1 0 0l-10.2-4-1.4-.5s-.1-.3-.2-.7c-.4-1.5-1.4-4.6-1.4-4.6s-.1 0-.2-.1c-.7-.3-2.6-1.3-4.3-2.6-1.1-.8-2.2-1.8-2.9-2.8-.1-.1-.1-.2-.2-.2-.1-.1-.2-.3-.2-.4-.3-.5-.5-1-.6-1.5-.3-1-.5-2.1-.4-2.9.1-1 .4-1.8 1-1.9.2 0 .5 0 .9.2.3.2.9.4 1.5.7.7.3 1.6.7 2.6 1 .5.2 1.1.4 1.6.7.4.2.9.4 1.3.5 2.9 1.2 5.6 2.5 6.3 3.5 1.4 2 3.4 11.7 6.8 15.6z" fill="url(#SVGID_15_)"/><linearGradient id="SVGID_16_" gradientUnits="userSpaceOnUse" x1="60.873" y1="45.397" x2="61.419" y2="53.007" gradientTransform="matrix(1 0 0 -1 0 112)"><stop offset=".004" stop-color="#ffc7d7"/><stop offset="1" stop-color="#ff97ab"/></linearGradient><path d="M63.8 60.9l-1.1 1.9s-3.5-1.6-3.8-3.8c.2 0 .5 0 .9.2.7.3 2.2 1 4 1.7z" fill="url(#SVGID_16_)"/><linearGradient id="SVGID_17_" gradientUnits="userSpaceOnUse" x1="64.971" y1="30.44" x2="63.512" y2="51.296" gradientTransform="matrix(1 0 0 -1 0 112)"><stop offset=".004" stop-color="#ffc7d7"/><stop offset="1" stop-color="#ff97ab"/></linearGradient><path d="M69.6 77.3l-1.4-.6c0-.2-1.5-5.3-1.5-5.3s-5.7-2.6-7.6-5.8c-.1-.1-.2-.3-.2-.4C61.5 68 66 69 67 70.1c1.1 1.2 2.4 5.2 2.6 7.2z" fill="url(#SVGID_17_)"/><linearGradient id="SVGID_18_" gradientUnits="userSpaceOnUse" x1="-3.977" y1="57.547" x2="18.51" y2="48.278" gradientTransform="matrix(1 0 0 -1 0 112)"><stop offset="0" stop-color="#c7ffab"/><stop offset="1" stop-color="#83cfd3"/></linearGradient><path d="M26.8 73.3c0 .8-.1 1.4-.2 1.9l-.3-.3c-.3-.4-.7-.8-1-1.2-1.5-1.8-2.8-3.8-4-5.8-1.6-2.3-4.3-3.7-7.2-4.8-1.1-.4-2.3-.8-3.4-1.2-4.1-1.4-8.1-2.7-9.9-5.2-3.3-4.9 3.9-7.2 11.4-3.7.9.4 1.9.9 2.8 1.5.2.1.5.3.7.5l1.2.9c6.2 4.7 9.1 9.6 9.7 14.8.2.7.2 1.6.2 2.6z" fill="url(#SVGID_18_)"/><path class="st5" d="M26.8 73.3c0 .8-.1 1.4-.2 1.9l-.3-.3c-.3-.4-.7-.8-1-1.2-1.5-1.8-2.8-3.8-4-5.8-1.6-2.3-4.3-3.7-7.2-4.8 2.3-2.8 1.7-7.4-1.9-10.2.9.4 1.9.9 2.8 1.5.2.1.5.3.7.5l1.2.9c6.2 4.7 9.1 9.6 9.7 14.8.2.8.2 1.7.2 2.7z"/><path class="st25" d="M5.2 55s13.2 1.7 16.3 8.7"/><linearGradient id="SVGID_19_" gradientUnits="userSpaceOnUse" x1="16.906" y1="66.968" x2="11.928" y2="16.845" gradientTransform="matrix(1 0 0 -1 0 112)"><stop offset="0" stop-color="#c7ffab"/><stop offset="1" stop-color="#83cfd3"/></linearGradient><path d="M27.9 64.4c-.1 2.1-.5 4.2-1.2 6.1-.4 1.1-.9 2.1-1.4 3.2-1.5-1.8-2.8-3.8-4-5.8.3-3.9-1.5-7.4-4.1-10.8-.7-.9-1.4-1.8-2.2-2.7-3.2-3.7-6.9-7.3-8.9-10.8-.7-1.3-1.3-2.6-1.4-3.9-.9-6.5 6.3-6.3 12.6-.7 2.1 1.8 4 4.2 5.6 7.1 2.3 4.2 3.7 8.1 4.5 11.6.3 1.4.5 2.8.5 4.1.1.9.1 1.8 0 2.6z" fill="url(#SVGID_19_)"/><path class="st25" d="M11.6 39.6c4.8 4.9 16.5 15.6 11.8 31.6"/><path d="M27.4 57.7c.1 1 .1 1.9.2 2.8-2.5-9.8-9.3-20-14.3-22.6-4.9-2.6-8.5.7-7.1 5.7-.7-1.3-1.3-2.6-1.4-3.9-1-6.5 6.2-6.3 12.5-.7 2.1 1.8 4 4.2 5.6 7.1 2.3 4.3 3.8 8.1 4.5 11.6z" opacity=".25" fill="#fff"/></svg>