<svg version="1.1" id="Layer_1" xmlns="http://www.w3.org/2000/svg" x="0" y="0" viewBox="0 0 110 110" xml:space="preserve"><style>.st1{fill:#ff227d}.st2{fill:#797bf2}.st3{fill:#6a6377}</style><circle cx="55" cy="69.8" r="21.4" fill="#d2d4ff"/><path class="st1" d="M42.1 57.4h26.1V88H42.1zm18.3-28.3H49.6v-7.6l-3.5-.2v-4l3.8-1.3 3.1-.9.1.5c.2.9 1 1.6 1.9 1.6s1.8-.7 1.9-1.6l.1-.5 3.1.9 3.8 1.3v4l-3.5.2v7.6z"/><path class="st2" d="M48.2 57.4V88h20V57.4h-20zM61.6 72c-.2.7-.7 1.3-1.4 1.6-.4.5-1 .9-1.9.9-1 0-1.7-.5-2.1-1.1-.4-.3-.7-.7-.9-1.1-2.4-.8-2.1-5 .9-5 .9 0 1.6.4 2 1 .4-.6 1.1-1 2-1 2.8-.1 3.3 3.5 1.4 4.7z"/><path class="st3" d="M22.1 60.8c-7.3 0-13.2-5.9-13.2-13.2 0-7.3 5.9-13.2 13.2-13.2 7.3 0 13.2 5.9 13.2 13.2 0 7.3-5.9 13.2-13.2 13.2zm0-25.6c-6.8 0-12.4 5.6-12.4 12.4 0 6.8 5.6 12.4 12.4 12.4 6.8 0 12.4-5.6 12.4-12.4 0-6.9-5.5-12.4-12.4-12.4zm65.8 25.6c-7.3 0-13.2-5.9-13.2-13.2 0-7.3 5.9-13.2 13.2-13.2 7.3 0 13.2 5.9 13.2 13.2 0 7.3-5.9 13.2-13.2 13.2zm0-25.6c-6.8 0-12.4 5.6-12.4 12.4C75.5 54.4 81 60 87.9 60c6.8 0 12.4-5.6 12.4-12.4 0-6.9-5.6-12.4-12.4-12.4zM55 34.9c-7.3 0-13.2-5.9-13.2-13.2 0-7.3 5.9-13.2 13.2-13.2 7.3 0 13.2 5.9 13.2 13.2 0 7.2-5.9 13.2-13.2 13.2zm0-25.7c-6.8 0-12.4 5.6-12.4 12.4S48.2 34.1 55 34.1c6.8 0 12.4-5.6 12.4-12.4S61.8 9.2 55 9.2z"/><path d="M87.5 78.5l-1.6-.5c-.1.4-.3.9-.5 1.3s-.3.8-.5 1.3l1.5.7c.2-.4.4-.9.5-1.3.3-.6.4-1.1.6-1.5zm1.3-5l-1.6-.3-.2.7-.2.7c-.1.4-.2.9-.3 1.3l1.6.4c.1-.5.2-.9.3-1.4l.2-.7.2-.7zm.5-5.1l-1.7-.1c0 .5 0 .9-.1 1.4 0 .5-.1.9-.1 1.4l1.7.2c.1-.5.1-.9.1-1.4.1-.5.1-1 .1-1.5zm-9.9 23l-1.2-1.2c-.6.6-1.3 1.3-2 1.8l1.1 1.3c.7-.5 1.4-1.2 2.1-1.9zm3.3-3.9l-1.3-1c-.3.4-.6.7-.8 1.1-.3.4-.6.7-.9 1l1.3 1.1c.3-.4.6-.7.9-1.1.2-.3.5-.7.8-1.1zm2.7-4.3l-1.5-.8c-.2.4-.4.8-.7 1.2l-.3.6-.4.6 1.4.9.4-.6.4-.6c.3-.5.5-.9.7-1.3zM66.5 99.6l-.6-1.6-1.3.4-1.3.4.4 1.6 1.4-.4c.5-.1.9-.2 1.4-.4zm4.7-2l-.8-1.5-1.2.6-1.3.6.7 1.5 1.3-.6zm4.3-2.8l-1-1.3-1.1.8c-.4.3-.8.5-1.1.7l.9 1.4c.4-.3.8-.5 1.2-.8l1.1-.8zm-24.2 6.6l.2-1.7-1.4-.2c-.4-.1-.9-.2-1.3-.2l-.3 1.6c.5.1.9.2 1.4.2l1.4.3zm5.1.2v-1.7h-2.8v1.7H55zm5.1-.6l-.3-1.6c-.4.1-.9.2-1.3.2l-1.4.2.2 1.7 1.4-.2c.5-.2.9-.2 1.4-.3zm-24.6-4.6l.9-1.4c-.4-.2-.8-.5-1.1-.7l-1.1-.8-1 1.3 1.2.8c.2.3.7.5 1.1.8zm4.5 2.4l.7-1.5-1.3-.6-1.2-.6-.8 1.4 1.3.7zm4.8 1.7l.4-1.6-1.3-.4L44 98l-.5 1.6 1.3.5zM26 85.6l1.4-.9-.4-.5-.3-.6c-.2-.4-.5-.8-.7-1.2l-1.5.8c.2.4.5.8.7 1.3l.4.6.4.5zm3.1 4.2l1.3-1.1c-.3-.3-.6-.7-.9-1-.3-.4-.6-.7-.8-1.1l-1.3 1c.3.4.6.8.9 1.1.1.3.5.7.8 1.1zm3.6 3.6l1.1-1.3c-.7-.6-1.4-1.2-2-1.8l-1.2 1.2c.7.6 1.4 1.2 2.1 1.9zM20.9 71.2l1.7-.2c-.1-.4-.1-.9-.1-1.4 0-.5-.1-.9-.1-1.4l-1.7.1c0 .5 0 1 .1 1.4 0 .6 0 1.1.1 1.5zm1 5.1l1.6-.4c-.1-.4-.2-.9-.3-1.3l-.2-.7-.1-.7-1.6.3.1.7.2.7c0 .4.1.9.3 1.4zm1.7 4.8l1.5-.7c-.2-.4-.4-.8-.5-1.3l-.2-.6-.2-.6-1.6.5.2.7.3.7c.1.4.3.9.5 1.3zm-2.9-15l1.7.1c0-.5 0-.9.1-1.4 0-.5.1-.9.1-1.4l-1.7-.2c-.1.5-.1.9-.1 1.4-.1.5-.1 1-.1 1.5zm68.4-2.8l-1.7.2c.1.4.1.9.1 1.4 0 .5.1.9.1 1.4l1.7-.1c0-.5 0-1-.1-1.4 0-.6 0-1.1-.1-1.5z" fill-rule="evenodd" clip-rule="evenodd" fill="#6a6377"/><path class="st3" d="M48.5 88.4h-7.2V57h7.2v31.4zm-6.3-.8h5.5V57.8h-5.5v29.8z"/><path class="st3" d="M68.6 88.4H47.7V57h20.9v31.4zm-20.1-.8h19.3V57.8H48.5v29.8z"/><path class="st3" d="M63.4 57.8h-11v-5.5c0-3 2.5-5.5 5.5-5.5s5.5 2.5 5.5 5.5v5.5zM53.2 57h9.3v-4.7c0-2.6-2.1-4.7-4.7-4.7s-4.7 2.1-4.7 4.7V57z"/><path class="st3" d="M58.7 57.8h-11v-5.5c0-3 2.5-5.5 5.5-5.5s5.5 2.5 5.5 5.5v5.5zM48.5 57h9.3v-4.7c0-2.6-2.1-4.7-4.7-4.7s-4.7 2.1-4.7 4.7V57z"/><path class="st1" d="M60.4 29.1H49.6v-7.6l-3.5-.2v-4l3.8-1.3 3.1-.9.1.5c.2.9 1 1.6 1.9 1.6s1.8-.7 1.9-1.6l.1-.5 3.1.9 3.8 1.3v4l-3.5.2v7.6zm-9.9-.8h9.1v-7.6l3.5-.2v-2.6l-3.3-1.1-2.2-.6c-.4 1.1-1.4 1.8-2.6 1.8-1.2 0-2.2-.8-2.6-1.9l-2.2.6-3.2 1.1v2.6l3.5.2v7.7z"/><path class="st3" d="M94 46.7h-.8c0-2.9-2.4-5.3-5.3-5.3s-5.3 2.4-5.3 5.3h-.8c0-3.3 2.7-6.1 6.1-6.1 3.4.1 6.1 2.8 6.1 6.1zm-6.1 8.4c-3.3 0-6.1-2.7-6.1-6.1h.8c0 2.9 2.4 5.3 5.3 5.3s5.3-2.4 5.3-5.3h.8c0 3.4-2.7 6.1-6.1 6.1z"/><path class="st3" d="M93.7 47.7L91.6 46l.5-.6 1.5 1.2 1.2-1.5.6.6zM81 50.4l-.7-.6 1.8-2 2.1 1.6-.5.7-1.5-1.2zM58.3 75.1c-.1 0-.2 0-.3-.1-1.3-.8-2.3-1.5-3.2-2.4-.6-.6-1.1-1.2-1.3-1.8-.2-.5-.3-1-.3-1.5.1-1.2.9-2.2 2-2.6 1.1-.4 2.3-.1 3.1.8l.2-.2c.6-.5 1.4-.8 2.2-.7 1.4.1 2.5 1.1 2.7 2.5.1.7 0 1.3-.4 2-.3.5-.7 1-1.2 1.5-.9.8-1.9 1.6-3.2 2.4-.1.1-.2.1-.3.1zm-2.2-7.6c-.2 0-.5 0-.7.1-.8.3-1.4 1-1.4 1.8 0 .4 0 .7.2 1.1.2.5.6 1 1.2 1.6.8.8 1.7 1.5 2.9 2.2 1.2-.7 2.1-1.4 2.9-2.2.5-.5.8-.9 1-1.3.3-.5.4-1 .3-1.5-.1-1-1-1.7-1.9-1.8-.6-.1-1.2.1-1.6.5l-.3.3-.2.2-.3.3-.3-.4s0-.1-.1-.1c-.4-.5-1-.8-1.7-.8zm-2.5 10.7H63v.8h-9.4zm0 2.4H63v.8h-9.4zm0 2.5H63v.8h-9.4z"/><path class="st2" d="M22.1 38.8l5.4 8.3h-2.9v9.7h-4.9v-9.7h-2.9l5.3-8.3z"/><path class="st2" d="M22.1 38.8l5.4 8.3h-2.9v9.7h-4.9v-9.7h-2.9l5.3-8.3zm3.9 7.5l-3.9-6-3.9 6h2.2V56h3.3v-9.7H26z"/></svg>