<svg version="1.1" id="Layer_1" xmlns="http://www.w3.org/2000/svg" x="0" y="0" viewBox="0 0 500 500" xml:space="preserve"><style>.st0{fill:#ebebeb}.st2{fill:#e0e0e0}.st5{fill:#263238}.st6{fill:#e8505b}.st7{fill:#3e22a0}.st8{fill:#5027bd}.st9{fill:#455a64}.st10{fill:#ffbe9d}.st11{fill:#eb996e}.st12{fill:#fafafa}</style><g id="Background_Complete"><path class="st0" d="M209.1 106.7c1-7.2-9.2-13.2-16.9-13.8-3.7-.3-7.4.3-10.9-.9-7.5-2.6-10.5-12.3-17.8-15.4-5.5-2.3-11.8-.3-17.1 2.4-5.3 2.7-10.5 6-16.5 6.4-5.2.3-10.7-1.6-15.3.9-3.4 1.9-5.1 5.7-8.2 8-3 2.2-7 2.7-10.7 2.9-3.8.2-7.7.2-11.1 1.8-3.4 1.6-6.3 5.2-5.5 8.9l130-1.2zm-96.7 54.4c-.1.1-3-5.2-6.5-11.8-3.4-6.6-6.1-12-6-12 .1-.1 3 5.2 6.5 11.8 3.4 6.5 6.1 11.9 6 12zm50.4 17.6c-.1.1-3-5.2-6.5-11.8-3.4-6.6-6.1-12-6-12 .1-.1 3 5.2 6.5 11.8 3.4 6.6 6.1 12 6 12zm50.4 17.7c-.1.1-3-5.2-6.5-11.8s-6.1-12-6-12c.1-.1 3 5.2 6.5 11.8 3.4 6.6 6.1 11.9 6 12zm50.4 17.7c-.1.1-3-5.2-6.5-11.8s-6.1-12-6-12c.1-.1 3 5.2 6.5 11.8 3.4 6.5 6.1 11.9 6 12zm50.4 17.7c-.1.1-3-5.2-6.5-11.8s-6.1-12-6-12c.1-.1 3 5.2 6.5 11.8 3.4 6.5 6.1 11.9 6 12zm50.4 17.7c-.1.1-3-5.2-6.5-11.8-3.4-6.6-6.1-12-6-12 .1-.1 3 5.2 6.5 11.8 3.4 6.5 6.1 11.9 6 12zm-38.5-54.8c-.1.1-3-5.2-6.5-11.8s-6.1-12-6-12c.1-.1 3 5.2 6.5 11.8 3.5 6.5 6.1 11.9 6 12zm-103.6 68.2c-.1.1-3-5.2-6.5-11.8-3.4-6.6-6.1-12-6-12s3 5.2 6.5 11.8 6.2 12 6 12zm-65.8-32.2c-.1.1-3-5.2-6.5-11.8-3.4-6.6-6.1-12-6-12 .1-.1 3 5.2 6.5 11.8 3.4 6.5 6.1 11.9 6 12zM271 169.2c-.1.1-3-5.2-6.5-11.8-3.4-6.6-6.1-12-6-12 .1-.1 3 5.2 6.5 11.8 3.5 6.5 6.2 11.9 6 12zm61.2-21.2c-.1.1-3-5.2-6.5-11.8-3.4-6.6-6.1-12-6-12 .1-.1 3 5.2 6.5 11.8 3.4 6.6 6.1 12 6 12zm51.1-4.1c-.1.1-3-5.2-6.5-11.8-3.4-6.6-6.1-12-6-12 .1-.1 3 5.2 6.5 11.8 3.4 6.5 6.1 11.9 6 12zm-48.6-47.8c-.1.1-3-5.2-6.5-11.8-3.5-6.6-6.1-12-6-12 .1-.1 3 5.2 6.5 11.8 3.5 6.5 6.2 11.9 6 12zm-118.6 47.5c-.1.1-3-5.2-6.5-11.8-3.4-6.6-6.1-12-6-12 .1-.1 3 5.2 6.5 11.8 3.5 6.5 6.2 11.9 6 12zm31.1-39.8c-.1.1-3-5.2-6.5-11.8-3.4-6.6-6.1-12-6-12 .1-.1 3 5.2 6.5 11.8 3.5 6.5 6.2 11.9 6 12zm-84.4 27.9c-.1.1-3-5.2-6.5-11.8-3.4-6.6-6.1-12-6-12 .1-.1 3 5.2 6.5 11.8 3.4 6.5 6.1 11.9 6 12z"/><path class="st0" d="M370.2 74.1c1.1-8.3-10.5-15.1-19.3-15.8-4.2-.3-8.5.3-12.5-1.1-8.6-3-12-14.1-20.4-17.6-6.3-2.6-13.5-.3-19.6 2.8s-12.1 6.9-18.9 7.3c-5.9.4-12.3-1.8-17.5 1.1-3.9 2.2-5.9 6.6-9.4 9.2-3.5 2.6-8 3.1-12.3 3.3s-8.8.3-12.7 2.1c-3.9 1.8-7.2 5.9-6.4 10.2l149-1.5zm-33.9 51.6c.7-5-6.3-9-11.6-9.5-2.5-.2-5.1.2-7.5-.6-5.1-1.8-7.2-8.4-12.2-10.6-3.8-1.6-8.1-.2-11.7 1.7-3.6 1.8-7.2 4.1-11.3 4.4-3.5.2-7.4-1.1-10.5.6-2.3 1.3-3.5 3.9-5.6 5.5-2.1 1.5-4.8 1.9-7.4 2s-5.2.2-7.6 1.2c-2.3 1.1-4.3 3.6-3.8 6.1l89.2-.8zM112.7 453.8c8.7 13.3 27.1 19.2 41.9 13.4 7-2.7 12.9-7.6 19.8-10.5 9.4-4 20.2-4.1 30.3-2.4s19.9 5.2 29.7 8c22.1 6.3 45 9.7 67.9 10.1 14.3.2 28.9-.9 42.2-6.2 13.3-5.4 25.1-15.6 29.7-29.1 0 0-269.5-1.5-271 0l-3.2 3.2 12.7 13.5z"/><path d="M115.2 416.2c20.8-9.8 29.1-33.2 32.1-55 .5-3.6 1.5-7.4.4-10.8-1.2-3.5-4.8-6.3-8.3-5.3-2.9.8-4.6 3.7-6.5 6.1-2.6 3.1-6 5.4-9.9 6.7-2.5.8-5.5 1-7.5-.6-2.8-2.3-2.5-6.6-1.8-10.2l3.6-20.1c.6-3.6 1.3-7.3.7-10.9-.5-3.6-2.5-7.2-5.7-8.7-3.3-1.5-7.8-.3-9.1 3.1-.6 1.4-.5 3-.9 4.5s-1.3 3-2.8 3.2-2.8-1.1-3.7-2.3c-3.1-4.3-4.8-9.4-6.4-14.4-1.6-5.1-3-10.2-5.7-14.7s-6.8-8.5-11.9-9.6c-5.1-1.2-11.1 1.1-13.3 5.9s-.1 10.5 2.4 15.2c3.7 6.9 8.5 13.3 14 18.8 1 1 2.1 2.1 2.3 3.5.4 2.5-2.3 4.5-4.8 4.9-2.8.4-5.7-.3-8.6-.5-2.9-.1-6.1.6-7.6 3-2.1 3.4.3 7.8 2.9 10.8 5.2 6.1 11.4 11.3 18.4 15.2 2.5 1.4 5.1 2.7 6.9 5 1.8 2.2 2.6 5.7.8 8-1.7 2.3-5.2 2.6-7.9 1.6s-4.9-2.9-7.4-4.4c-4.6-2.7-11.1-3.5-15 .3-2.6 2.5-3.4 6.3-2.9 9.9.5 3.5 2.1 6.8 3.9 9.8 6.3 10.6 15.2 19.9 26 25.8 10.7 5.6 21.2 8.4 33.3 6.2" fill="#f5f5f5"/><path class="st2" d="M111.9 401.7c-1.3-11.5-3.8-23.9-6.9-36.9-.8-3.2-1.5-6.4-2.3-9.6-.8-3.1-1.5-6.3-2.4-9.3-1.8-6-4-11.7-6.3-16.9-2.3-5.3-4.6-10.2-6.8-14.8-2.2-4.6-4.4-8.8-6.5-12.6-4.3-7.6-8.4-13.3-11.4-17.1-1.5-1.9-2.7-3.3-3.5-4.3-.4-.5-.7-.8-1-1.1-.2-.2-.3-.4-.3-.4s.1.1.3.4c.2.3.5.7.9 1.1.8 1 2 2.5 3.4 4.4 2.9 3.8 7 9.6 11.2 17.2 2.1 3.8 4.2 8 6.5 12.6 2.2 4.6 4.5 9.5 6.8 14.8s4.4 10.9 6.3 16.9c.9 3 1.7 6.1 2.4 9.2.8 3.1 1.5 6.3 2.3 9.6 3.1 12.9 5.6 25.4 6.9 36.8"/><path class="st2" d="M100.1 345.9s.3-.5.6-1.5c.4-1 .8-2.4 1.4-4.1 1.1-3.5 2.5-8.4 4-13.8s2.9-10.2 4.1-13.7c.6-1.7 1.1-3.1 1.4-4.1s.5-1.5.5-1.5-.3.5-.7 1.4c-.4.9-1 2.3-1.6 4-1.3 3.4-2.8 8.3-4.3 13.7-1.5 5.3-2.8 10.1-3.8 13.8-.5 1.7-.9 3.1-1.2 4.2-.3 1-.5 1.6-.4 1.6zm-44.8-16.5s.6.2 1.8.5 2.9.7 4.9 1.4c4.2 1.2 9.8 3 16 5.3s11.7 4.6 15.6 6.4c2 .9 3.6 1.6 4.6 2.2 1.1.5 1.7.8 1.7.8s-.6-.4-1.6-1c-1.1-.6-2.6-1.4-4.6-2.4-3.9-1.9-9.4-4.3-15.6-6.6-6.2-2.3-11.9-4.1-16.1-5.1-2.1-.5-3.8-.9-5-1.1-1-.4-1.7-.5-1.7-.4zm56.2 71.3s.2-.2.4-.5c.3-.4.6-.9 1.1-1.5.9-1.3 2.2-3.3 3.8-5.8 3.1-4.9 7.2-11.8 11.7-19.6 4.4-7.7 8.5-14.7 11.5-19.6 1.5-2.4 2.7-4.4 3.6-5.9.4-.6.7-1.2 1-1.6l.3-.6s-.2.2-.4.5c-.3.4-.6.9-1.1 1.5-.9 1.3-2.2 3.3-3.8 5.8-3.1 4.9-7.2 11.8-11.7 19.6-4.4 7.7-8.5 14.7-11.5 19.6-1.5 2.4-2.7 4.4-3.6 5.9-.4.6-.7 1.2-1 1.6l-.3.6zm-58.1-30.2s.2.1.6.4c.5.2 1 .5 1.7.9 1.6.8 3.7 1.9 6.2 3.3 5.2 2.7 12.5 6.6 20.4 10.9 8 4.3 15.2 8.1 20.5 10.8 2.7 1.3 4.8 2.4 6.3 3.1.7.3 1.3.6 1.7.8.4.2.6.3.6.2 0 0-.2-.1-.6-.4-.5-.2-1-.5-1.7-.9-1.6-.8-3.7-1.9-6.2-3.3-5.3-2.7-12.5-6.6-20.4-10.9-8-4.3-15.2-8.1-20.5-10.8-2.7-1.3-4.8-2.4-6.3-3.1-.7-.3-1.3-.6-1.7-.8-.4-.2-.6-.3-.6-.2z"/></g><path class="st5" d="M464.7 435.5c0 .1-97.9.3-218.7.3s-218.7-.1-218.7-.3c0-.1 97.9-.3 218.7-.3s218.7.1 218.7.3z" id="Floor"/><g id="Character"><path class="st6" d="M110.1 371.1l-20.2 31.3s-38.6-10-42.9-4.5l59.4 41.3 33.4-47.5-29.7-20.6z"/><path class="st7" d="M110.1 371.1l-20.2 31.3s-38.6-10-42.9-4.5l59.4 41.3 33.4-47.5-29.7-20.6z"/><path class="st2" d="M110.1 412.7c.9 1.1.8 3-.2 3.9-1.1 1-3 .9-3.9-.2s-.9-3.3.3-4.2c1.2-.8 3.4-.6 4 .7m-3.9 26.3l3.3-4.7-58.3-37.9s-3.4-.7-4.4 1.4l59.4 41.2z"/><path class="st5" d="M89.2 401.5c-.2.3 1.2 1.4 1.9 3.4.8 1.9.7 3.7 1 3.7.3.1 1.1-1.9.1-4.2-.9-2.3-2.9-3.2-3-2.9zm-8-1.7c-.3.2.7 1.6.8 3.5.2 1.9-.5 3.4-.2 3.6.2.2 1.6-1.3 1.4-3.7-.2-2.4-1.8-3.7-2-3.4zm-8.8 5c.2.2 1.6-.9 2-3s-.6-3.7-.8-3.5c-.3.1 0 1.6-.4 3.3-.3 1.6-1 2.9-.8 3.2zm22.2-9.9c-.1.3 1.5.9 3.1 2.1s2.5 2.7 2.8 2.5c.3-.1-.2-2-2-3.5-1.9-1.4-3.9-1.4-3.9-1.1zm4.2-6.3c-.1.1.9 1.1 3 2.1 1 .5 2.3.9 3.8 1.2.7.1 1.5.2 2.3.3.4 0 .8.1 1.4-.1.5-.1 1.2-.7 1.2-1.5 0-.7-.4-1.2-.8-1.5s-.8-.5-1.2-.6c-.8-.3-1.5-.5-2.3-.7-1.5-.3-2.9-.3-4-.1-2.3.3-3.5 1.1-3.4 1.2.1.2 1.4-.3 3.5-.3 1.1 0 2.3 0 3.7.3.7.2 1.4.4 2.1.7.7.3 1.3.6 1.2 1 0 .1 0 .2-.3.3-.3.1-.6.1-1 .1-.8 0-1.5-.1-2.2-.2-1.4-.2-2.6-.5-3.6-.9-2.2-.7-3.3-1.4-3.4-1.3z"/><path class="st5" d="M98.8 389.3c.1.1 1.4-.5 2.8-2.3.7-.9 1.4-2.1 1.9-3.5.2-.7.4-1.5.5-2.3s.2-1.9-.9-2.8c-.6-.4-1.4-.3-1.8 0-.5.3-.8.6-1.1.9-.6.6-1.1 1.3-1.4 2-.7 1.4-.9 2.8-.9 4 .1 2.3 1.1 3.5 1.2 3.5.2-.1-.4-1.3-.3-3.4.1-1 .3-2.3 1-3.4.3-.6.7-1.2 1.2-1.7.5-.6 1.1-.9 1.3-.7.3.2.5 1 .4 1.7s-.2 1.5-.4 2.1c-.4 1.3-.9 2.5-1.5 3.4-1 1.5-2.1 2.4-2 2.5z"/><path class="st8" d="M116.3 400.1l-20.2 31.3s-38.6-10-42.9-4.5l59.4 41.3 33.4-47.5-29.7-20.6z"/><path class="st2" d="M116.3 441.6c.9 1.1.8 3-.2 3.9-1.1 1-3 .9-3.9-.2s-.9-3.3.3-4.2c1.2-.8 3.4-.6 4 .7m-3.9 26.4l3.3-4.7-58.3-37.9s-3.4-.7-4.4 1.4l59.4 41.2z"/><path class="st5" d="M95.4 430.5c-.2.3 1.2 1.4 1.9 3.4.8 1.9.7 3.7 1 3.7.3.1 1.1-1.9.1-4.2-.9-2.4-2.9-3.3-3-2.9zm-8-1.8c-.3.2.7 1.6.8 3.5.2 1.9-.5 3.4-.2 3.6.2.2 1.6-1.3 1.4-3.7-.2-2.4-1.8-3.7-2-3.4zm-8.7 5c.2.2 1.6-.9 2-3s-.6-3.7-.8-3.5c-.3.1 0 1.6-.4 3.3-.3 1.7-1.1 3-.8 3.2zm22.1-9.9c-.1.3 1.5.9 3.1 2.1s2.5 2.7 2.8 2.5c.3-.1-.2-2-2-3.5-1.9-1.4-3.9-1.4-3.9-1.1zm4.2-6.2c-.1.1.9 1.1 3 2.1 1 .5 2.3.9 3.8 1.2.7.1 1.5.2 2.3.3.4 0 .8.1 1.4-.1.5-.1 1.2-.7 1.2-1.5 0-.7-.4-1.2-.8-1.5s-.8-.5-1.2-.6c-.8-.3-1.5-.5-2.3-.7-1.5-.3-2.9-.3-4-.1-2.3.3-3.5 1.1-3.4 1.2.1.2 1.4-.3 3.5-.3 1.1 0 2.3 0 3.7.3.7.2 1.4.4 2.1.7.7.3 1.3.6 1.2 1 0 .1 0 .2-.3.3-.3.1-.6.1-1 .1-.8 0-1.5-.1-2.2-.2-1.4-.2-2.6-.5-3.6-.9-2.1-.8-3.3-1.5-3.4-1.3z"/><path class="st5" d="M105.1 418.2c.1.1 1.4-.5 2.8-2.3.7-.9 1.4-2.1 1.9-3.5.2-.7.4-1.5.5-2.3s.2-1.9-.9-2.8c-.6-.4-1.4-.3-1.8 0-.5.3-.8.6-1.1.9-.6.6-1.1 1.3-1.4 2-.7 1.4-.9 2.8-.9 4 .1 2.3 1.1 3.5 1.2 3.5.2-.1-.4-1.3-.3-3.4.1-1 .3-2.3 1-3.4.3-.6.7-1.2 1.2-1.7.5-.6 1.1-.9 1.3-.7.3.2.5 1 .4 1.7s-.2 1.5-.4 2.1c-.4 1.3-.9 2.5-1.5 3.4-1.1 1.5-2.2 2.4-2 2.5z"/><path class="st5" d="M107.8 406.4s17.4-32.6 15-29.3c-6.4 8.8 31.3-44.8 48.4-72.3 5.5-8.8 14.7-14.7 25.1-15.9 10.5-1.2 20.9 2.5 28.3 10.1l97.2 99.7L367 425s-11.1 23.7-47 28.7c-35.8 5-57.9-24.1-76-42.5-21.3-21.8-42.6-51.1-42.6-51.1l-56.6 74.7c-.1.1-35.2-26.2-37-28.4z"/><path class="st5" d="M177.5 294.8c-13.2 3.2-24.9 11-32.9 22.1l-49.9 68.6 24.1 16.5 58.7-107.2z"/><path class="st9" d="M169.2 302.6s-.1.1-.2.3c-.2.2-.3.4-.6.7-.3.3-.6.7-1 1.1s-.8 1-1.2 1.6c-1.9 2.4-4.3 6.1-7.2 10.7-5.8 9.3-13.3 22.3-21.5 36.8-8.1 14.5-15.5 27.7-20.9 37.2-2.7 4.7-4.9 8.6-6.4 11.3-.8 1.3-1.3 2.3-1.8 3-.2.3-.3.6-.5.8-.1.2-.2.3-.2.3s0-.1.1-.3c.1-.2.2-.5.4-.8.4-.7 1-1.8 1.7-3.1 1.5-2.7 3.6-6.6 6.2-11.3 5.3-9.6 12.6-22.8 20.8-37.3s15.8-27.6 21.6-36.8c3-4.6 5.4-8.3 7.3-10.7.5-.6.9-1.2 1.3-1.6.4-.4.7-.8 1-1.1.3-.3.5-.5.6-.7.4 0 .5-.1.5-.1zm30.7 39.3c.1 0 .1 1.1.1 2.8 0 1.7.1 4 .4 6.6.3 2.6.7 4.9 1.1 6.5.4 1.7.6 2.7.6 2.7-.1 0-.5-1-.9-2.6-.5-1.6-1-4-1.3-6.6s-.3-5-.2-6.7c0-1.7.1-2.7.2-2.7z"/><path class="st9" d="M206.5 339.8c.1 0-.3 1.1-.8 2.9s-1.2 4.3-1.9 7.1c-.6 2.8-1 5.3-1.3 7.2-.3 1.9-.4 3-.5 3s-.1-1.2.1-3c.2-1.9.5-4.5 1.1-7.3s1.4-5.3 2-7.1c.8-1.8 1.3-2.8 1.3-2.8z"/><path class="st10" d="M272.1 170.5l26 60.8c4.4 10.3-.7 22.3-11.2 26.2-9.8 3.6-20.8-1.1-24.9-10.7-2-4.6-3.6-8.4-3.8-8.8 0 0-16.1 5.2-23.8-9.7-3.7-7.2-10.1-22.5-15.8-36.5-6.1-15 .4-32.2 14.9-39.5l1.4-.7c16-7 30.8 2.7 37.2 18.9z"/><path class="st11" d="M258 237.6s9.8-4 16.7-15.3c0 0 .8 13-14.8 19.2l-1.9-3.9z"/><path class="st5" d="M227.8 200.8c.5 1.1 1.9 1.6 3.1 1.1 1.2-.5 1.8-1.9 1.2-3-.5-1.1-1.9-1.6-3.1-1.1-1.2.5-1.7 1.9-1.2 3zm-2.9-2.8c.4.1 1.4-1.9 3.7-3 2.3-1.2 4.6-.8 4.7-1.2.1-.2-.5-.6-1.5-.7-1-.2-2.5-.1-3.9.7-1.4.7-2.4 1.9-2.8 2.7-.5.8-.4 1.4-.2 1.5zm25.4-8.1c.5 1.1 1.9 1.6 3.1 1.1 1.2-.5 1.8-1.9 1.2-3-.5-1.1-1.9-1.6-3.1-1.1-1.2.5-1.8 1.9-1.2 3zm-2.2-3.2c.4.2 1.7-1.7 4.1-2.5 2.4-.9 4.6-.2 4.8-.6.1-.2-.4-.6-1.4-.9-1-.3-2.4-.4-4 .1-1.5.5-2.6 1.5-3.1 2.4-.6.8-.6 1.4-.4 1.5zm.4 21c-.1-.1-1.6.3-4.1 1.2-.6.2-1.2.4-1.5 0-.4-.4-.4-1.1-.5-1.9-.2-1.7-.3-3.5-.5-5.3-.8-7.6-1.7-13.6-2-13.6s.1 6.2.9 13.7c.2 1.9.4 3.6.6 5.3.1.8.1 1.7.8 2.5.4.4 1 .5 1.4.4s.8-.2 1.1-.4c2.4-1.1 3.8-1.8 3.8-1.9zm8.4-30c-.4-.6-2.8.1-5.9.2-3 .2-5.6-.3-5.9.4-.1.3.4.9 1.5 1.4s2.7.9 4.5.8c1.8-.1 3.4-.6 4.4-1.3 1.1-.5 1.5-1.2 1.4-1.5zm-28.7 11.9c-.7-.2-1.8 1.2-3.6 2.4-1.7 1.3-3.5 1.8-3.5 2.6 0 .3.6.7 1.5.7s2.3-.3 3.5-1.2c1.2-.8 2-2 2.2-2.9.4-.8.3-1.5-.1-1.6z"/><path class="st10" d="M276.5 182.2c.2-.2 8.7-8.2 13.5 2.2s-6.6 13-6.8 12.7c-.1-.3-6.7-14.9-6.7-14.9z"/><path class="st11" d="M284.6 191.7c0-.1.2 0 .6 0s.9-.1 1.4-.6c.9-.9 1-3.1.2-5-.4-1-1-1.8-1.7-2.4-.7-.6-1.4-.9-2-.8-.6.1-.8.6-.8 1s.2.5.1.6c0 0-.3-.1-.4-.5-.1-.2 0-.5.1-.8.2-.3.5-.6.9-.7.8-.3 1.9.1 2.6.7.8.6 1.5 1.5 2 2.6.9 2.1.7 4.6-.6 5.7-.6.5-1.4.6-1.8.5-.5-.1-.6-.3-.6-.3z"/><path class="st5" d="M282 179c-1.7.4-3.7 3.2-3.6 5s.7 3.5.8 5.3c.1 1.8-.8 3.9-2.5 4.3-1.2.3-2.5-.3-3.3-1.3-.8-.9-1.3-2.1-1.7-3.3-1.8-5.1-3.2-10.3-5.4-15.2-2.2-4.9-5.4-9.5-10-12.4-4.6-2.8-10.7-3.5-15.3-.7-3 1.8-5.1 5-8 7-3.5 2.4-8.1 3.1-12.1 1.7-.1 0-.4-.1-.7-.1-1.4-.2-2.5-1.3-2.6-2.7 0-.5 0-.9.1-1.3 3.3-8.9 13.8-16.2 23.1-18.2 9.3-2.1 20-.1 27.4 5.8 7.5 6 11.8 17.2 13.8 26.1m-25.1 31.5c0 .2-.6.2-1.3.3-.8.1-1.8.5-2.8 1.2s-1.7 1.5-2.1 2.2c-.4.7-.7 1.1-.8 1.1s-.2-.6.2-1.4c.3-.8 1-1.9 2.2-2.7 1.1-.8 2.4-1.1 3.3-1 .8-.1 1.3.2 1.3.3z"/><path class="st11" d="M258.7 188.4c.1 0-.1 1.3-1.2 2.3s-2.5 1.1-2.4 1c0-.1 1.1-.4 2.1-1.4 1-.8 1.4-1.9 1.5-1.9z"/><path class="st10" d="M175.6 206.9l15.8-28.9 13-10.5 16.8 2.3s4.8 5.5 3 8.2c-1.9 2.7-3.5 9.5-5.4 7.1-1.9-2.5-2.3-7.7-2.3-7.7l-4.4-.2v7.8l8.9 2.7s8.8-7.3 9.7-5.7.1 4.6-4.9 8.9c-5 4.3-11.2 10.9-11.2 10.9l-7.9 1.9-7.1 11.4-24-8.2z"/><path class="st6" d="M264.7 244l-82.9 25.2 19.4-55.3-26.3-8.2L145 267c-9 21.2-6.6 30.6 1.8 39.9 6.7 7.4 24.5 3.8 34.3 1.9l72.5-11.3 11.1-53.5z"/><path class="st7" d="M264.7 244l-82.9 25.2 19.4-55.3-26.3-8.2L145 267c-9 21.2-6.6 30.6 1.8 39.9 6.7 7.4 24.5 3.8 34.3 1.9l72.2-11.3 11.4-53.5z"/><path class="st12" d="M166.7 238.6c0 .1-1.7.1-3.7-.1s-3.7-.5-3.7-.7c0-.1 1.7-.1 3.7.1 2.1.3 3.7.6 3.7.7zm1.3-2.9c0 .1-1.6-.2-3.4-.7-1.9-.5-3.3-1.1-3.3-1.2 0-.1 1.6.2 3.4.7 1.9.5 3.3 1.1 3.3 1.2z"/><path class="st8" d="M249.2 290.6s33.4 53.9 33.2 61.9 15.5 25.6 22.4 32.5 46.9 40 62.1 40c0 0 19.6-28.3 18.2-44.9s-32.2-104.2-32.2-104.2-23.9-50.2-46-55.1c-5.6-1.2-14.6-3.2-14.6-3.2 0 .4 1.3 11.4-9.8 18.2-15.6 9.5-34.1 16.3-34.1 16.3l.8 38.5z"/><path class="st8" d="M288.1 236.8l-50 14.4-43.6 9.1 19.4-55.3-27.8-8.7-28.5 61.9c-9 21.2-6.6 30.6 1.8 39.9 6.7 7.4 24.5 3.8 34.3 1.9l85.1-8 9.3-55.2z"/><path class="st10" d="M188.2 196.8l15.1-27.6 13-10.5 16.8 2.3s4.8 5.5 3 8.2c-1.9 2.7-3.5 9.5-5.4 7.1-1.9-2.5-2.3-7.7-2.3-7.7l-4.4-.2v7.8l8.9 2.7s8.8-7.3 9.7-5.7.1 4.6-4.9 8.9-11.2 10.9-11.2 10.9l-7.9 1.9-6.2 9.9-24.2-8z"/><path class="st11" d="M212.4 204.6s0-.1.1-.2.2-.3.3-.5c.3-.5.7-1.1 1.2-1.9 1.1-1.7 2.6-4.2 4.5-7.3h.1c2.3-.6 5-1.2 7.9-1.9h-.1c3.3-3.6 7.3-7.7 12.2-11.8 1.2-1.1 2.3-2.3 3.2-3.7.4-.7.8-1.5.9-2.3.1-.4.1-.8 0-1.2 0-.2-.1-.4-.2-.5 0-.1-.2-.1-.4-.1-.8.1-1.6.6-2.3 1-.8.5-1.5 1-2.2 1.5-1.5 1.1-2.9 2.2-4.4 3.4l-.1.1h-.1c-2.8-.9-5.8-1.8-8.9-2.7l-.2-.1v-8.3h.3c1.4.1 2.9.2 4.4.2h.2v.2c.2 2.1.6 4.3 1.5 6.3.2.4.4.8.6 1.1.2.4.5.6.8.6s.6-.4.8-.7.5-.7.7-1.1c.8-1.6 1.4-3.2 2.3-4.8l.3-.6c.1-.2.2-.4.3-.5 0-.1.1-.2.1-.3l.1-.3c.1-.2.1-.4.1-.6 0-.8-.3-1.6-.6-2.4-.7-1.5-1.7-2.9-2.7-4.2l.2.1c-5.9-.8-11.5-1.6-16.8-2.3h.2c-4.7 3.8-9.1 7.3-13 10.4l.1-.1c-4.7 8.4-8.5 15.3-11.1 20.1-1.3 2.4-2.3 4.2-3.1 5.5-.3.6-.6 1.1-.8 1.4-.2.3-.3.5-.3.5s.1-.2.2-.5c.2-.3.4-.8.8-1.5.7-1.3 1.7-3.2 3-5.5 2.6-4.8 6.4-11.7 10.9-20.2 3.9-3.2 8.3-6.7 13-10.5l.1-.1h.1c5.3.7 10.9 1.5 16.8 2.3h.1l.1.1c1.1 1.3 2.1 2.7 2.8 4.3.3.8.6 1.7.6 2.6 0 .2 0 .5-.1.7l-.1.3c0 .1-.1.2-.2.3l-.3.6-.3.6c-.8 1.5-1.4 3.2-2.3 4.8-.2.4-.4.8-.7 1.2s-.6.8-1.2.9c-.3.1-.6-.1-.8-.2-.2-.2-.4-.4-.5-.6-.3-.4-.5-.8-.7-1.2-.9-2.1-1.3-4.4-1.5-6.5l.2.2c-1.5-.1-3-.2-4.4-.2l.3-.3v7.8l-.2-.2c3.1.9 6.1 1.9 8.9 2.7h-.2c1.5-1.2 2.9-2.3 4.4-3.4.7-.5 1.5-1 2.3-1.5.8-.4 1.5-.9 2.5-1.1.2 0 .6 0 .8.3.1.2.2.4.3.7.1.5.1.9 0 1.4-.1.9-.5 1.7-1 2.4-.9 1.5-2.1 2.7-3.3 3.7-4.9 4.1-8.9 8.2-12.2 11.7-3 .7-5.6 1.3-7.9 1.8l.1-.1c-2 3.1-3.5 5.6-4.6 7.3-.5.8-.9 1.4-1.2 1.9-.1.2-.2.4-.3.5l-.4.5z"/><path class="st5" d="M283.5 304.7s-.5-.3-1.2-.8c-.4-.3-.8-.6-1.4-1s-1.2-.8-1.9-1.2c-1.4-.9-3.2-1.8-5.2-2.7-2-.9-4.3-1.7-6.8-2.3-4.9-1.3-9.6-1.6-12.9-1.6h-5.5s.5-.1 1.4-.2 2.3-.2 4-.2c3.4 0 8 .2 13 1.5 2.5.6 4.8 1.5 6.8 2.4s3.8 1.9 5.2 2.8c.7.4 1.3.9 1.9 1.3.5.4 1 .7 1.3 1.1.9.5 1.3.9 1.3.9zm-5.5-65.3l-1.5.6c-1.1.3-2.5.8-4.1 1.3-3.5 1.1-8.4 2.6-13.7 4.1-5.4 1.6-10.2 3-13.8 4-1.7.5-3.1.9-4.2 1.2-1 .3-1.6.4-1.6.4s.5-.2 1.5-.5c1.1-.3 2.5-.8 4.1-1.3 3.5-1.1 8.4-2.6 13.7-4.1 5.4-1.6 10.2-3 13.8-4 1.7-.5 3.1-.9 4.2-1.2 1-.4 1.6-.5 1.6-.5zM356.8 383s-.2.2-.5.6l-.7.7c-.3.3-.6.6-1 .9-1.6 1.3-4.2 2.8-7.7 3.7-3.5.9-8 1.1-12.7.1s-9.5-3.4-14.1-6.5-8.5-6.6-12.1-9.7c-3.6-3.2-6.8-6-9.7-8.1-2.9-2.2-5.3-3.7-7.1-4.7-.9-.5-1.6-.9-2-1.1-.5-.2-.7-.4-.7-.4s.3.1.8.3c.5.2 1.2.6 2.1 1 1.8.9 4.3 2.5 7.2 4.6 2.9 2.1 6.2 4.9 9.8 8.1 3.6 3.1 7.6 6.6 12.1 9.7s9.3 5.4 13.9 6.4 9 .9 12.5 0c3.5-.8 6.1-2.3 7.7-3.5.4-.3.7-.6 1-.8.3-.2.5-.5.7-.7.3-.5.5-.6.5-.6zm-18.9-56.8s-.4.1-1 .1-1.6 0-2.7-.1-2.5-.3-4-.7c-1.5-.4-3-.9-4.6-1.7-1.6-.8-3-1.6-4.3-2.5-1.2-.9-2.3-1.8-3.1-2.6-.8-.8-1.4-1.5-1.8-2s-.6-.8-.6-.8c.1-.1 1 1 2.6 2.6.8.8 1.9 1.6 3.1 2.5 1.2.8 2.6 1.7 4.2 2.4s3.1 1.3 4.5 1.7c1.4.4 2.8.7 3.9.8 2.4.2 3.8.2 3.8.3z"/><path d="M299.8 365.2c4.1-1.7 8.8-.4 12.5 2s6.7 5.7 10 8.5c3.3 2.9 7.3 5.4 11.7 5.5 6.3.2 12-4.5 18.4-4.5 2.4 0 5.2 1.3 5.3 3.6.1 1.8-1.4 3.3-3 4.3-6.9 4.5-11.5 7.6-26.5 1.8-10.5-5.5-19.9-12.7-28.4-21.2z" opacity=".2"/><path class="st5" d="M283.2 352.4c-.1.1-7.2-12.8-15.9-28.7-8.7-15.9-15.6-28.9-15.4-28.9.1-.1 7.2 12.8 15.9 28.7 8.6 15.9 15.6 28.8 15.4 28.9z"/><path class="st12" d="M235.2 295.8s-.3-.5-.7-1.5-1-2.4-1.7-4.3c-1.3-3.6-3-8.7-4.3-14.4-1.4-5.7-2.2-11-2.6-14.8-.2-1.9-.4-3.5-.4-4.5-.1-1.1-.1-1.7-.1-1.7s.1.6.3 1.7c.1 1.1.3 2.6.6 4.5.5 3.8 1.4 9.1 2.8 14.8 1.4 5.7 2.9 10.8 4.2 14.4.6 1.8 1.1 3.3 1.5 4.3.3.9.5 1.4.4 1.5zm5.9-.1s-.3-.6-.7-1.6-1-2.6-1.6-4.5c-1.3-3.8-2.8-9.1-4-15.1s-2-11.5-2.3-15.5c-.2-2-.3-3.6-.3-4.7s-.1-1.7 0-1.7c0 0 .1.6.2 1.7s.3 2.7.5 4.7c.4 4 1.2 9.4 2.4 15.4s2.7 11.3 3.9 15.1c.6 1.9 1.1 3.4 1.4 4.5.3 1.1.5 1.7.5 1.7zm74.9 21.2s-.2.1-.5.2c-.4.1-.8.2-1.4.3-1.2.3-3 .7-5.2 1.1-4.4.8-10.5 1.8-17.3 2.3s-13 .6-17.5.4c-2.2-.1-4-.2-5.3-.3-.6-.1-1-.1-1.4-.1-.3 0-.5-.1-.5-.1h1.9c1.2 0 3.1.1 5.3.1 4.5.1 10.6 0 17.4-.6 6.8-.5 12.9-1.4 17.3-2.1 2.2-.4 4-.7 5.2-.9.6-.1 1-.2 1.4-.3h.6zm42.3-16.8s-.4.4-1.3 1c-.8.7-2.1 1.6-3.7 2.6-3.2 2.1-7.7 4.9-12.9 7.5-5.2 2.6-10.2 4.4-13.8 5.6-1.8.6-3.3 1-4.3 1.3s-1.6.4-1.6.4.5-.2 1.6-.6c1-.3 2.5-.8 4.3-1.5 3.6-1.3 8.5-3.2 13.7-5.7 5.2-2.6 9.8-5.2 13-7.3 1.6-1 2.9-1.9 3.8-2.5.6-.5 1.1-.8 1.2-.8zm-.9-8.8l-.2.2c-.2.1-.4.3-.6.4-.6.4-1.4 1-2.3 1.7-.5.4-1.1.8-1.7 1.2-.6.4-1.3.9-2.1 1.3-1.5.9-3.2 2.1-5.2 3.1-1 .6-2 1.1-3.1 1.7s-2.2 1.1-3.4 1.7c-2.3 1.2-4.9 2.3-7.7 3.5-5.5 2.3-11.7 4.4-18.3 6.1-6.7 1.7-13.1 2.7-19 3.3-3 .2-5.8.5-8.4.5-1.3 0-2.6.1-3.8.1-1.2 0-2.4 0-3.5-.1-2.2 0-4.3-.2-6-.3-.9-.1-1.7-.1-2.5-.2s-1.4-.2-2.1-.3c-1.2-.2-2.2-.3-2.9-.4-.3 0-.5-.1-.7-.1s-.3 0-.3-.1h.3c.2 0 .4 0 .7.1.7.1 1.7.2 2.9.3.6.1 1.3.1 2.1.2s1.6.1 2.5.1c1.8.1 3.8.3 6 .2h3.5c1.2 0 2.5-.1 3.8-.1 2.6 0 5.4-.3 8.4-.6 5.9-.6 12.3-1.7 18.9-3.3 6.6-1.7 12.8-3.8 18.2-6.1 2.7-1.2 5.3-2.3 7.6-3.5 1.2-.6 2.3-1.1 3.4-1.7s2.1-1.2 3.1-1.7c2-1 3.7-2.2 5.2-3.1.8-.5 1.5-.9 2.1-1.3s1.2-.8 1.7-1.2c1-.7 1.8-1.2 2.4-1.6.3-.2.5-.3.6-.4.3.4.4.4.4.4zm-150.8-65.7c0 .1-6.8-1.7-15-4.1-8.3-2.4-14.9-4.5-14.9-4.6s6.8 1.7 15 4.1c8.3 2.4 15 4.5 14.9 4.6zm-1.3 3.8c0 .1-6.9-1.7-15.3-4.2-8.4-2.4-15.1-4.5-15.1-4.7 0-.1 6.9 1.7 15.3 4.2s15.2 4.6 15.1 4.7z"/><path d="M291.6 321.3c-.4-8.8-6.4-16.8-14.1-21.1-7.7-4.4-16.6-5.6-25.5-5.1l22.5 39c2.8.1 5 .1 7.7-.4 2.8-.6 5.5-1.9 7.2-4.2 1.8-2.3 2.3-5.3 2.2-8.2z"/></g><g id="Plant"><path class="st5" d="M411.6 400.4s.1-.2.2-.6c.2-.4.5-1 .8-1.7.7-1.5 1.6-3.8 2.3-6.8 1.6-6.1 2.1-15.3-.2-26.3-1.1-5.5-2.8-11.4-4.9-17.7-2.1-6.3-4.5-12.9-6.4-20.1s-3.5-15-3.2-23.1c.3-8.2 2.7-16.4 5.4-24.5 2.7-8.1 5.4-16.1 6.2-24.1.9-8-.8-15.8-4.4-22.3-3.5-6.5-8-12.1-11.3-17.8-3.4-5.7-5.5-11.6-6.8-17.1-2.5-11.1-1.6-20.4-.4-26.5 1.3-6.2 2.8-9.4 2.8-9.4s0 .2-.2.6c-.1.4-.3 1-.6 1.8-.5 1.6-1.1 3.9-1.7 7-1.1 6.1-1.9 15.4.7 26.3 1.3 5.4 3.4 11.3 6.8 16.9 3.3 5.7 7.8 11.2 11.4 17.8 3.7 6.5 5.5 14.6 4.6 22.7-.8 8.1-3.6 16.2-6.3 24.3-2.7 8.1-5.1 16.2-5.4 24.3-.3 8 1.2 15.8 3.1 22.9 1.9 7.2 4.3 13.8 6.3 20.1 2.1 6.3 3.8 12.2 4.8 17.8 2.2 11.1 1.6 20.4-.1 26.5-.8 3-1.8 5.3-2.5 6.8-.4.7-.7 1.3-.9 1.7 0 .4-.1.5-.1.5z"/><path class="st8" d="M400.7 221s-6.7-21.6 5.4-34.2c.4-.4 1.2-.2 1.3.4.6 3.6 1.4 14.4-6.7 33.8z"/><path class="st5" d="M404.8 194c.1 0-.1 1.5-.5 4-.4 2.7-1 6-1.5 9.5-.6 3.6-1.1 6.8-1.5 9.5-.4 2.4-.6 3.9-.7 3.9s-.1-1.5.1-4 .7-5.9 1.3-9.6c.6-3.7 1.3-7.1 1.8-9.5.5-2.3.9-3.8 1-3.8z"/><path class="st8" d="M408.6 271.9s4.1-22.2 20.7-27.7c.6-.2 1.1.3 1 .9-1.1 3.5-5.4 13.4-21.7 26.8z"/><path class="st5" d="M424.9 249.9c.1.1-.8 1.3-2.3 3.3-1.7 2.2-3.6 4.8-5.8 7.7-2.2 2.9-4.1 5.5-5.8 7.7-1.5 2-2.4 3.2-2.5 3.1s.6-1.4 2-3.5c1.3-2.1 3.3-4.9 5.6-7.9s4.4-5.7 6-7.5c1.6-1.8 2.7-2.9 2.8-2.9z"/><path class="st8" d="M404.2 327.6s-2.5-22.5 11.8-32.5c.5-.4 1.2 0 1.2.6-.1 3.6-1.4 14.4-13 31.9z"/><path class="st5" d="M413.3 301.9c.1 0-.4 1.5-1.2 3.8-1 2.6-2.1 5.7-3.3 9-1.2 3.4-2.3 6.4-3.3 9-.8 2.3-1.3 3.8-1.5 3.7-.1 0 .2-1.5.9-3.9s1.8-5.6 3.1-9.2c1.3-3.5 2.6-6.7 3.6-9 .9-2.1 1.6-3.4 1.7-3.4z"/><path class="st8" d="M416.7 383.7s-1.7-22.5 12.9-32.1c.5-.3 1.2 0 1.2.7-.2 3.6-1.9 14.3-14.1 31.4z"/><path class="st5" d="M426.7 358.3c.1 0-.4 1.5-1.3 3.8-1.1 2.6-2.3 5.6-3.6 8.9-1.4 3.3-2.6 6.4-3.6 8.9-.9 2.3-1.5 3.7-1.6 3.7s.3-1.5 1-3.9c.8-2.4 2-5.6 3.4-9 1.4-3.5 2.8-6.6 3.9-8.8 1-2.3 1.7-3.6 1.8-3.6z"/><path class="st8" d="M391 202.1s-20-10.5-20.4-27.9c0-.6.7-1 1.2-.6 3 2 11.2 9.1 19.2 28.5z"/><path class="st5" d="M374.8 180.2c.1-.1 1 1.1 2.5 3.1 1.6 2.2 3.5 4.9 5.6 7.8 2.1 2.9 4 5.5 5.7 7.8 1.5 2 2.4 3.2 2.3 3.3s-1.2-1-2.8-2.9c-1.6-1.9-3.7-4.6-5.9-7.7-2.2-3.1-4.1-5.9-5.5-8-1.3-2.1-2-3.4-1.9-3.4z"/><path class="st8" d="M412.5 248.4s-20.6-9.2-22.1-26.7c-.1-.6.6-1 1.1-.7 3.2 1.9 11.8 8.5 21 27.4z"/><path class="st5" d="M395 227.5c.1-.1 1.1 1.1 2.7 3 1.8 2.1 3.8 4.7 6.1 7.5s4.4 5.3 6.1 7.4c1.6 1.9 2.6 3.1 2.5 3.1-.1.1-1.2-.9-2.9-2.7-1.7-1.8-4-4.4-6.3-7.3-2.4-2.9-4.5-5.6-5.9-7.6-1.6-2.1-2.4-3.3-2.3-3.4z"/><path class="st8" d="M400.7 300.1s-14.2-17.6-7.5-33.8c.2-.6 1-.6 1.3-.1 1.9 3 6.6 12.8 6.2 33.9z"/><path class="st5" d="M394.6 273.5c.1 0 .5 1.5 1 3.9.6 2.7 1.3 5.9 2 9.4.8 3.5 1.5 6.7 2.1 9.4.5 2.4.9 3.9.8 3.9s-.7-1.4-1.4-3.8-1.5-5.7-2.3-9.4c-.8-3.7-1.4-7-1.8-9.5-.4-2.4-.6-3.9-.4-3.9z"/><path class="st8" d="M414.7 360.9s-20.5-9.6-21.6-27c0-.6.6-1 1.1-.7 3.1 1.9 11.6 8.6 20.5 27.7z"/><path class="st5" d="M397.5 339.7c.1-.1 1.1 1.1 2.6 3 1.7 2.2 3.7 4.7 6 7.6 2.2 2.8 4.3 5.4 6 7.5 1.5 1.9 2.5 3.1 2.4 3.2s-1.2-1-2.9-2.8c-1.7-1.8-3.9-4.4-6.2-7.4-2.3-3-4.4-5.7-5.8-7.7-1.4-2.1-2.2-3.4-2.1-3.4zm58-67.7v1.9c-.1 1.4-.1 3.2-.2 5.5-.3 4.8-.6 11.5-1.1 19.6-1.5 8.2-5.6 17.2-11.2 26-4.1 6.5-8.4 12.4-12.1 17.9s-6.9 10.5-9.1 15-3.5 8.3-4.2 11c-.4 1.3-.6 2.4-.8 3.1-.2.7-.3 1.1-.3 1.1s0-.4.1-1.1.3-1.8.6-3.2c.7-2.7 1.9-6.6 4-11.2s5.3-9.7 9-15.2 8-11.4 12-17.9c5.6-8.8 9.7-17.7 11.2-25.7.6-8 1-14.7 1.4-19.5.2-2.3.3-4.1.4-5.5.1-.6.1-1 .1-1.4l.2-.4z"/><path class="st8" d="M443.3 323.4s8.7-20.9-2.2-34.5c-.4-.5-1.1-.3-1.3.3-1 3.4-2.8 14.2 3.5 34.2z"/><path class="st5" d="M441.7 296.2c.1 0 .4 1.5.7 3.9.3 2.5.6 5.8.9 9.6.3 3.8.4 7.2.4 9.7s-.1 4-.2 4-.2-1.5-.4-4c-.2-2.8-.4-6-.6-9.6-.3-3.6-.5-6.8-.7-9.6-.2-2.5-.2-4-.1-4z"/><path d="M443.3 323.4s8.7-20.9-2.2-34.5c-.4-.5-1.1-.3-1.3.3-1 3.4-2.8 14.2 3.5 34.2z"/><path class="st8" d="M416.4 373.7s6.9-21.5-5-34.2c-.4-.4-1.2-.2-1.3.4-.7 3.5-1.6 14.3 6.3 33.8z"/><path class="st5" d="M412.6 346.7c.1 0 .5 1.5 1 3.9s1.1 5.8 1.7 9.5 1 7.1 1.2 9.6.2 4 .1 4-.3-1.5-.7-3.9c-.4-2.7-.9-6-1.4-9.5-.5-3.6-1-6.8-1.4-9.5-.4-2.6-.6-4.1-.5-4.1z"/><path d="M416.4 373.7s6.9-21.5-5-34.2c-.4-.4-1.2-.2-1.3.4-.7 3.5-1.6 14.3 6.3 33.8z"/><path class="st8" d="M454.3 297.9s18.5-13 16.6-30.3c-.1-.6-.8-.9-1.2-.5-2.7 2.4-9.9 10.5-15.4 30.8z"/><path d="M454.3 297.9s18.5-13 16.6-30.3c-.1-.6-.8-.9-1.2-.5-2.7 2.4-9.9 10.5-15.4 30.8z"/><path class="st5" d="M467.6 274.1c.1.1-.5 1.5-1.5 3.7-1.1 2.2-2.6 5.3-4.4 8.6-1.8 3.3-3.5 6.3-4.8 8.4s-2.3 3.3-2.4 3.2c-.1-.1.6-1.4 1.8-3.6 1.3-2.4 2.9-5.3 4.6-8.5s3.3-6 4.6-8.5c1.2-2.1 2-3.4 2.1-3.3z"/><path class="st8" d="M423.9 352.4s22.3-3.5 28.3-19.9c.2-.6-.3-1.2-.9-1-3.5 1-13.6 5.1-27.4 20.9z"/><path d="M423.9 352.4s22.3-3.5 28.3-19.9c.2-.6-.3-1.2-.9-1-3.5 1-13.6 5.1-27.4 20.9z"/><path class="st5" d="M446.3 336.8c.1.1-1.1 1.1-3 2.6s-4.7 3.6-7.7 5.8c-3.1 2.2-5.9 4.1-8 5.4s-3.5 2-3.5 1.9c-.1-.1 1.2-1 3.2-2.4 2.3-1.6 4.9-3.5 7.9-5.6 2.9-2.1 5.6-4 7.9-5.6 1.9-1.3 3.2-2.2 3.2-2.1z"/><path class="st9" d="M397.5 393.5l6.4 42 25.6-.1 8.6-41.9z"/><path class="st5" d="M434.3 409.7l-.2.2c-.2.1-.4.2-.7.4-.6.3-1.6.7-2.9.9-1.3.2-2.9.1-4.7-.4-1.8-.6-3.7-1.7-5.1-3.7-.7-1-1.1-2.2-1.2-3.5s.4-2.8 1.7-3.6c1.3-.8 3-.5 4.3.4s2.1 2.3 2.5 3.9c.4 1.5.4 3.1.3 4.7s-.4 3.3-1 4.9-1.6 3.1-3 4.2c-1.3 1.1-3.1 2-4.9 2.1-1.9.1-3.6-.6-5.1-1.5s-2.8-2.1-3.8-3.5c-1-1.3-1.8-2.9-1.9-4.6s.5-3.4 1.8-4.4c1.3-1.1 3.2-1 4.5-.3 1.4.7 2.4 2 2.6 3.4.5 2.9-1.2 5.5-3.2 6.6-2.1 1.2-4.4 1.2-6.2.9-1.8-.4-3.3-1.1-4.4-1.7-1.1-.7-1.9-1.3-2.5-1.7-.5-.4-.8-.7-.8-.7l.9.6c.6.4 1.4.9 2.5 1.5s2.6 1.3 4.3 1.6c1.7.3 3.9.2 5.9-.9 1.9-1.1 3.4-3.6 2.9-6.1-.2-1.3-1.1-2.4-2.3-3-1.2-.6-2.8-.7-3.9.2-1.1.9-1.6 2.4-1.5 3.9s.8 3 1.8 4.2c1 1.3 2.2 2.4 3.6 3.3s3 1.5 4.7 1.4 3.3-.8 4.5-1.9c1.3-1.1 2.2-2.5 2.8-4 .6-1.5.9-3.1 1-4.6.1-1.6.1-3.1-.3-4.5-.3-1.4-1-2.8-2.2-3.5-1.1-.8-2.6-1-3.7-.4s-1.6 1.9-1.5 3.1.5 2.3 1.1 3.3c1.3 1.9 3.1 3 4.8 3.6 1.7.6 3.3.7 4.5.5 2.8-.5 4-1.4 4-1.3z"/></g></svg>